<?xml version="1.0" encoding="UTF-8"?>
<svg width="157px" height="157px" viewBox="0 0 157 157" version="1.1" xmlns="http://www.w3.org/2000/svg" xmlns:xlink="http://www.w3.org/1999/xlink">
    <!-- Generator: Sketch 52.5 (67469) - http://www.bohemiancoding.com/sketch -->
    <title>Bitmap</title>
    <desc>Created with Sketch.</desc>
    <defs>
        <circle id="path-1" cx="78.5" cy="78.5" r="78.5"></circle>
    </defs>
    <g id="Page-1" stroke="none" stroke-width="1" fill="none" fill-rule="evenodd">
        <g id="цены-(кухня)-" transform="translate(-800.000000, -955.000000)">
            <g id="Group-5" transform="translate(780.000000, 935.000000)">
                <g id="Group-11-Copy-3">
                    <g id="Bitmap" transform="translate(20.000000, 20.000000)">
                        <mask id="mask-2" fill="white">
                            <use xlink:href="#path-1"></use>
                        </mask>
                        <use id="Mask" fill="#108D2C" fill-rule="nonzero" xlink:href="#path-1"></use>
                        <g id="food" mask="url(#mask-2)" fill="#FFFFFF" fill-rule="nonzero">
                            <g transform="translate(40.000000, 40.000000)" id="Shape">
                                <path d="M63.0509361,39.0048871 C62.7098794,38.6088508 62.4206572,38.1767419 62.1822681,37.7205 C62.0650768,49.9826371 52.197219,59.9224113 40.0826938,59.9224113 C27.8955501,59.9224113 17.980365,49.86375 17.980365,37.500254 C17.980365,25.1367581 27.8955501,15.0780968 40.0826938,15.0780968 C50.5668076,15.0780968 59.3691762,22.5222581 61.6246078,32.4734637 L63.626125,17.3788669 L63.6711986,17.0394798 C57.9718953,10.2870484 49.5120859,6 40.0826938,6 C32.7261854,6 25.9601408,8.61043548 20.634197,12.9640403 L20.634197,13.2899637 L20.634197,13.5785444 L20.634197,19.9720282 L20.634197,20.2258065 C20.634197,24.4963427 18.4523855,28.3952298 15,30.6230927 L15,55.6142782 L15,56.0448629 C20.6527272,63.8919194 29.7898923,69 40.0826938,69 C50.8983488,69 60.4386719,63.3597218 66,54.8275403 L66,54.3659637 L66,40.9799879 C64.8716581,40.6075766 63.8492392,39.9310887 63.0509361,39.0048871 Z"></path>
                                <path d="M40.5,19 C30.2991811,19 22,27.2989285 22,37.5 C22,47.7010715 30.2989285,56 40.5,56 C50.7010715,56 59,47.7010715 59,37.5 C59,27.2989285 50.7008189,19 40.5,19 Z"></path>
                                <path d="M75.9174525,2.94538839 C75.9174525,1.31865948 74.634619,0 73.052086,0 C71.6172957,0 70.4036237,1.09085628 70.2125002,2.5527209 L66.0256294,34.5442917 C65.9153181,35.38645 66.1644481,36.2362528 66.7083198,36.8758345 C67.2524395,37.5154162 68.0385003,37.8820927 68.8652152,37.8820927 L70.5464087,37.8820927 L70.5464087,72.1970523 C70.5464087,73.7450439 71.7672695,75 73.2732043,75 C74.7791392,75 76,73.7450439 76,72.1970523 L75.9174525,2.94538839 Z"></path>
                                <path d="M17,3.90214465 C17,2.85139994 16.1482239,2 15.0970149,2 C14.045806,2 13.1940299,2.85139994 13.1940299,3.90214465 L13.1940299,14.4270914 L10.4029851,14.4270914 L10.4029851,3.90214465 C10.4029851,2.85139994 9.55120896,2 8.5,2 C7.44879104,2 6.59701493,2.85139994 6.59701493,3.90214465 L6.59701493,14.4270914 L3.80597015,14.4270914 L3.80597015,3.90214465 C3.80597015,2.85139994 2.95419403,2 1.90298507,2 C0.851776119,2 0,2.85139994 0,3.90214465 L0,21.0635473 C0,24.7712076 2.38938806,27.9297822 5.70895522,29.087047 L5.70895522,72.2101879 C5.70895522,73.750925 6.95858209,75 8.5,75 C10.0414179,75 11.2910448,73.750925 11.2910448,72.2101879 L11.2910448,29.087047 C14.6106119,27.9297822 17,24.7712076 17,21.0635473 L17,3.90214465 Z"></path>
                            </g>
                        </g>
                    </g>
                </g>
            </g>
        </g>
    </g>
</svg>