<svg width="1467" height="393" viewBox="0 0 1467 393" fill="none" xmlns="http://www.w3.org/2000/svg"><path d="M81.805 74.97C64.278 33.415 37.01 8.732 0 .918V393h1467V67.663c-63.08-36.815-131.83-20.518-136.32-20.19-155.37 28.704-183.46 172.435-186.35 178.448-25.36 126.749-109.61 126.652-117.86 127.469-120.978 10.802-139.089-125.472-140.017-127.469-25.636-104.855-118.467-86.935-121.442-87.636-71.755 12.293-80.56 89.624-82.126 92.185-22.7 84.533-103.909 75.879-108.764 74.405-76.283-14.197-80.922-81.796-81.33-87.748l-.008-.11c-7.277-71.828-30.497-95.858-36.512-102.864-78.275-46.577-117.22 20.83-121.849 24.132-24.372 48.72-48.86 58.909-65.25 65.488C94.529 258.577 84.032 85.078 81.805 74.969z" fill="#fff"/></svg>