<svg width="14" height="12" viewBox="0 0 14 12" xmlns="http://www.w3.org/2000/svg"><title>check-mark</title><path d="M13.389.092c-.632-.33-1.337.306-1.75.684-.947.896-1.75 1.933-2.648 2.876-.997 1.037-1.92 2.075-2.94 3.089-.584.566-1.215 1.179-1.604 1.886-.875-.825-1.628-1.721-2.6-2.452-.705-.519-1.87-.896-1.847.353.049 1.627 1.531 3.372 2.625 4.48.461.472 1.069.967 1.773.99.85.048 1.725-.943 2.236-1.485.899-.943 1.628-2.004 2.454-2.97 1.069-1.274 2.162-2.523 3.207-3.82C12.951 2.92 15.017.94 13.39.092zM1.069 6.434c-.024 0-.048 0-.097.024a1.206 1.206 0 0 1-.267-.095c.073-.047.194-.023.364.071z"/></svg>