<svg width="18" height="18" viewBox="0 0 18 18" fill="none" xmlns="http://www.w3.org/2000/svg"><path fill-rule="evenodd" clip-rule="evenodd" d="M15 2h-2.5c-.928 0-1.818.37-2.476 1.03A3.48 3.48 0 0 0 9 5.5V8H7v3h2v7h3v-7h3V8h-3V6c0-.27.104-.52.293-.71.186-.18.441-.29.707-.29h2V2zm1-2c.529 0 1.039.21 1.414.59.375.37.586.88.586 1.41v14c0 .529-.211 1.04-.586 1.41-.375.38-.885.59-1.414.59H2c-.53 0-1.039-.21-1.414-.59A1.984 1.984 0 0 1 0 16V2C0 1.47.211.96.586.59.961.21 1.47 0 2 0h14z" fill="#FBFBFB"/></svg>