<svg width="20" height="20" viewBox="0 0 20 20" fill="none" xmlns="http://www.w3.org/2000/svg"><path fill-rule="evenodd" clip-rule="evenodd" d="M10 7a3.004 3.004 0 0 0-3 3c0 .8.315 1.56.879 2.12.561.56 1.325.88 2.121.88a3.01 3.01 0 0 0 2.121-.88c.563-.56.879-1.32.879-2.12s-.316-1.561-.879-2.12A3.01 3.01 0 0 0 10 7zm0-2c1.326 0 2.598.529 3.536 1.46a5.008 5.008 0 0 1 0 7.08A5.03 5.03 0 0 1 10 15a5.028 5.028 0 0 1-3.536-1.46A5.006 5.006 0 0 1 5 10c0-1.33.526-2.601 1.464-3.54A5.024 5.024 0 0 1 10 5zm5.25-1.5c.332 0 .648.13.884.37a1.238 1.238 0 0 1 0 1.76c-.236.24-.552.37-.884.37-.332 0-.649-.13-.884-.37a1.238 1.238 0 0 1 0-1.76c.235-.24.552-.37.884-.37zM5.6 2c-.955 0-1.871.38-2.546 1.05A3.624 3.624 0 0 0 2 5.6v8.799A3.597 3.597 0 0 0 5.6 18h8.799c.955 0 1.871-.38 2.546-1.05A3.625 3.625 0 0 0 18 14.399V5.6C18 3.609 16.39 2 14.399 2H5.6zm.2-2h8.4C17.399 0 20 2.6 20 5.8v8.4c0 1.54-.611 3.01-1.699 4.1A5.792 5.792 0 0 1 14.2 20H5.8C2.6 20 0 17.399 0 14.199V5.8c0-1.54.61-3.011 1.699-4.101A5.79 5.79 0 0 1 5.8 0z" fill="#FBFBFB"/></svg>