<svg width="18" height="18" viewBox="0 0 18 18" fill="none" xmlns="http://www.w3.org/2000/svg"><path d="M9.555 4.102c1.77.773 2.707 2.67 2.385 4.493A4.501 4.501 0 0 1 13.5 12v.127a2.25 2.25 0 1 1 .75 4.373H4.5a3 3 0 0 1 0-6h.202C3.75 9.337 3.45 7.68 4.125 6.195a4.118 4.118 0 0 1 5.43-2.093zm-.608 1.373a2.615 2.615 0 0 0-3.465 1.327 2.617 2.617 0 0 0 .075 2.295A4.49 4.49 0 0 1 9 7.5a4.5 4.5 0 0 1 1.5.255 2.63 2.63 0 0 0-1.553-2.28zm1.215-2.745a5.898 5.898 0 0 0-1.252-.39l1.867-.975.675 2.167a5.753 5.753 0 0 0-1.29-.802zm-5.595.6a5.24 5.24 0 0 0-.967.892l.082-2.107 2.22.51a4.972 4.972 0 0 0-1.335.705zM13.5 7.282A7.269 7.269 0 0 0 13.192 6l1.785 1.125-1.537 1.672a6.35 6.35 0 0 0 .06-1.515zM2.28 8.475c.052.45.15.877.292 1.275L.795 8.625l1.53-1.665a5.99 5.99 0 0 0-.045 1.515zM14.25 13.5H12V12a3 3 0 1 0-6 0H4.5a1.5 1.5 0 1 0 0 3h9.75a.75.75 0 1 0 0-1.5z" fill="#5A5A5A"/></svg>