<svg id="Layer_1" xmlns="http://www.w3.org/2000/svg" viewBox="0 0 142.4 94.7"><style>.st0{display:none}.st1{display:inline;fill-rule:evenodd;clip-rule:evenodd;fill:#cbcbcb}.st2{fill:#8f2380}.st3{fill:#fff}.st4{fill:#c07918}.st5{fill:#d6851b}.st6{fill:#d4841a}.st7{fill:#d3831a}.st8{fill:#d2831a}.st9{fill:#d7851b}.st10{fill:#d8861b}.st11{fill:#2c3662}.st12{fill:url(#SVGID_1_)}.st13{fill:#7b417a}.st14{fill:#602c60}.st15{fill:#5f2b60}.st16{fill:#5d2a5d}.st17{fill:#8f2380;stroke:#fff;stroke-miterlimit:10}.st18{fill:#502450}.st19{fill:#522552}.st20{fill:#5a295a}.st21{fill:none}</style><g id="logo-1color" class="st0"><path class="st1" d="M-71.9 1719.3l69.8 50.4 28 89.4 24.8 11s-2.9 16.1-2.9 21.6c-1.5 0-112.9 4.9-112.9 4.9l-19.8-23.9-5.4-92.9-20.4-23.7-29.3-1.5 7.2 102.5s16.1 12.6 19 13.1l-2.9 21.6-133.7 4.4-2.9-22.1 20.1-13.5 10.4-100.8-7.2-127.8-24.3-12.7 3.9-35.1 133.7 6.3 2.9 21.6-20.1 13.2-6.9 96.5 27.1-10.4 47.2-90-25.3-14.9 4.4-20.5 129.2-4.8-3.4 36.2-29 7.6-81.3 94.3zm-286.2 35l51.3 49.6 17.8 52.7 19.8 10.9-.1 27.6-86.7 4.6-26.5-24.6-16.7-88.2-14.4-20.9-31.8 1.2 7.2 85.2 25.2 13-3 27.6-133.4 6.1-3.3-25.3 29.5-20.3 6.2-106.1-8-111.4-41-16 4.8-28.2 171.3-10.2 74.4 24 27 55.2-36.1 79.7-33.5 13.8zm-88.3-17.2l52.4-17.2 16.5-36.7-1.7-17.3-30.4-42.3-32.6 12.4-4.2 101.1zm-135 154.7l-129 4.3-4.1-21.9 20.8-13.5-.1-71.2s-.3.3-.5.1c-.5-.3-98.4.9-98.4.9l-10.5 60.7 33.5 14.7-2.8 32.6-139.1-3.9-1.1-28.5 35.9-14.3 48.9-82.1 42.2-140.2-43.2-7.4 4.3-34.5 194-4.1 8.5 165 16.3 94.8 26.3 15.9-1.9 32.6zm-115.8-152.3l-8.3-99.8-38.1-5.1-39.4 113.8 85.8-8.9zm-327.7 51.5l.8 56.9 51.8 18.8-2.3 32.2-161.3-6.7-4.4-29.4 28.1-17.2 8.2-87.4-1.6-121-26.2-18.9 2.2-30.5 134.1-8.3 85.7 14.1 45.2 67.4-19 79.4-53.6 47-87.7 3.6zm-.8-31.4l56.4-15.7 16.7-71.4-16.1-39.3-12.5-13-38.6 7.1-5.9 132.3zM62.8 1347.3l-14 8.3-7.2 70 3.7 122.6-67.7-3.8-34.3-103-20-29.7-6.8 50.7 6.8 57.3 20.6 9.6-1 14.8-70.7 6.3-3-16.7 13.9-13.7 8.5-68 .1-91.4-17-7.5 2-18.2 80-4.6 25 65 33.9 48.1v-34l-3.6-50.5-23.9-12.9 2-15.7 70.7 2.6zm-217.3-18.7l19.2 81.7-19.2 7.9-41.9-65.7-32.8 9.8-4.7 66.8 21.6-7.3 22-19.4 11.5 2-8.6 70.6-10.3-.1-14.2-23.4-22.5-.7 4.2 67.9 12.1 10.7 20.6-7.5 44.3-69.2 22.6 4.6-25.8 85.5-157.3 8.2-2.5-15.2 14.9-10 4.7-77.1-3.1-89.5-13.5-9.2 2-12.4zm-369.2 10.2l93.2-7-14.2 122.1 7.4 33.2 32 20 2.8-63.8-3.2-111.5 72.5 6-10 108.5-1.4 75.9 12.5 10-3 17.8-65.7 5-2.6-30.4-15.8 24.2-56.4 2.3-34.9-44.5 12.3-135.9-23.9-9.5zm-3.3 184.9l-21.6-60.2-35.7-26.3 21.3-7.9 29.2-37.8-11.8-39.9-54.3-23.4-126.7 6.7v17.1l20 8.6 3.5 92.6-5.4 65.8s-13.1 9.6-14.1 9.8v14.7l96.1 6 3.1-14.8-13.5-11-5.4-71.8 21.3 3.7 15.4 73.8 17.5 21 75-5.4 1.3-13.6-15.2-7.7zm-109.5-158.2l22.6-9.6 13.1 16.2 1.4 16-12.9 36.5-29.6 4.8 5.4-63.9zm-112.4-37.6l14.2 87.7-20.9 3.5-39.6-66.4-34.7 5.8-4.1 70.5 19-6.3 15.3-20.4 11.6-.7 7.3 72.6-12.3.6-19.5-23.4-21.2-.7 3.9 70.9 10.4 10.4 25.4-8.1s40.9-73.5 42.1-73.6l21.9 4.2-24.6 97.8-156.7-6.1-1.5-20.2 12.9-9.5 1.8-69.3-2.3-88.7-13.5-8.6 2-13.1 163.1-8.9zm-260.7 100l48 34.6 19.2 61.4 17 7.6s-2 11.1-2 14.8c-1 0-67.6 4.1-67.6 4.1l-17.9-17.1-20.4-78.2-23.1-3.1 5 70.6s11 8.7 13.1 9l-2 14.8-91.8 6-2-15.2 13.8-9.3 5-68.6-4.9-99-13.9-8.7 2-15.2 91.9 4 2 16.9-13.8 9.1-3.7 61.6 17.6-5.4 32.4-61.9-17.4-10.3 3-14.1 92.2-2-2.4 27-23.3 10-56 56.6z"/></g><g id="rabochee"><path class="st2" d="M115.3 82.6l-19.5 2.3L69 78.4l-6.7-26.8 11.5-22.7 21.8-9.1 26.8 17.9 9.3 20.5zM52.6 41.8L37.9 54.5 12 44.4l-6.3-7.6L7 23.9l11.7-9.4L34 11.7 50.2 24z"/><path class="st2" d="M133.2 29.7l-5.6 13.6-23.5 15.2-25.4-9.7L74 23.3 91.4 9.9 121 7.2z"/><path class="st2" d="M90.7 32.2L83.4 51l-16.5 5.1-16.9-7-10.1-12.3 4.2-22.5L61.7 6l25.9 10.3z"/><path class="st2" d="M56.4 50.4l-6.8 20.5-22.4 1.9L12 63 7 46.1l16.3-19.9 16.8-2.6 13.7 10z"/><path class="st2" d="M82.2 64.5l-9.9 17.9-23 6.3-15.8-5.1-5.9-18.7L35 47.2l17.8-7.4 15.7 2.9 7.4 17.8z"/><path class="st3" d="M121.4 18.8l-.8-.9-4.4-2.4-1.9-.3-6.7.7-.7.9-.5-.3-1.8-.3-6.5.7-.2.2-.7-.1-13.7 1.5-.2.2-.9-.1-8.1.9-.1.2-.8-.1-7.5.8-1.1 1.3-1.2-.4L62 21l-13.2 1.2-.1.2-.6-.1-13.7 1.5-.1.1-.3-.1-8 .9-.7.6-1.8-.3-8.4.9-2.1 2.5.1 26.8 2.5 2.5 4.3 2.3 2.1.4 6.7-1.1.6-.7 1.6.9 1.6.3 1.9.3 1.7 15.7.9 1.7 1.3 1.1 3.2 1.9 1.7.1 6.9-.7 2.8-2.9 3.4 2.1 1.8.1 7-.7 2-1.9 2 1.2 1.7.1 8-.7.1-.2.7.1 6.9-.7.1-.1 2.1 1.3 1.7.3 1.8.1 4.3-2.8 1.7.1 8.2-.8.2-.2 1.2.8 1.6.2 2 .1 7.3-5.9.5-3.2-.9-1.6-4.7-7.5 5.1-13z"/><path class="st3" d="M122.1 16.2l-4.3-2.4-2-.3-6.6.7-.7.9-2.4-.6-38.6 4.2-1.2 1.3-1.2-.4-1.5-.3-36 3.7-.7.6-1.8-.3-8.4 1-2.2 2.5.2 26.7 2.5 2.5 4.3 2.4 2 .3 6.7-1.1.6-.7 1.7.9 1.5.3 1.9.3 1.8 15.8.9 1.6 1.3 1.1 3.1 1.9 1.8.1 6.9-.6 2.8-3 3.3 2.1 1.8.1 7.1-.7 1.9-1.9 2 1.3 1.8.1 15.7-1.6 2.2 1.3 3.4.3 4.3-2.8 1.8.1 8.2-.8 1.4.6 3.5.3 7.3-5.9.6-3.2-5.6-9.1 5.7-11.9-.6-1.1 1.3-.2 2-2.4 1-21.1z"/><path class="st2" d="M121.6 17s-.1 0 0 0l-4.1-2.2-1.7-.3-6.1.7-.9 1.1-2.6-.8-38.1 4.1c-.1 0-.1 0-.2.1l-1.3 1.5-1.7-.6-1.3-.3L28.1 24H28l-.8.6-2.1-.3-7.8.8c-.1 0-.1 0-.2.1L15.6 27s-.1.1-.1.2l.1 25.9c0 .1 0 .1.1.2l1.2 1.3.8.7 4 2.2h.1l1.7.3 6.1-1c.1 0 .1 0 .1-.1l.8-1 2.2 1.2h.1l1.3.3 2.6.4 1.8 16.2v.1l.7 1.3 1.1.9 2.8 1.7h.1l1.4.1 6.4-.6c.1 0 .1 0 .2-.1L54 74l4.2 2.5 1.4.1 6.7-.7 2.2-2.1 2.5 1.5 1.4.1 16.2-1.5 2.1 1.3s2.8.3 2.9.3l4.5-2.9 1.8.3 8.2-.8 1.7.6h.1l2.7.3c.1 0 6.8-5.5 6.8-5.5l.4-2.3c0-.1-5.6-9.3-5.6-9.3l5.6-11.8v-.2l-.9-1.7 2.2-.4c.1 0 .1 0 .1-.1l1.5-1.7s0-.1.1-.1l.9-20.3c-.1-.5-2.1-2.6-2.1-2.6z"/><path class="st4" d="M111.4 37.1l-.6-.6-4.1-6.7 1 1.3z"/><path class="st3" d="M112.7 25.7l-.5.6-.8-8.6.5.4z"/><path class="st3" d="M111.9 18.1l-.5-.4.3-.3.7.2zm4.4 21.3l-.9-.1-.7-.4 1 .2z"/><path class="st2" d="M114.7 38.9l-3.3-1.8-3.7-6 3.4 1.9z"/><path class="st3" d="M103 38.4l-.5-.5-.7-19.1.5.3z"/><path class="st3" d="M102.3 19.1l-.5-.3.3-.4.7.2zm4.6 21.6l-3.4-1.8-.5-.5 3.4 1.9z"/><path class="st5" d="M121.2 19.6l-.7-.7.5.4.5.6z"/><path class="st2" d="M117.2 17l-.9-.1-4.6.5.7.2 3.3 1.8 4.8-.5z"/><path class="st3" d="M115.3 19.9l-3.4-1.8.5-.5 3.3 1.8z"/><path class="st2" d="M116 27.5l-3.3-1.8-.8-7.6 3.4 1.8z"/><path class="st3" d="M107.7 40.9l-.8-.2-.5-.4 1 .2z"/><path class="st2" d="M115.7 39.1l-1-.2-3.6-5.9.5-.5zm.9-19l-.9-.7 4.8-.5.7.7z"/><path class="st3" d="M116.3 20.4l-1-.5.4-.5.9.7z"/><path class="st2" d="M117.1 29l-1.1-1.5-.7-7.6 1 .5z"/><path class="st6" d="M110.8 19.9l-3.4-1.8.8.3 3.3 1.9z"/><path class="st3" d="M111.5 20.6l-.7-.7.7.4.6.6z"/><path class="st2" d="M107.4 18.1l-.8-.2-4.5.5.7.2 3.3 1.8 4.7-.5zm-1 22.2l-3.4-1.9-.7-19.3 3.4 1.9z"/><path class="st3" d="M105.7 21l-3.4-1.9.5-.5 3.3 1.8z"/><path class="st2" d="M107 21.1l-.9-.7 4.7-.5.7.7z"/><path class="st3" d="M121.2 19.6l.3.3-.8 18.4-.4.4-4 .7-.6-.3-4.1-6.6.2 7.3-.4.4-3.7.7-.3-.4-.7-19 .3-.4 4.5-.5.6.3 5 8.1-.8-8.6.3-.3z"/><path class="st3" d="M106.7 21.5l-1-.5.4-.6.9.7z"/><path class="st2" d="M107.4 40.5l-1-.2-.7-19.3 1 .5z"/><path class="st7" d="M93.2 35.1l-1-.1 7.4-1.9.9.2z"/><path class="st8" d="M94 26.9l-.9-.1 5.2-.5.9.1z"/><path class="st2" d="M104.5 35.8l-.7-.7.5.4.6.6z"/><path class="st4" d="M86.8 41.5l-.5-.5 1.1-12.9.5.5zm1.1-12.9l-.5-.5v-1l.5.4z"/><path class="st2" d="M96.6 36.9l-3.4-1.8 8-1.8 2.6 1.8zm6.6-8l-.7-.7.5.5.6.5z"/><path class="st3" d="M87.7 20.7l-.5-.3.3-.4.7.1zm.2 6.8l-.5-.4-.2-6.7.5.3z"/><path class="st2" d="M97.1 37.6l-.5-.7 7.2-1.8.7.7z"/><path class="st3" d="M90.6 43.8l-3.3-1.9-.5-.4 3.4 1.8z"/><path class="st2" d="M97.4 28.8L94 26.9l5.2-.5 3.3 1.8z"/><path class="st9" d="M104.2 21.4l-.7-.7.5.5.5.5z"/><path class="st3" d="M91.5 43.9l-.9-.1-.4-.5 1 .3z"/><path class="st2" d="M98 29.4l-.6-.6 5.1-.6.7.7zm-7.8 13.9l-3.4-1.8 1.1-12.9 3.4 1.8zm1 .3l-1-.3 1.1-12.9 1 .4zm8.9-24.7l-.8-.2L87.5 20l.7.1 3.3 1.9 12-1.3z"/><path class="st2" d="M91.1 22.6l-3.4-1.9.2 7.9 3.4 1.8z"/><path class="st3" d="M91.1 22.6l-3.4-1.9.5-.6 3.3 1.9z"/><path class="st2" d="M92.4 22.7l-.9-.7 12-1.3.7.7z"/><path class="st3" d="M104.5 35.8l.4.3.4 4.8-.4.4-13.4 2.6-.3-.3 1.1-12.8v-1l-.2-6.8.3-.3 11.8-1.3.3.3v4.6l-.3.3-6.5.5.3 2.3 5.2-.5.4.3.2 4.5-6.9 1.7.2 2.2z"/><path class="st3" d="M92.1 23l-1-.4.4-.6.9.7z"/><path class="st2" d="M92.1 23l-1-.4.2 7.8 1 .4v-1z"/><path class="st3" d="M79.8 36.8l-.7-.1.6-.7.6.3z"/><path class="st3" d="M80.3 36.3l-.6-.3-1.5-14.7.5.4z"/><path class="st3" d="M78.7 21.7l-.5-.4.2-.3.7.1z"/><path class="st4" d="M70.2 38.3l-.6-.6-.3-.8.6.5z"/><path class="st3" d="M83.2 38.6l-3.4-1.8.5-.5 3.3 1.9z"/><path class="st3" d="M84 39.3l-.8-.7.4-.4 1 .5z"/><path class="st2" d="M79.9 38l-3.4-1.9 3.3.7 3.4 1.8z"/><path class="st3" d="M78.9 46l-.8-.1-.8-.3 1 .2zm-8.8-23.4l-.6-.3.4-.4.6.2z"/><path class="st3" d="M69.9 37.4l-.6-.5.2-14.6.6.3zm-5.4 9.4l-.7-.7-4.8-6.3 1 1.1z"/><path class="st10" d="M89.4 23l-.7-.7.5.4.5.6z"/><path class="st2" d="M80.4 38.6l-.5-.6 3.4.6.8.7zm5-18.1l-.9-.2-6.1.7.7.1 3.4 1.9 6.2-.7zm-1.8 17.7l-3.3-1.9-1.6-14.6 3.3 1.8z"/><path class="st3" d="M82 23.5l-3.3-1.8.4-.6 3.4 1.9z"/><path class="st2" d="M73.5 40.2l-.3-.9-3.3-1.9-.3.3 3.7 5.4.7.7 3.3 1.8z"/><path class="st7" d="M59.6 34h-1l2.6-1.1.5.3z"/><path class="st4" d="M61.7 33.2l-.5-.3-.7-4.4.6.6z"/><path class="st2" d="M78.3 45.8l-1-.2-3.8-5.4 1 .2zm5-22.2l-.8-.6 6.2-.7.7.7zm1.3 15.1l-1-.5L82 23.5l1.1.5z"/><path class="st3" d="M83.1 24l-1.1-.5.5-.5.8.6z"/><path class="st2" d="M74.5 40.4l-1-.2-.3-.9 1.1.3zm1.8-19l-.9-.1-5.5.6.6.2 3.4 1.8 5.8-.6zm-3.1 17.9l-3.3-1.9.2-14.8 3.3 1.9z"/><path class="st3" d="M73.4 24.5l-3.3-1.9.4-.5 3.4 1.8z"/><path class="st2" d="M67.8 48.6l-3.3-1.8-4.5-5.9 3.4 1.9zm7-24l-.9-.7 5.8-.6.6.7z"/><path class="st3" d="M74.4 25l-1-.5.5-.6.9.7z"/><path class="st2" d="M74.3 39.6l-1.1-.3.2-14.8 1 .5z"/><path class="st3" d="M89.4 23l.3.3.3 15.1-.3.9-4.2 5.3-.7.5-5.9.9-.6-.2-3.8-5.4-.2-.8.1-14.6.4-.4 5.5-.6.3.3-.7 11.2.5 3.1 3.6.7.6-.6L83.1 24l.2-.4zM57.7 48.9l-3.3-1.8-.5-.4 3.3 1.8z"/><path class="st2" d="M68.8 48.8l-1-.2-4.4-5.8.5-.4z"/><path class="st3" d="M53.9 46.7l-.6-.6-.8-22 .5.4z"/><path class="st3" d="M53 24.5l-.5-.4.3-.4.7.2z"/><path class="st2" d="M63 35.9L59.6 34l2.1-.8L65 35z"/><path class="st3" d="M68.1 24.6l-3.3-1.8.8.3 3.3 1.8z"/><path class="st2" d="M65 35l-3.3-1.8-.6-4.1 3.3 1.9z"/><path class="st3" d="M58.6 49.1l-.9-.2-.5-.4 1.1.3z"/><path class="st2" d="M63.5 36.7l-.5-.8 2-.9 1.1.6z"/><path class="st3" d="M68.9 25.3l-.8-.7.8.3.7.7z"/><path class="st2" d="M66.1 35.6L65 35l-.6-4 1 .2zm-1.3-12.8l-.8-.1-11.2 1 .7.2 3.3 1.8 11.3-1.1zm-7.6 25.7l-3.3-1.8-.9-22.2 3.4 1.8z"/><path class="st3" d="M56.4 26.3L53 24.5l.5-.6 3.3 1.8z"/><path class="st2" d="M57.7 26.4l-.9-.7 11.3-1.1.8.7z"/><path class="st3" d="M69.8 38.1l-.1 1 4.4 5.5-.1.5-4.8 3.8h-.5l-4.8-6.4v5.4l-.3.4-5 .8-.4-.3-.9-22 .3-.4 11.2-1.1.7.3 3.3 4-1.1 6.2-.4.8-1.5 1.5zm-6.3-1.4l2.6-1.1-.6-4.4-2.1-.3.1 5.8"/><path class="st2" d="M58.3 48.8l-1.1-.3-.8-22.2 1 .5z"/><path class="st3" d="M57.4 26.8l-1-.5.4-.6.9.7z"/><path class="st7" d="M44.6 42.3l-1-.1 6.8-1.7.8.2z"/><path class="st8" d="M44.2 33.4l-1-.1 5.9-.6.9.1z"/><path class="st2" d="M55.1 43.2l-.6-.7.4.4.6.6z"/><path class="st3" d="M38.5 49.3l-.6-.6-1.2-12.5.5.4z"/><path class="st4" d="M37.2 36.6l-.5-.4v-1l.6.4z"/><path class="st2" d="M47.9 44.1l-3.4-1.8 6.6-1.6 3.4 1.8z"/><path class="st3" d="M42.4 51.5L39 49.7l-.5-.4 3.4 1.8z"/><path class="st2" d="M48.4 44.9l-.5-.8 6.6-1.6.6.7z"/><path class="st3" d="M38.4 26.1l-.6-.4.4-.4.7.2z"/><path class="st3" d="M37.3 35.6l-.6-.4 1.1-9.5.6.4zm5.9 16.1l-.8-.2-.5-.4 1 .2z"/><path class="st2" d="M47.6 35.3l-3.4-1.9 5.8-.6 3.4 1.8z"/><path class="st9" d="M55.1 26.7l-.7-.7.5.5.5.5z"/><path class="st2" d="M30.9 52.3l-.6-.7-5.6-10.1.9 1.3zM48.1 36l-.5-.7 5.8-.7.6.7z"/><path class="st3" d="M26.3 35l-1.1.9 3.9-9.2.6.3z"/><path class="st3" d="M29.7 27l-.6-.3.5-.4.8.1z"/><path class="st2" d="M42.9 51.3l-1-.2-1.3-12.6 1 .3zM51 24.2l-.8-.2-12 1.3.7.2 3.4 1.8L54.4 26z"/><path class="st3" d="M41.7 27.9l-3.3-1.8.5-.6 3.4 1.8z"/><path class="st2" d="M43.1 28l-.8-.7L54.4 26l.7.7z"/><path class="st3" d="M55.1 43.2l.4.3.2 5.7-.3.4-12.2 2.1-.3-.4-1.3-12.5 1.1-10.4.4-.4 12-1.3.3.3-.2 5.4-.3.4-6.4.2-.4 3 5.9-.7.3.3-.7 5-.4.4-4.8.5v3.4zM42.7 28.4l-1-.5.6-.6.8.7z"/><path class="st2" d="M41.7 27.9l-1.1 10.6 1 .3 1.1-10.4zm-7.4 26.2l-3.4-1.8-5.3-9.5 3.4 1.9z"/><path class="st3" d="M23.2 54.7l-3.3-1.8-.5-.5 3.4 1.9zm-3.9-26.5l-.6-.4.4-.4.7.2z"/><path class="st3" d="M19.4 52.4l-.5-.5-.2-24.1.6.4z"/><path class="st2" d="M35.2 54.3l-.9-.2-5.3-9.4.6-.5z"/><path class="st3" d="M24.1 54.8l-.9-.1-.4-.4 1 .2z"/><path class="st2" d="M37 25.7l-.9-.2-6.5.8.8.1 3.3 1.9 6.7-.8z"/><path class="st3" d="M33 28.8L29.7 27l.7-.6 3.3 1.9z"/><path class="st2" d="M29.7 36.8L26.3 35l3.4-8 3.3 1.8zm4.8-7.9l-.8-.6 6.7-.8.6.7zm-4.4 9.7l-.4-1.8 3.3-8 1 .6z"/><path class="st2" d="M26.4 26.9l-.8-.2-6.5.7.7.2 3.3 1.8 6.7-.7z"/><path class="st3" d="M34 29.4l-1-.6.7-.5.8.6zm-11.4.6l-3.3-1.8.5-.6 3.3 1.8z"/><path class="st2" d="M24 30.1l-.9-.7 6.7-.7.7.7z"/><path class="st3" d="M41.1 28.4l-5 11.5 5.1 9.8-.1.5-5.4 4.2-.5-.1-5.6-10.1-.3 9.4-.4.5-4.8.7-.3-.3-.1-24 .3-.4 6.5-.7.3.3-.7 8.9 3.9-9.2.5-.5 6.5-.7zm-17.4 2.1l-1.1-.5.5-.6.9.7zm88 6.6l4 2-1-.2-3-1.6zM74 43.8l3.3 1.8 1 .2-5-2.7z"/><path class="st3" d="M69.8 38.1l3.5 5 .6.3-3.8-5.5zM29.4 49.9l.9 1.7.6.7-1.5-2.8zm5.8 4.4l-.9-.2-3.4-1.8-.2-.5 4.3 2zm-15.8-2.2l4.4 2.3v.1h-.7l-.7-.4-3-1.7zm49.4-3.3l-1-.2-3.3-1.8-.6-.6v-.5l4.5 2.6z"/><path class="st11" d="M70.6 66.6c-.1 0-.2 0-.3-.1-.1-.1-.1-.2-.1-.3l.2-1.6c0-.2.2-.3.3-.3.2 0 .3.1.3.3l.3 1.6c0 .1 0 .2-.1.3-.1.1-.2.1-.3.1h-.3z"/><linearGradient id="SVGID_1_" gradientUnits="userSpaceOnUse" x1="70.632" y1="697.024" x2="71.113" y2="697.024" gradientTransform="matrix(1 0 0 -1 0 762.494)"><stop offset="0" stop-color="#43428f"/><stop offset="1" stop-color="#52a6e0"/></linearGradient><path class="st12" d="M71.1 66.3h-.5l.2-1.6.3 1.6z"/><path class="st13" d="M118.5 65.4l-5.7-9.2 5.7-12-.2-.3-.3-.4-2.1-1.3h-.6l-7.2 1.4-.6.5-1 1.8-.3-.2-2.1-1.3h-.6l-7 1.1-.4.5-.1 6.5v-.1l-.3-.5-4.9-3.7-2.1-1.3h-.6l-11.5 1.9-.3.4L78 56l.9 9.8L77 57l-2.9-5-.3-.5-2.1-1.3-.8-.3h-.5l-8.1 1.3-.5.5-1.1 6.1-2.1-1.3-5.6-3.3h-.6l-11.2 1.5-.3.4L43 73.6l.2.4.6.5 2.1 1.3h.6l5.2-.5.3-.4-.2-5.8 4.7.2 2.4-2.1-.9 5 .2.4.4.5 2.1 1.3h.6l5.5-.5.5-.4.3-1.8 3.1-.6.1.3.6.5 2.1 1.3h.6l6.1-.6.3-.4-.5-1.3.1.1 2.1 1.3h.6l5.2-.5.3-.4-.1-3.5 3 3.8 2.1 1.3.7.1h.4l4.5-2.9.1-.5-.2-.4-.3-.3.2.1 2.1 1.3h.6l6.4-.6.3-.4-.9-4.7 2.5 3.4.6.9 2.1 1.3.7.1h.4l5.2-4.2.1-.6-.3-.2zm-22.3-4.8l1.6 7.3-3.3-4.6 1.7-2.7zm-27.1 3.6h-.5l.2-1.6.3 1.6z"/><path class="st14" d="M51.2 60.2l.2-.1.2 4.6-.3-.8z"/><path class="st3" d="M51.7 69.1l-.2-.1.2 5.7-.5.6-5.4.5h.6l5.2-.5.3-.4z"/><path class="st3" d="M60.2 65.6L56 69.2l-4.5-.2.2.1 4.7.1 4-3.4z"/><path class="st15" d="M60.6 57.8l.2.5-.4 7.5-.2-.2z"/><path class="st3" d="M69 58.1l.2-.2-.8 8.5-.2-.6z"/><path class="st16" d="M73.8 51.5l.3.5 2.9 5-.3-.4z"/><path class="st3" d="M67.2 71.6l-.3 1.6-.5.6-5.8.6h.6l5.5-.6.5-.4.2-1.8zM49.1 58.9l2.1 1.3.1 3.7-2.1-1.3z"/><path class="st3" d="M51.5 59.5l2.2 1.3-2.5-.6-2.1-1.3zm20.8 11.1h.7l-5.6 1h-.2zM48.4 58.2l.7.7.1 3.7-.7.1z"/><path class="st3" d="M51.4 59l.1.5-2.4-.6-.7-.7zm-2.3 14.9l2.1 1.4-5.4.5-2.1-1.3zm.3-6.2l2.1 1.3.2 5.7-2.1-1.3z"/><path class="st3" d="M49.6 73.4l2.1 1.3-.5.6-2.1-1.4zm4.2-5.5l2.2 1.3-4.5-.2-2.1-1.3zm4.2-3.6l2.2 1.3-4.2 3.6-2.2-1.3z"/><path class="st3" d="M58.4 56.5l2.2 1.3-.4 7.8-2.2-1.3zm-6.1-3.4h.5l5.6 3.4-.7-.2zM77 57l-.3-.4 3.4 15.3-.4.6-6.3.6h.6l6-.5.3-.4zM48.5 73.4l-5.2.5-.4-.3.2.4.6.5 5.4-.6zm.1-6.3l.8.6.2 5.7-.8-.4zm.2 5.9l.8.4-.5.5-.6-.5zm4.5-5.7l.5.6-4.4-.2-.8-.6z"/><path class="st17" d="M57.7 56.3l-.4 7.5-4 3.5-4.7-.2.2 5.8-.3.4-5.2.5-.4-.3L40.8 55l.3-.4 11.2-1.5 5.4 3.2zm-6.9 5l.5-2.3-3-.8.1 4.5 2.4-1.4"/><path class="st3" d="M57.7 56.3l.7.2-.4 7.8-.7-.5zm-.4 7.5l.7.5-4.2 3.6-.5-.6zm9.5-7l2.2 1.3-.8 7.7-2.1-1.3zm3.5-7h.5l.8.4-.6-.1zm1.3.4l2.2 1.3 2.9 5.1-2.1-1.3z"/><path class="st3" d="M67.7 57.2l.2.4-1.1-.8-.7-.8zm-3.5 15.3l2.2 1.3-5.8.6-2.1-1.4z"/><path class="st3" d="M64.8 71.9l2.1 1.3-.5.6-2.2-1.3z"/><path class="st3" d="M65.1 70.2l2.1 1.4-.3 1.6-2.1-1.3zm1-14.2l.7.8-.7 7.7-.8-.1zm4.1 13.3l2.1 1.3-5.1 1-2.1-1.4zm.8-19.2l.6.1 3 5.1-.7-.2zm-7.4 21.8l-5.5.6-.2-.3.2.4.4.4 5.7-.5z"/><path class="st3" d="M64.3 69.7l.8.5-.3 1.7-.7-.4z"/><path class="st3" d="M64.1 71.5l.7.4-.6.6-.6-.6zm5.8-2.8l.3.6-5.1.9-.8-.5zm7.7 2.5l2.1 1.3-6.3.6-2.1-1.3zm.4-.6l2.1 1.3-.4.6-2.1-1.3zm-3.4-15.3l2.1 1.3 3.4 15.3-2.1-1.3zm2.3 15.3l-6 .6-.5-.3.3.4.6.5 6.3-.6zm.3-.3l.8.3-.4.6-.7-.6z"/><path class="st3" d="M73.9 55.1l.7.2L78 70.6l-.8-.3z"/><path class="st17" d="M71 50.1l2.9 5 3.3 15.2-.2.3-6.1.6-.5-.3-.5-2.2-5.6 1-.3 1.8-.5.4-5.5.5-.3-.3 3.9-20.5.5-.5 8.1-1.3.8.3zm-5.7 14.3l3.8-.2-1.4-7-1.6-1.2-.8 8.4"/><path class="st14" d="M87.6 54.2h.2l.3 6.7-.3-1z"/><path class="st3" d="M95.8 51.9l.2.4 1.3 6.6-.2-.3z"/><path class="st3" d="M97.1 58.6l.2.3-2.9 4.4-.1-.3zm1.7 10.8l-.2.7-4.6 3 .4.1 4.5-3 .1-.5zM87.6 53.2l2.1 1.3-2.1-.3-2.1-1.3z"/><path class="st3" d="M85.5 52.9l2.1 1.3.2 5.7-2.1-1.3zm3.3-6l2.1 1.3 4.9 3.7-2.1-1.3zm-1.4 5.8l.2.5-2.1-.3-.8-.6z"/><path class="st3" d="M84.7 52.3l.8.6.2 5.7-.7.3zm3.4 13.3l-.2.5.2 5.1-.5.5-5.4.6h.6l5.2-.5.3-.4z"/><path class="st3" d="M80.1 70.9l2.1 1.4 5.4-.6-2.1-1.3zm5.6-6.1l2.2 1.3.2 5.1-2.1-1.3zm.3 5.1l2.1 1.3-.5.5-2.1-1.3zm2.2-23h.6l4.9 3.7-.7-.2zm5.5 3.7l2.1 1.3 1.3 6.7-2.2-1.3z"/><path class="st3" d="M94.9 57.3l2.2 1.3-2.8 4.4-2.2-1.3zm-10 12.6l-5.2.5-.4-.4.2.5.6.5 5.4-.5zm.1-6.2l.7 1.1.3 5.1-.8-.4zm.2 5.8l.8.4-.5.5-.6-.5z"/><path class="st3" d="M94.2 57l.7.3-2.8 4.4-.8-.3z"/><path class="st3" d="M93 50.4l.7.2 1.2 6.7-.7-.3zm-1.1 21.4l2.1 1.3-.8-.1-2.1-1.3zm.2-10.1l2.2 1.3 4.5 6.4-2.2-1.3z"/><path class="st3" d="M96.5 68.8l2.1 1.3-4.6 3-2.1-1.3z"/><path class="st3" d="M96.6 68.1l2.2 1.3-.2.7-2.1-1.3zm-5.8 3.1l.3.5-5.4-6.9-.7-1.1zm.5-9.8l.8.3 4.5 6.4-.7-.3z"/><path class="st3" d="M95.8 68.3l-4.5 3-.5-.1.3.5.8.1 4.6-3zm.1-.5l.7.3-.1.7-.7-.5z"/><path class="st17" d="M94.2 57l-2.8 4.4 4.5 6.4-.1.5-4.5 2.9-.6-.1-5.7-7.4.2 5.8-.3.4-5.2.5-.4-.4L78 56l-1.6-6.8.3-.4 11.5-1.9 4.8 3.6 1.2 6.5zm-7-.4l.2-3.9-2.7-.4.3 6.6 2.2-2.3"/><path class="st15" d="M106.8 46.1l.2.4-.3 6.9-.2-.5z"/><path class="st18" d="M106.4 61.5l.6-.1-.6.3-.1-.2z"/><path class="st3" d="M118.3 43.8l.2.4-5.7 12-.2-.3zm-11.9 17.9l-.1-.2 1.5 7.8-.4.5-6.6.7h.6l6.3-.6.3-.4zm-2.3-17.3l2.2 1.3.5.4-2.2-1.3zm14.4 21l-.2.8-5.3 4.3h.4l5.2-4.2.1-.5zm-13.9-20.6l2.2 1.3-.3 6.8-2.2-1.3zm-1-.5l.5.1.5.4-.7-.2z"/><path class="st3" d="M103.9 44.6l.7.2-.3 6.8-.7-.1z"/><path class="st19" d="M104.3 60.1l2.1 1.4h-.1l-2.2-1.3z"/><path class="st20" d="M103.6 51.5l.7.1h.2-.3z"/><path class="st3" d="M115.9 42.2l2.1 1.3.3.3-2.1-1.3z"/><path class="st3" d="M116.2 42.5l2.1 1.3-5.7 12.1-2.1-1.3zm-.9-.4l.6.1.3.3-.8-.2zm-10.1 26.4l2.2 1.3-6.6.7-2.1-1.4zm-1.1-8.3l2.2 1.3 1.5 7.8-2.1-1.4z"/><path class="st3" d="M105.7 67.9l2.1 1.4-.4.5-2.2-1.3zm9.7-25.6l.8.2-5.7 12.1-.8-.3z"/><path class="st3" d="M104.6 68l-6.3.6-.5-.4.2.5.7.4 6.5-.6zm-1.3-8.2l.8.4 1.6 7.7-.8-.3z"/><path class="st3" d="M104.9 67.6l.8.3-.5.6-.6-.5zm6 1.6l2.1 1.3-.7-.1-2.1-1.3zm-.4-14.6l2.1 1.3 5.9 9.5-2.2-1.3z"/><path class="st3" d="M116.3 64.1l2.2 1.3-.2.8-2.1-1.3zm-.1.8l2.1 1.3-5.3 4.3-2.1-1.3z"/><path class="st18" d="M109.8 68.5l.4.6-5.9-9-.4-.6z"/><path class="st3" d="M109.7 54.3l.8.3 5.8 9.5-.7-.3z"/><path class="st17" d="M115.4 42.3l-5.7 12 5.9 9.5-.1.6-5.2 4.2-.5-.1-6.5-8.7 1.6 7.8-.3.4-6.3.6-.5-.4-1.8-8.4.2-13.9.3-.4 7.1-1.2.3.3-.3 6.9 3.9-7.4.6-.5 7.2-1.5z"/><path class="st3" d="M115.5 64.4l-5.2 4.2-.5-.1.4.6.7.1 5.3-4.3zm.1-.6l.7.3-.1.8-.7-.5z"/><path class="st21" d="M50.8 61.3l.4-1.9h-2.9l.1 3.4 2.4-1.5zm52.8-9.8l.3-.6c-.1 0-.2.1-.3.1v.5zm-16.4 5.1v-1.1c-.8.2-1.6.3-2.4.5l.1 3 2.3-2.4z"/><path class="st3" d="M69.1 64.2L68 58.5c-.7.1-1.4.1-2.1.2l-.6 5.8 3.8-.3z"/></g></svg>