<svg width="168" height="109" viewBox="0 0 168 109" fill="none" xmlns="http://www.w3.org/2000/svg"><path d="M144.367 100.806l-25.57 2.943-35.364-8.544-8.786-35.18L89.81 30.067l28.688-11.863 35.268 23.428 12.297 27.078-21.696 32.096zM61.91 47.091L42.606 63.753 8.502 50.458.142 40.53 1.92 23.522l15.414-12.367L37.41 7.474l21.272 16.205 3.227 23.412z" fill="#DE9835"/><path d="M167.984 31.153l-7.432 17.89-30.844 19.997-33.459-12.776-6.203-33.56L112.908 5.16l39.016-3.603 16.06 29.595z" fill="#F3EB78"/><path d="M112.105 34.52l-9.683 24.686-21.76 6.734-22.232-9.204-13.304-16.174 5.573-29.58L73.86.047l34.104 13.484 4.141 20.99z" fill="#995F9F"/><path d="M66.9 58.45l-9.02 26.922-29.475 2.55L8.502 74.94 1.921 52.77l21.413-26.18 22.09-3.414L63.469 36.36l3.433 22.09z" fill="#995F9F"/><path d="M100.879 76.907l-13.116 23.538-30.215 8.307-20.767-6.64-7.731-24.67 9.683-23.302 23.413-9.66 20.72 3.839 9.7 23.301 8.313 5.287z" fill="#F3EB78"/><path d="M152 17.773l-1.112-1.177-5.718-3.15-2.569-.446-8.662.939-.909 1.209-.658-.334-2.428-.446-8.49.907-.235.303-.924-.16-17.999 1.973-.282.335-1.096-.191-10.574 1.193-.22.302-1.033-.175-9.806 1.066-1.473 1.766-1.582-.588-2.052-.414-17.294 1.686-.188.24-.689-.128-18.03 1.989-.094.08-.345-.049-10.448 1.178-.94.78-2.396-.398-10.997 1.225L10 30.629l.188 35.608 3.274 3.342 5.592 3.086 2.695.462 8.772-1.48.767-.955 2.209 1.226 2.005.381 2.475.414 2.318 20.955 1.19 2.243 1.708 1.416 4.089 2.562 2.303.111 9.054-.875 3.618-3.898 4.418 2.768 2.35.112 9.226-.907 2.537-2.53 2.663 1.67 2.288.112 10.385-1.018.126-.16 1.033.048 8.976-.875.11-.127 2.788 1.75 2.146.366 2.381.127 5.624-3.77.016.015 2.302.128 10.746-1.082.188-.255 1.629 1.034 2.099.27 2.538.144 9.555-7.86.721-4.216-1.175-2.053-6.125-10.071 6.626-17.263L152 17.774z" fill="url(#a)"/><path d="M154.784 13.596l-5.754-3.15-2.585-.446-8.718.939-.914 1.209-3.106-.78-50.981 5.553-1.482 1.766-1.593-.588-2.065-.414L30.2 22.68l-.946.78-2.412-.398-11.067 1.225L13 27.629l.19 35.608 3.294 3.342 5.628 3.086 2.711.462 8.828-1.48.773-.955 2.222 1.226 2.018.381 2.491.414 2.333 20.955 1.198 2.243 1.718 1.416 4.115 2.562 2.317.111 9.112-.875 3.642-3.898 4.445 2.768 2.365.112 9.285-.907 2.554-2.53 2.68 1.67 2.301.112 20.652-2.005 2.916 1.623 4.556.493 5.659-3.77.016.015 2.317.128 10.815-1.082 1.828.78 4.667.413 9.616-7.86.725-4.216-7.346-12.124 7.456-15.815-.788-1.448 1.797-.303 2.633-3.182L158 16.985l-3.216-3.39z" fill="#43428F"/><path d="M151.362 15.315a.334.334 0 0 0-.078-.063l-5.26-2.861c-.031-.016-2.185-.391-2.185-.391h-.047c-.015 0-7.944.891-7.991.954l-1.139 1.485-3.434-1.079h-.062c-.016 0-49.648 5.364-49.648 5.364a.323.323 0 0 0-.203.11l-1.639 1.923-2.279-.83c-.015 0-.03-.015-.047-.015l-1.7-.344h-.094l-46.2 4.848c-.062 0-.108.03-.155.062l-1.03.845-2.716-.454h-.078l-10.13 1.11a.326.326 0 0 0-.202.11l-1.967 2.36a.33.33 0 0 0-.078.204l.172 33.807c0 .078.03.156.078.219l1.623 1.72.016.016.998.906c.016.016.032.032.063.047l5.182 2.815a.22.22 0 0 0 .093.031l2.154.36h.094l7.913-1.314a.29.29 0 0 0 .187-.11l1.062-1.281 2.887 1.579a.213.213 0 0 0 .094.031l1.748.329 3.37.563 2.389 21.203c0 .047.016.078.031.11l.89 1.657c.015.031 1.467 1.235 1.467 1.235l.031.032 3.637 2.251a.264.264 0 0 0 .156.047L51.13 95c.015 0 8.319-.797 8.319-.797a.267.267 0 0 0 .202-.11l3.528-4.347s5.416 3.315 5.478 3.315l1.826.078h.031s8.678-.86 8.725-.922l2.84-2.784s3.232 1.986 3.278 1.986l1.795.094h.031l21.118-1.97s2.7 1.657 2.731 1.673c0 0 3.699.36 3.746.328l5.837-3.846 2.294.36h.032s10.691-1.033 10.738-1.095l2.154.813c.031.031.078.031.124.047l3.575.328h.015c.078 0 8.897-7.162 8.912-7.224l.531-3.018c.015-.078-7.367-12.181-7.367-12.181l7.32-15.433c.047-.094.047-.204-.016-.282l-1.233-2.267 2.935-.485a.29.29 0 0 0 .187-.11l1.904-2.267c.047-.047.063-.125.078-.188L154 18.13c.016-.125-2.638-2.815-2.638-2.815z" fill="#261E5B"/><path d="M147.533 19.167l-.601-.625-4.392-2.45-1.154-.193-6.004.657-.364.497.332 3.572-.189-.208-4.393-2.451-.932-.48-1.106-.209-5.878.64-.411.513.047 1.33-2.212-1.234-1.137-.208-15.39 1.714-.411.513.047 1.473-2.417-1.345-1.138-.208-7.885.897-.363.48.174 1.57-2.576-1.442-1.153-.192-7.269.801-.442.529-5.183 1.105-2.07-.593-14.6 1.442-.41.513.047 1.137-1.928-1.073-1.153-.209-15.58 1.746-.521.561-.063.497-1.012-.561-1.185-.192-8.406.96-.727.61-.71 1.73-2.766-1.538-1.153-.192-8.454.96-.426.53.158 32.196.695.753.632.577 4.393 2.45 1.137.193 6.257-1.057.474-.577.158-4.901 1.249 2.274.79.881 4.392 2.451 1.217.24.585.096 6.462-5.126 2.276 1.266 1.121.192 15.864-2.723.411-.56-.079-1.89 2.734 1.521 1.122.192 6.462-1.105.443-.577v-2.21l.758.817 4.598 2.835 1.185.224.664.064 6.288-5.062.095-.608 3.919.929.98.416 1.074.208 7.727-1.313.948-.577 2.575-3.412 4.061 2.259 1.138.192 17.57-3.444.395-.56-.11-1.538 2.243 1.25 1.122.191 4.804-.833.426-.56-.063-3.396 3.95 2.21.933.449 1.09.208 5.293-.913.474-.593 1.09-24.636-.663-.737z" fill="url(#b)"/><path d="M24.112 64.788h-.079l-1.137-.192a79.296 79.296 0 0 1-.143-.049l-4.44-2.45c-.031-.016-.063-.048-.094-.064l-.632-.577-.032-.032-.711-.753a.513.513 0 0 1-.126-.32l-.158-32.197c0-.113.031-.225.11-.305l.443-.529a.487.487 0 0 1 .316-.176l8.548-.96h.127l1.169.191.142.049 2.323 1.281.52-1.25a.438.438 0 0 1 .143-.192l.743-.608a.46.46 0 0 1 .253-.113l8.5-.96h.127l1.2.192c.048.016.111.032.159.048l.442.24c.016-.032.032-.048.063-.08l.522-.56a.531.531 0 0 1 .3-.145l15.785-1.73h.127l1.153.192.142.048 1.217.673-.016-.288c0-.112.032-.224.11-.32l.411-.513a.486.486 0 0 1 .316-.176L76.73 20.72h.048c.031 0 .063 0 .094.016l1.027.208c.032 0 .048.016.064.016l1.058.385a.12.12 0 0 1 .064.032l4.44 2.45c.015.017.047.032.063.049l.031-3.188a.51.51 0 0 1 .11-.305l.443-.528a.41.41 0 0 1 .316-.16l7.348-.801h.127l1.168.192.143.048 1.817.993-.064-.657a.426.426 0 0 1 .095-.336l.364-.48a.448.448 0 0 1 .332-.193l7.979-.897h.126l1.154.208.142.049 1.722.945-.015-.625c0-.112.031-.224.11-.32l.411-.513a.487.487 0 0 1 .316-.176l15.564-1.714h.126l1.154.208.142.048 1.501.833-.016-.48a.49.49 0 0 1 .111-.32l.411-.514a.485.485 0 0 1 .316-.176l5.941-.64h.126l1.106.208c.048.016.095.016.127.048l.948.48 3.855 2.13-.237-2.578a.426.426 0 0 1 .095-.337l.379-.496a.433.433 0 0 1 .332-.176L145.81 13h.127l1.169.192.142.048 4.44 2.451c.048.016.079.048.111.08l.6.625.696.737a.43.43 0 0 1 .126.352l-1.106 24.637a.46.46 0 0 1-.111.288l-.489.593a.511.511 0 0 1-.285.16l-5.356.913h-.158l-1.106-.208c-.048 0-.079-.016-.111-.032l-.948-.449c-.016 0-.016 0-.032-.016l-3.286-1.81.047 2.563a.493.493 0 0 1-.095.304l-.442.561a.452.452 0 0 1-.3.176l-4.851.833h-.158l-1.138-.192-.142-.048-1.501-.833.047.657a.407.407 0 0 1-.095.32l-.395.56a.494.494 0 0 1-.3.193l-17.776 3.444c-.031 0-.063.016-.095.016h-.079l-1.153-.192c-.047-.016-.111-.032-.142-.048l-3.745-2.067-2.37 3.092a.428.428 0 0 1-.127.112l-.963.577c-.048.032-.111.048-.158.064l-7.822 1.313h-.158l-1.09-.208c-.032 0-.063-.016-.095-.032l-.995-.417c-.016 0-.032-.016-.048-.016l-3.46-1.906a.5.5 0 0 1 .047.304l-.094.61a.5.5 0 0 1-.174.304l-6.368 5.061a.482.482 0 0 1-.3.097h-.048l-.663-.064h-.048l-1.2-.225-.143-.048-4.44-2.467c-.016-.016-.047-.032-.063-.048v1.01a.453.453 0 0 1-.11.304l-.459.576a.455.455 0 0 1-.284.177l-6.542 1.105h-.158l-1.138-.192-.142-.048-2.022-1.122.047 1.042a.583.583 0 0 1-.095.32l-.426.56a.451.451 0 0 1-.3.177l-16.038 2.723h-.158l-1.138-.192-.142-.048-2.023-1.122-6.304 4.934a.469.469 0 0 1-.285.096h-.079l-.584-.096-1.248-.24-.143-.048-4.44-2.451c-.047-.032-.079-.064-.126-.096l-.806-.881a.336.336 0 0 1-.063-.096l-.427-.785-.11 3.187a.464.464 0 0 1-.111.289l-.474.576a.432.432 0 0 1-.285.16l-6.32 1.058h-.095z" fill="#070709"/><path d="M152.083 16.764l-.6-.624-4.44-2.451-1.169-.192-6.068.656-.379.497.332 3.572-.19-.208-4.44-2.451-.948-.48-1.106-.209-5.941.64-.411.514.047 1.329-2.228-1.233-1.153-.209-15.564 1.714-.411.513.048 1.474-2.449-1.346-1.154-.208-7.98.897-.363.48.174 1.57-2.607-1.441-1.17-.193-7.347.801-.442.529-.047 4.325-.759-.769-4.44-2.45-1.059-.385-1.027-.208-14.773 1.441-.411.513.047 1.137-1.943-1.073-1.154-.192-15.785 1.73-.521.56-.064.497-1.027-.56-1.2-.193-8.501.961-.743.609-.758 1.73-2.797-1.538-1.17-.192-8.548.96-.442.53.158 32.197.711.753.632.576 4.44 2.451 1.138.192 6.32-1.057.474-.577.158-4.901 1.264 2.274.806.881 4.44 2.451 1.233.24.584.097 6.542-5.126 2.307 1.265 1.137.192 16.038-2.723.427-.56-.08-1.89 2.766 1.521 1.138.192 6.541-1.105.458-.577v-2.21l.759.817 4.44 2.45 1.2.225.664.064 6.368-5.062.095-.609-5.846-7.4.126-1.282.016-.016 4.63 6.68.805.865 4.44 2.45.996.417 1.09.209 7.821-1.314.964-.577 2.607-3.411 4.109 2.258 1.153.192 17.776-3.444.395-.56-.111-1.538 2.26 1.25 1.138.192 4.85-.833.443-.561-.079-3.396 3.997 2.21.949.45 1.106.207 5.356-.913.49-.592 1.106-24.637-.664-.72zM127.15 28.41l-2.718-1.49 2.654-.192.064 1.682zm.3 8.41l-.458-.257.442-.112.016.368zm-65.337.064l-3.444-1.907 3.381-.112.063 2.019zm.38 9.995l-1.66-.913 1.612-.176.048 1.09zM42.93 25.767l-.047.464.047-.464zm-1.943 16.082l.553 5.607-1.628-3.108 1.075-2.499z" fill="#E6AE38"/><path d="M139.348 40.536l-.79-.849-5.388-8.906 1.375 1.794 4.803 7.961z" fill="#C07918"/><path d="M141.07 25.302l-.569.85-1.074-11.518.679.496.964 10.172z" fill="#B36917"/><path d="M140.106 15.13l-.679-.496.363-.48.901.224-.585.752z" fill="#D0811A"/><path d="M145.842 43.644l-1.106-.209-.948-.448 1.248.272.806.385z" fill="#C07918"/><path d="M143.788 42.987l-4.44-2.451-4.804-7.961 4.44 2.45 4.804 7.962z" fill="#BD7018"/><path d="M128.335 42.346l-.712-.753-.916-25.566.695.465.933 25.854z" fill="#B36917"/><path d="M127.402 16.492l-.695-.464.411-.513.901.224-.617.753z" fill="#D0811A"/><path d="M133.438 45.373l-4.456-2.45-.648-.577 4.441 2.45.663.577z" fill="#C07918"/><path d="M152.352 17.069l-.869-.93.6.625.696.737-.427-.432z" fill="#D6851B"/><path d="M147.027 13.689l-1.153-.192-6.083.656.9.225 4.44 2.45 6.352-.688-4.456-2.451z" fill="#E6AE38"/><path d="M144.562 17.581l-4.456-2.45.585-.754 4.44 2.451-.569.753z" fill="#D98C21"/><path d="M145.51 27.753l-4.44-2.45-.964-10.173 4.456 2.451.948 10.172z" fill="#CF7C1A"/><path d="M134.576 45.582l-1.137-.209-.664-.576 1.327.368.474.417z" fill="#C07918"/><path d="M145.036 43.259l-1.248-.273-4.804-7.96.68-.674 5.372 8.907z" fill="#CB7F1F"/><path d="M146.284 17.726l-1.153-.898 6.352-.688.869.929-6.068.657z" fill="#F8EEA5"/><path d="M145.905 18.222l-1.343-.64.569-.753 1.153.897-.379.496z" fill="#ECBF58"/><path d="M146.98 29.723l-1.47-1.97-.948-10.172 1.343.64 1.075 11.502z" fill="#D98F28"/><path d="M138.621 17.533l-4.44-2.45.948.48 4.44 2.45-.948-.48z" fill="#D4841A"/><path d="M139.553 18.446l-.932-.913.948.48.79.85-.806-.417z" fill="#fff"/><path d="M134.181 15.082l-1.122-.208-5.941.64.901.225 4.44 2.45 6.162-.656-4.44-2.45z" fill="#E6AE38"/><path d="M132.775 44.797l-4.44-2.45-.933-25.855 4.44 2.451.933 25.854z" fill="#C67819"/><path d="M131.842 18.943l-4.44-2.45.617-.754 4.44 2.451-.617.753z" fill="#D98C21"/><path d="M133.596 19.087l-1.138-.897 6.163-.657.932.913-5.957.641z" fill="#F8EEA5"/><path d="M152.352 17.069l.427.432-1.106 24.637-.49.593-5.341.913-.806-.385-5.372-8.906.205 9.82-.442.56-4.851.849-.474-.417-.916-25.565.41-.513 5.957-.64.806.416 6.621 10.86-1.075-11.5.379-.497 6.068-.657z" fill="url(#c)"/><path d="M133.185 19.6l-1.343-.657.617-.753 1.137.897-.411.513z" fill="#ECBF58"/><path d="M134.102 45.165l-1.327-.368-.933-25.854 1.343.657.917 25.565z" fill="#D07D1A"/><path d="M115.394 37.828l-1.296-.144 9.733-2.434 1.122.192-9.559 2.386z" fill="#D3831A"/><path d="M116.468 26.92l-1.296-.192 6.921-.673 1.138.192-6.763.673z" fill="#D2831A"/><path d="M130.326 38.822l-.932-.93.679.513.727.77-.474-.353z" fill="#D7801B"/><path d="M106.94 46.447l-.695-.737 1.422-17.156.711.577-1.438 17.316zm1.438-17.317l-.711-.576.032-1.41.711.61-.032 1.377z" fill="#C07918"/><path d="M119.85 40.28l-4.456-2.451 10.508-2.387 3.492 2.45-9.544 2.387zm8.722-10.653l-.885-.929.664.56.711.77-.49-.4z" fill="#D7801B"/><path d="M108.078 18.622l-.695-.48.411-.513.9.225-.616.768z" fill="#D0811A"/><path d="M108.41 27.753l-.711-.608-.316-9.003.695.48.332 9.131z" fill="#B36917"/><path d="M120.576 41.257l-.726-.978 9.543-2.386.933.929-9.75 2.434z" fill="#F7EC90"/><path d="M111.965 49.474l-4.44-2.45-.585-.577 4.44 2.45.585.577z" fill="#C07918"/><path d="M120.908 29.37l-4.44-2.45 6.763-.673 4.456 2.45-6.779.674z" fill="#D7801B"/><path d="M129.852 19.487l-.885-.913.632.625.695.737-.442-.449z" fill="#D7851B"/><path d="M113.103 49.666l-1.138-.192-.585-.576 1.359.384.364.384z" fill="#C07918"/><path d="M121.651 30.3l-.743-.929 6.779-.673.885.93-6.921.672z" fill="#F7EC90"/><path d="M111.38 48.898l-4.44-2.451 1.438-17.316 4.44 2.45-1.438 17.317z" fill="#BD7018"/><path d="M112.739 49.282l-1.359-.384 1.438-17.317 1.343.561-1.422 17.14z" fill="#CB7F1F"/><path d="M124.527 16.124l-1.17-.208-15.564 1.713.901.225 4.44 2.45 15.833-1.73-4.44-2.45z" fill="#E6AE38"/><path d="M112.534 21.073l-4.456-2.45.3 10.508 4.44 2.45-.284-10.508z" fill="#C67819"/><path d="M112.534 21.073l-4.456-2.45.616-.77 4.44 2.451-.6.77z" fill="#D98C21"/><path d="M114.288 21.201l-1.154-.897 15.833-1.73.885.913-15.564 1.714z" fill="#F8EEA5"/><path d="M130.326 38.822l.474.352.489 6.487-.41.561-17.761 3.444-.379-.384 1.422-17.14.032-1.41-.332-9.018.427-.513 15.564-1.714.442.449v6.103l-.442.496-8.501.593.3 3.172 6.921-.673.49.4.331 5.991-9.117 2.259.3 2.98 9.75-2.435z" fill="url(#d)"/><path d="M113.861 21.714l-1.327-.64.6-.77 1.154.897-.427.513z" fill="#ECBF58"/><path d="M113.861 21.714l-1.327-.64.284 10.507 1.343.561.032-1.41-.332-9.018z" fill="#D98F28"/><path d="M97.713 40.167l-.933-.176.806-.929.68.465-.553.64z" fill="#CC7F19"/><path d="M98.266 39.527l-.68-.465-2.085-19.622.679.496 2.086 19.59z" fill="#B36917"/><path d="M96.18 19.936l-.68-.497.364-.48.869.224-.553.753z" fill="#CA7E19"/><path d="M84.914 42.202l-.758-.801-.3-1.122.71.705.348 1.218z" fill="#C07918"/><path d="M102.169 42.618l-4.456-2.45.553-.641 4.44 2.45-.537.641z" fill="#D7851B"/><path d="M103.259 43.563l-1.091-.945.538-.64 1.359.656-.806.93z" fill="#DC9233"/><path d="M97.744 41.721l-4.44-2.45 4.409.896 4.455 2.451-4.424-.897z" fill="#D7801B"/><path d="M96.464 52.518l-1.09-.208-.98-.4 1.233.256.837.352z" fill="#C07918"/><path d="M84.803 21.17l-.71-.45.442-.544.9.24-.632.753z" fill="#D0811A"/><path d="M84.567 40.984l-.711-.705.237-19.558.71.448-.236 19.815z" fill="#B36917"/><path d="M77.424 53.527l-.837-.897-6.4-8.49 1.344 1.554 5.893 7.833z" fill="#C07918"/><path d="M110.322 21.634l-.885-.913.648.608.695.753-.458-.448z" fill="#D8861B"/><path d="M98.487 42.586l-.743-.865 4.424.897 1.091.945-4.772-.977z" fill="#F7EC90"/><path d="M104.997 18.27l-1.17-.208-7.963.897.869.224 4.456 2.451 8.248-.913-4.44-2.45z" fill="#E6AE38"/><path d="M102.706 41.977l-4.44-2.45-2.086-19.591 4.44 2.45 2.086 19.591z" fill="#C67819"/><path d="M100.62 22.387l-4.44-2.451.553-.753 4.456 2.45-.569.754z" fill="#D98C21"/><path d="M89.354 44.653l-.347-1.218-4.44-2.45-.411.416 4.977 7.192.806.865 4.456 2.451-5.04-7.256z" fill="#BD7018"/><path d="M70.978 36.45l-1.328-.063 3.382-1.474.663.369-2.717 1.169z" fill="#D3831A"/><path d="M73.696 35.282l-.664-.369-.853-5.894.742.88.775 5.383z" fill="#C07918"/><path d="M95.627 52.165l-1.233-.256-5.04-7.257 1.28.32 4.993 7.193z" fill="#D07D1A"/><path d="M102.342 22.53l-1.153-.896 8.248-.913.885.913-7.98.897z" fill="#F8EEA5"/><path d="M104.065 42.634l-1.359-.657-2.086-19.59 1.359.64 2.086 19.607z" fill="#D07D1A"/><path d="M101.979 23.027l-1.359-.64.569-.753 1.153.897-.363.496z" fill="#ECBF58"/><path d="M90.634 44.973l-1.28-.32-.348-1.218 1.328.416.3 1.122z" fill="#D17F1A"/><path d="M93.051 19.584l-1.169-.209-7.347.801.9.24 4.44 2.451 7.616-.832-4.44-2.451z" fill="#E6AE38"/><path d="M89.006 43.435l-4.44-2.45.237-19.816 4.44 2.451-.237 19.815z" fill="#C27A18"/><path d="M89.243 23.62l-4.44-2.45.632-.754 4.44 2.451-.632.753z" fill="#D98C21"/><path d="M81.865 55.978l-4.44-2.451-5.894-7.833 4.44 2.45 5.894 7.834z" fill="#BD7018"/><path d="M91.029 23.765l-1.153-.897 7.615-.833.885.929-7.347.8z" fill="#F8EEA5"/><path d="M90.57 24.293l-1.326-.673.632-.753 1.153.897-.458.529z" fill="#ECBF58"/><path d="M90.334 43.852l-1.328-.417.237-19.815 1.328.673-.237 19.559z" fill="#D98F28"/><path d="M110.322 21.634l.458.448.347 20.232-.395 1.121-5.483 7.192-.963.577-7.806 1.313-.853-.352-4.993-7.192-.3-1.121.236-19.56.459-.528 7.347-.8.395.432-.98 14.993.696 4.197 4.772.977.805-.929-2.085-19.607.363-.496 7.98-.897z" fill="url(#e)"/><path d="M68.528 56.41l-4.44-2.45-.663-.577 4.44 2.45.663.577z" fill="#C07918"/><path d="M83.081 56.202l-1.217-.224-5.893-7.834.71-.432 6.4 8.49z" fill="#CB7F1F"/><path d="M63.425 53.383l-.711-.77-1.138-29.441.695.48 1.154 29.73z" fill="#B36917"/><path d="M62.271 23.652l-.695-.48.411-.513.885.24-.6.753z" fill="#CB7F19"/><path d="M75.418 38.902l-4.44-2.45 2.717-1.17 4.44 2.45-2.717 1.17z" fill="#D7801B"/><path d="M82.228 23.877l-4.44-2.451 1.058.4 4.44 2.451-1.058-.4z" fill="#E6AE38"/><path d="M78.136 37.733l-4.44-2.451-.775-5.383 4.44 2.451.775 5.383z" fill="#BD7018"/><path d="M69.666 56.602l-1.138-.192-.663-.576 1.343.352.458.416z" fill="#C07918"/><path d="M76.144 39.959l-.727-1.057 2.718-1.17 1.375.753-3.366 1.474z" fill="#ECBF58"/><path d="M83.24 24.805l-1.012-.928 1.059.4.884.897-.932-.369z" fill="#fff"/><path d="M79.51 38.486l-1.374-.753-.775-5.382 1.312.256.837 5.879z" fill="#D07D1A"/><path d="M77.788 21.426l-1.043-.193-14.758 1.426.885.24 4.456 2.451 14.9-1.474-4.44-2.45z" fill="#E6AE38"/><path d="M67.865 55.834l-4.44-2.451-1.153-29.73 4.44 2.45 1.153 29.73z" fill="#C67819"/><path d="M66.712 26.103l-4.44-2.45.6-.754 4.456 2.451-.617.753z" fill="#D98C21"/><path d="M68.465 26.247l-1.137-.897 14.9-1.474 1.011.93-14.774 1.441z" fill="#F8EEA5"/><path d="M84.503 41.913l-.126 1.282 5.846 7.4-.095.609-6.368 5.062-.663-.064-6.4-8.506-.015 7.208-.459.577-6.541 1.105-.474-.416-1.138-29.442.411-.513 14.774-1.442.932.369 4.33 5.398-1.501 8.282-.57 1.089-1.943 2.002zm-8.359-1.954l3.382-1.474-.853-5.895-2.75-.352.221 7.721z" fill="url(#f)"/><path d="M69.208 56.186l-1.343-.353-1.154-29.73 1.344.64 1.153 29.443z" fill="#D98F28"/><path d="M68.055 26.744l-1.344-.641.617-.753 1.137.897-.41.497z" fill="#ECBF58"/><path d="M51.21 47.536l-1.327-.128 8.896-2.243 1.106.192-8.674 2.179z" fill="#D3831A"/><path d="M50.69 35.634l-1.391-.176 7.837-.865 1.17.192-7.617.849z" fill="#D2831A"/><path d="M65.1 48.753l-.917-.945.648.497.711.785-.442-.337z" fill="#D7801B"/><path d="M43.105 56.827l-.727-.77-1.643-16.755.71.641 1.66 16.884z" fill="#B36917"/><path d="M41.446 39.943l-.711-.64.016-1.33.71.592-.015 1.378z" fill="#C07918"/><path d="M55.493 49.987l-4.44-2.451 8.674-2.179 4.456 2.451-8.69 2.179z" fill="#D7801B"/><path d="M48.24 59.854l-4.44-2.45-.695-.577 4.44 2.45.695.577z" fill="#C07918"/><path d="M56.204 50.98l-.711-.993 8.69-2.179.917.945-8.896 2.227z" fill="#F7EC90"/><path d="M42.93 25.767l-.726-.433.521-.56.917.224-.711.769z" fill="#CB7F19"/><path d="M41.462 38.566l-.712-.593 1.454-12.639.727.433-1.47 12.799zm7.916 21.48l-1.138-.192-.695-.577 1.311.353.522.416z" fill="#C07918"/><path d="M55.13 38.085l-4.44-2.45 7.616-.85 4.44 2.451-7.617.849z" fill="#D7801B"/><path d="M65.005 26.616l-.885-.93.616.625.696.737-.427-.432z" fill="#D7851B"/><path d="M33.135 60.927l-.806-.897-7.49-13.552 1.296 1.763 7 12.686z" fill="#B36917"/><path d="M55.793 39.03l-.664-.945 7.616-.85.87.93-7.822.865z" fill="#F7EC90"/><path d="M47.545 59.278l-4.44-2.451-1.66-16.884 4.44 2.451 1.66 16.884z" fill="#BD7018"/><path d="M27.02 37.685l-1.47 1.313 5.136-12.366.774.368-4.44 10.685z" fill="#C47B18"/><path d="M31.46 27l-.774-.368.726-.61.933.241-.885.737z" fill="#D0811A"/><path d="M48.856 59.63l-1.311-.352-1.66-16.884 1.344.48 1.627 16.756z" fill="#D07D1A"/><path d="M59.68 23.236l-1.17-.192-15.784 1.73.916.224 4.44 2.45 16.038-1.762-4.44-2.45z" fill="#E6AE38"/><path d="M42.931 25.767l-1.485 14.176 4.44 2.45 1.485-14.176-4.44-2.45z" fill="#C67819"/><path d="M47.371 28.218l-4.44-2.451.711-.769 4.44 2.45-.71.77z" fill="#D98C21"/><path d="M49.204 28.346l-1.122-.897 16.038-1.763.885.93-15.801 1.73z" fill="#F8EEA5"/><path d="M65.1 48.753l.442.337.3 7.672-.426.561-16.038 2.723-.522-.416-1.627-16.756 1.454-13.968.521-.56 15.8-1.73.428.432-.206 7.225-.442.496-8.438.288-.553 3.973 7.822-.865.363.368-.87 6.664-.536.593-6.447.705.079 4.485 8.896-2.227z" fill="url(#g)"/><path d="M48.683 28.906l-1.312-.688.711-.77 1.122.898-.521.56z" fill="#ECBF58"/><path d="M47.371 28.218l-1.485 14.176 1.343.48 1.453-13.967-1.311-.69z" fill="#D98F28"/><path d="M37.575 63.378l-4.44-2.45-7-12.687 4.44 2.45 7 12.687z" fill="#BD7018"/><path d="M22.959 64.115l-4.44-2.451-.632-.593 4.44 2.451.632.593z" fill="#C07918"/><path d="M17.713 28.586l-.695-.465.442-.528.885.224-.632.769z" fill="#CB7F19"/><path d="M17.887 61.072l-.711-.753-.158-32.197.695.464.174 32.486z" fill="#B36917"/><path d="M38.807 63.602l-1.233-.224-7-12.687.743-.64 7.49 13.551z" fill="#CB7F1F"/><path d="M24.112 64.307l-1.153-.192-.632-.592 1.343.368.442.416z" fill="#C07918"/><path d="M41.13 25.27l-1.217-.192-8.5.945.931.24 4.44 2.451 8.786-.993-4.44-2.45z" fill="#E6AE38"/><path d="M35.9 29.45L31.46 27l.885-.737 4.44 2.451-.885.737z" fill="#D98C21"/><path d="M31.46 40.135l-4.44-2.45L31.46 27l4.44 2.45-4.44 10.685z" fill="#CF7C1A"/><path d="M37.89 29.611l-1.105-.897 8.785-.993.837.93-8.516.96z" fill="#F8EEA5"/><path d="M32.029 42.57l-.569-2.434L35.9 29.45l1.264.77-5.135 12.35z" fill="#D98F28"/><path d="M27.162 26.84l-1.153-.208-8.549.96.885.225 4.44 2.451 8.833-.977-4.456-2.45z" fill="#E6AE38"/><path d="M37.164 30.22l-1.264-.769.885-.737 1.106.897-.727.61z" fill="#ECBF58"/><path d="M22.169 31.037l-4.456-2.451.632-.77 4.44 2.452-.616.769z" fill="#D98C21"/><path d="M23.939 31.165l-1.154-.897 8.833-.977.869.93-8.548.944z" fill="#F8EEA5"/><path d="M22.327 63.522l-4.44-2.45-.174-32.486 4.456 2.45.158 32.486z" fill="#CF7C1A"/><path d="M46.565 28.922l-6.652 15.426 6.826 13.04-.174.704-7.157 5.622-.6-.112-7.49-13.551-.411 12.606-.474.593-6.32 1.057-.443-.416-.174-32.198.443-.528 8.548-.945.395.416-.853 11.934 5.135-12.35.727-.609 8.516-.961.158.272z" fill="url(#h)"/><path d="M23.67 63.89l-1.343-.368-.158-32.485 1.327.656.174 32.198z" fill="#D98F28"/><path d="M23.496 31.694l-1.327-.657.616-.769 1.154.897-.443.529z" fill="#ECBF58"/><path d="M139.553 18.446l-5.941.641-.411.513.269 7.592c3.776-.929 7.221-1.89 10.207-2.899l-3.302-5.414-.822-.433z" fill="url(#i)"/><path d="M152.352 17.069l-6.068.657-.379.496.474 5.078c2.528-.977 4.646-1.986 6.273-3.027l.127-2.772-.427-.432z" fill="url(#j)"/><path d="M129.852 26.535l.426-.496.016-6.087-.458-.449-15.564 1.714-.411.513.316 9.002-.015.337c2.543-.433 5.008-.865 7.41-1.33l-.253-2.61 8.533-.594z" fill="url(#k)"/><path d="M98.376 22.964l-7.347.8-.443.53-.126 10.155c2.576-.304 5.135-.64 7.663-.977l.664-10.092-.41-.416z" fill="url(#l)"/><path d="M110.322 21.634l-7.98.897-.363.48 1.043 9.772c2.686-.384 5.341-.785 7.932-1.201l-.158-9.5-.474-.448z" fill="url(#m)"/><path d="M84.171 25.174l-.932-.368-14.773 1.441-.411.513.395 9.98c1.675-.129 3.381-.273 5.12-.45l2.464-.24-.11-3.812 2.749.353.442 3.123c2.876-.304 5.752-.624 8.628-.96l.758-4.198-4.33-5.382z" fill="url(#n)"/><path d="M64.784 34.77l.442-.497.205-7.224-.426-.449-15.785 1.73-.522.56-.885 8.443c2.623.064 5.357.064 8.217.016l.332-2.307 8.422-.273z" fill="url(#o)"/><path d="M32.487 30.22l-8.549.961-.442.529.016 2.483c2.623.769 5.61 1.41 8.99 1.922l.396-5.462-.411-.433z" fill="url(#p)"/><path d="M46.407 28.65l-8.5.962-.743.608-2.56 6.183c2.607.337 5.42.593 8.422.77l3.555-8.234-.174-.289z" fill="url(#q)"/><path d="M149.048 80.262l-7.606-11.925 7.638-15.553-.256-.45-.368-.496-2.835-1.706-.816-.015-9.64 1.86-.832.652L133.052 55l-.353-.31-2.834-1.706-.768-.03-9.416 1.488-.512.59-.112 8.435-.032-.155-.336-.605-6.582-4.76-2.834-1.706-.752-.031-15.42 2.465-.352.512 2.097 8.87 1.233 12.716-2.578-11.382-3.907-6.498-.4-.666-2.834-1.706-1.041-.45-.72-.03-10.873 1.736-.657.636-1.537 7.955-2.85-1.66-7.494-4.341-.736-.031-15.004 2-.416.543 2.786 23.958.32.574.769.604 2.834 1.706.769.031 6.997-.651.464-.527-.304-7.568 6.229.233 3.25-2.714-1.265 6.529.289.511.56.62 2.834 1.706.8.031 7.414-.697.609-.574.336-2.295 4.115-.713.193.34.848.59 2.834 1.706.769.03 8.102-.76.337-.464-.385-1.722.112.093 3.619 1.737 6.901-.651.465-.527-.192-4.528 3.955 4.946 2.834 1.706.993.155.592.031 5.957-3.799.144-.62-.288-.481-.337-.465.257.17 2.834 1.706.752.031 8.503-.806.352-.465-1.265-6.126 3.395 4.435.784 1.148 2.835 1.706.928.124.561.03 6.933-5.427.128-.729-.24-.496z" fill="url(#r)"/><path d="M86.6 79.254a.506.506 0 0 1-.353-.14.45.45 0 0 1-.128-.371l.224-2.094c.016-.232.225-.403.449-.418h.016c.224 0 .432.154.464.372l.432 2.062a.409.409 0 0 1-.096.372.525.525 0 0 1-.352.186l-.64.031c0-.015 0 0-.016 0z" fill="#2C3662"/><path d="M87.24 78.743l-.64.03.224-2.093.416 2.063z" fill="url(#s)"/><path d="M54.095 91.598l-.769-.031a.533.533 0 0 1-.224-.062l-2.834-1.706c-.016-.015-.032-.015-.048-.03l-.769-.606a.339.339 0 0 1-.112-.14l-.32-.573a.305.305 0 0 1-.048-.17l-2.786-23.96a.4.4 0 0 1 .096-.325l.416-.543a.518.518 0 0 1 .32-.186l15.004-2h.08l.736.03c.08 0 .16.031.225.062l7.493 4.342 2.242 1.334 1.41-7.288a.53.53 0 0 1 .127-.248l.657-.636a.495.495 0 0 1 .256-.124l10.873-1.737h.112l.72.031c.064 0 .112.015.176.047l1.041.45c.016.015.032.015.064.03l2.834 1.706c.064.047.128.093.16.155l.4.667 3.908 6.497a.244.244 0 0 1 .048.14l.897 3.954-.497-5.133-2.082-8.839a.456.456 0 0 1 .065-.356l.352-.512a.477.477 0 0 1 .32-.202l15.42-2.465h.08l.769.03c.08 0 .16.032.24.063l2.834 1.706c.016 0 .016.015.032.015l6.197 4.482.096-7.04a.48.48 0 0 1 .112-.295l.512-.59a.524.524 0 0 1 .289-.154l9.415-1.49h.08l.784.032c.081 0 .161.03.241.062l2.786 1.675 1.009-1.846a.282.282 0 0 1 .128-.14l.832-.65a.503.503 0 0 1 .208-.094l9.64-1.86c.032 0 .064-.016.096-.016l.817.016c.08 0 .176.03.24.061l2.834 1.706c.048.031.096.078.144.124l.368.497c.016.015.016.03.032.046l.257.45c.08.124.08.294.016.418L143.62 65.7l7.462 11.708.288.48c.064.094.08.202.064.311l-.128.729a.41.41 0 0 1-.176.279l-6.934 5.427a.515.515 0 0 1-.304.109h-.032l-.56-.031h-.032l-.929-.124c-.064-.016-.128-.031-.192-.062l-2.835-1.706a.31.31 0 0 1-.144-.14l-.768-1.147-2.114-2.76.849 4.094a.45.45 0 0 1-.08.372l-.353.465a.49.49 0 0 1-.336.186l-8.502.806h-.08l-.753-.03a.532.532 0 0 1-.224-.063l-1.778-1.07-.096.466a.487.487 0 0 1-.208.294l-6.02 3.8a.556.556 0 0 1-.273.077h-.032l-.592-.031h-.048l-.993-.155a.585.585 0 0 1-.176-.062l-2.834-1.706a.428.428 0 0 1-.128-.108l-3.043-3.8.128 3.07a.477.477 0 0 1-.112.326l-.464.528a.422.422 0 0 1-.32.155l-6.902.65h-.064l-.768-.03a.533.533 0 0 1-.224-.062l-1.986-1.194.144.62a.45.45 0 0 1-.08.372l-.336.466a.49.49 0 0 1-.336.186l-8.103.76H91.1l-.768-.032a.535.535 0 0 1-.225-.062l-2.834-1.705c-.016 0-.016-.016-.032-.016l-.848-.59a.445.445 0 0 1-.144-.154l-.032-.047-3.443.605-.288 1.97a.398.398 0 0 1-.144.263l-.609.574a.407.407 0 0 1-.288.124l-7.414.698h-.048l-.817-.031a.688.688 0 0 1-.24-.062l-2.834-1.706c-.048-.031-.08-.047-.112-.093l-.56-.62c-.032-.032-.048-.063-.064-.094l-.289-.511a.513.513 0 0 1-.048-.31l1.01-5.226-2.21 1.845a.445.445 0 0 1-.32.109l-5.733-.202.288 7.071a.477.477 0 0 1-.112.326l-.465.527a.423.423 0 0 1-.32.155l-6.997.651h-.048c0-.015 0-.015-.016-.015z" fill="#070709"/><path d="M150.649 77.642l-7.606-11.925 7.638-15.554-.256-.45-.368-.496-2.835-1.705-.816-.016-9.64 1.86-.832.652-1.281 2.373-.353-.31-2.834-1.706-.768-.031-9.416 1.488-.512.59-.112 8.436-.032-.155-.336-.605-6.581-4.76-2.835-1.707-.752-.03-15.42 2.465-.352.512 2.097 8.87 1.233 12.715-2.578-11.382-3.907-6.497-.4-.667-2.834-1.706-1.041-.45-.72-.03-10.873 1.736-.657.636-1.537 7.955-2.85-1.675-7.494-4.341-.736-.032-15.004 2-.416.544 2.786 23.958.32.574.769.604 2.834 1.706.769.031 6.997-.651.464-.527-.304-7.568 6.229.233 3.25-2.714-1.265 6.528.289.512.56.62 2.834 1.706.8.031 7.415-.698.608-.573.336-2.295 4.115-.714.193.342.848.589 2.834 1.706.77.03 8.101-.76.337-.464-.385-1.722.112.093 2.835 1.706.768.031 6.901-.651.465-.527-.192-4.528 3.955 4.946 2.834 1.706.993.155.592.031 5.957-3.8.144-.62-.288-.48-.337-.465.257.17 2.834 1.706.752.031 8.503-.806.352-.466-1.265-6.125 3.395 4.435.784 1.148 2.835 1.706.928.124.561.03 6.933-5.427.128-.729-.224-.48zm-29.879-6.188l2.114 9.429-4.372-6.017 2.258-3.412zm-36.252 4.652l-.64.031.224-2.093.416 2.062z" fill="#7B417A"/><path d="M60.627 70.865l.289-.047.176 5.862-.337-.977-.128-4.838z" fill="#602C60"/><path d="M61.284 82.371l-.288-.03.288 7.319-.672.76-7.254.666.769.047 6.98-.651.481-.543-.304-7.568z" fill="#441A48"/><path d="M72.589 77.859l-5.636 4.699-5.957-.218.288.031 6.213.233 5.412-4.513-.32-.232z" fill="#58275E"/><path d="M73.117 67.78l.304.589-.512 9.722-.32-.232.528-10.08z" fill="#5F2B60"/><path d="M84.358 68.167l.384-.264-1.137 10.98-.272-.745 1.025-9.971z" fill="#441A48"/><path d="M90.779 59.623l.416.666 3.891 6.498-.352-.574-3.955-6.59z" fill="#5D2A5D"/><path d="M81.972 85.612l-.304 2.156-.785.744-7.718.729.817.03 7.413-.697.593-.574.336-2.295-.352-.093z" fill="#441A48"/><path d="M57.794 69.16l2.834 1.705.128 4.838-2.834-1.69-.128-4.854z" fill="#56225B"/><path d="M61.06 69.95l2.834 1.706-3.266-.791-2.834-1.706 3.266.791z" fill="#441A48"/><path d="M88.874 84.403h.912l-7.462 1.302-.352-.093 6.902-1.21z" fill="#502450"/><path d="M56.785 68.322l1.008.837.129 4.854-.977.186-.16-5.877z" fill="#AB7BA5"/><path d="M60.82 69.314l.24.636-3.267-.79-1.008-.838 4.035.992z" fill="#5D2A5D"/><path d="M57.777 88.713l2.835 1.706-7.254.667-2.85-1.69 7.27-.683z" fill="#4A204F"/><path d="M58.145 80.65l2.85 1.69.289 7.32-2.834-1.69-.305-7.32z" fill="#69306A"/><path d="M58.45 87.97l2.834 1.69-.672.76-2.835-1.706.673-.745z" fill="#5B295B"/><path d="M64.118 80.852l2.834 1.705-5.956-.217-2.85-1.69 5.972.201z" fill="#4A204F"/><path d="M69.754 76.168l2.835 1.69-5.637 4.7-2.834-1.706 5.636-4.684z" fill="#512356"/><path d="M70.283 66.073l2.835 1.706-.529 10.08-2.834-1.69.528-10.096z" fill="#683069"/><path d="M62.053 61.7l.736.032 7.494 4.342-1.009-.186-7.221-4.187z" fill="#C8A2BC"/><path d="M95.086 66.787l-.352-.574 4.532 19.91-.545.73-8.39.775.752.046 8.118-.76.337-.465-4.452-19.662z" fill="#441A48"/><path d="M56.977 87.985l-6.998.667-.56-.45.32.574.769.62 7.27-.682-.801-.73z" fill="#5C2A5C"/><path d="M57.137 79.89l1.008.76.305 7.32-1.009-.513-.304-7.567z" fill="#AB7BA5"/><path d="M57.44 87.457l1.01.512-.673.745-.8-.73.464-.526z" fill="#69316B"/><path d="M63.365 80.123l.753.729-5.972-.202-1.01-.76 6.23.233z" fill="#502450"/><path d="M69.274 65.887l-.512 9.739-5.396 4.497-6.23-.233.305 7.568-.464.527-6.998.651-.56-.45-2.786-23.958.416-.542 15.004-2 7.221 4.201zM60.1 72.323l.72-3.008-4.034-.977.16 5.877 3.154-1.892z" fill="url(#t)"/><path d="M69.274 65.887l1.009.186-.529 10.095-.992-.558.512-9.723z" fill="#AB7BA5"/><path d="M68.762 75.61l.993.559-5.637 4.683-.752-.73 5.396-4.512z" fill="#703472"/><path d="M81.524 66.477l2.834 1.69-1.025 9.97-2.85-1.705 1.04-9.955z" fill="#56225B"/><path d="M86.183 57.436l.705.031 1.056.45-.896-.109-.865-.372z" fill="#F3DDDC"/><path d="M87.945 57.917l2.834 1.706 3.955 6.59-2.834-1.706-3.955-6.59z" fill="#7A387C"/><path d="M82.629 66.989l.336.589-1.441-1.101-.929-1.055 2.034 1.567z" fill="#5D2A5D"/><path d="M78.033 86.822l2.85 1.69-7.718.729-2.834-1.706 7.702-.713z" fill="#4A204F"/><path d="M78.834 86.062l2.834 1.706-.785.744-2.85-1.69.8-.76z" fill="#592859"/><path d="M79.138 83.906l2.834 1.706-.304 2.156-2.835-1.706.305-2.156z" fill="#69306A"/><path d="M80.595 65.422l.929 1.055-1.041 9.955-1.025-.03 1.137-10.98z" fill="#AB7BA5"/><path d="M86.039 82.712l2.834 1.69-6.901 1.21-2.834-1.706 6.901-1.194z" fill="#4A204F"/><path d="M87.048 57.808l.897.109 3.955 6.59-.945-.202-3.907-6.497z" fill="#C8A2BC"/><path d="M77.249 86.093l-7.414.698-.336-.373.272.497.56.62 7.702-.713-.784-.73z" fill="#5C2A5C"/><path d="M78.193 83.224l.945.682-.304 2.156-.977-.543.336-2.295z" fill="#AB7BA5"/><path d="M77.857 85.519l.977.543-.8.76-.785-.73.608-.573z" fill="#69316B"/><path d="M85.655 81.921l.384.791-6.9 1.194-.946-.682 7.462-1.303z" fill="#5C2A5C"/><path d="M95.887 85.147l2.834 1.706-8.39.775-2.85-1.706 8.406-.775z" fill="#4A204F"/><path d="M96.415 84.418l2.85 1.706-.544.729-2.834-1.706.528-.729z" fill="#5D2A5D"/><path d="M91.9 64.507l2.834 1.706 4.532 19.911-2.85-1.706-4.516-19.91z" fill="#612C62"/><path d="M95.054 84.434l-8.102.744-.657-.45.353.605.832.59 8.407-.776-.833-.713z" fill="#5C2A5C"/><path d="M95.406 83.968l1.01.45-.53.729-.832-.714.352-.465z" fill="#69316B"/><path d="M90.955 64.306l.945.201 4.515 19.911-1.009-.45-4.45-19.662z" fill="#BF98B6"/><path d="M87.048 57.808l3.907 6.498 4.452 19.663-.337.465-8.102.76-.64-.45-.657-2.807-7.462 1.303-.336 2.295-.608.574-7.414.697-.336-.372 5.156-26.61.656-.636L86.2 57.452l.848.356zm-7.59 18.593l5.076-.294-1.905-9.119-2.05-1.55L79.46 76.4z" fill="url(#u)"/><path d="M109.321 63.142l.289-.015.336 8.622-.336-1.194-.289-7.413z" fill="#602C60"/><path d="M120.29 60.088l.336.605 1.649 8.482-.288-.341-1.697-8.746z" fill="#512456"/><path d="M121.987 68.834l.288.34-3.795 5.754-.24-.419 3.747-5.675zm2.274 13.956l-.208.915-6.213 3.97.592.03 5.973-3.799.128-.635-.272-.481zm-14.94-20.965l2.85 1.705-2.85-.387-2.834-1.706 2.834.388z" fill="#441A48"/><path d="M106.487 61.437l2.834 1.706.288 7.412-2.834-1.706-.288-7.412z" fill="#56225B"/><path d="M110.875 53.637l2.834 1.706 6.581 4.745-2.834-1.69-6.581-4.761z" fill="#7A387C"/><path d="M109.033 61.142l.288.682-2.834-.387-1.009-.791 3.555.496z" fill="#5D2A5D"/><path d="M105.478 60.646l1.009.79.288 7.413-.961.419-.336-8.622z" fill="#AB7BA5"/><path d="M109.93 77.874l-.256.667.272 6.575-.657.744-7.173.667.768.046 6.902-.65.464-.528-.32-7.521z" fill="#502355"/><path d="M99.266 84.821l2.85 1.706 7.173-.667-2.85-1.706-7.173.667z" fill="#4A204F"/><path d="M106.823 76.835l2.85 1.706.273 6.575-2.835-1.706-.288-6.575z" fill="#612C62"/><path d="M107.111 83.41l2.835 1.706-.657.744-2.85-1.706.672-.744z" fill="#5B295B"/><path d="M110.122 53.606l.752.031 6.581 4.76-.977-.185-6.356-4.606z" fill="#C8A2BC"/><path d="M117.456 58.398l2.834 1.69 1.697 8.746-2.834-1.69-1.697-8.747z" fill="#6A306B"/><path d="M119.153 67.144l2.834 1.69-3.747 5.675-2.834-1.705 3.747-5.66z" fill="#56225B"/><path d="M105.638 83.441l-6.901.636-.545-.434.32.574.753.605 7.174-.667-.801-.714z" fill="#5C2A5C"/><path d="M105.782 75.393l1.041 1.442.288 6.575-1.009-.496-.32-7.52z" fill="#AB7BA5"/><path d="M106.103 82.914l1.008.496-.672.745-.801-.714.465-.527z" fill="#69316B"/><path d="M118.128 66.694l1.025.45-3.747 5.66-1.073-.357 3.795-5.753z" fill="#703472"/><path d="M116.479 58.211l.976.187 1.698 8.745-1.025-.45-1.649-8.482z" fill="#BF98B6"/><path d="M115.005 85.969l2.835 1.706-.993-.155-2.834-1.706.992.155z" fill="#441A48"/><path d="M115.406 72.803l2.834 1.706 6.021 8.28-2.851-1.705-6.004-8.28z" fill="#652E66"/><path d="M121.218 82.015l2.834 1.69-6.212 3.97-2.835-1.706 6.213-3.954z" fill="#4E2253"/><path d="M121.41 81.084l2.851 1.706-.209.915-2.834-1.69.192-.931z" fill="#662F67"/><path d="M113.564 85.1l.449.714-7.19-8.979-1.041-1.442 7.782 9.707z" fill="#502450"/><path d="M114.333 72.447l1.073.356 6.004 8.281-1.008-.294-6.069-8.343z" fill="#C8A2BC"/><path d="M120.258 81.41l-5.957 3.814-.737-.124.449.714.993.155 6.212-3.955-.96-.604z" fill="#5C2961"/><path d="M120.402 80.79l1.009.294-.192.93-.961-.604.144-.62z" fill="#7B417A"/><path d="M118.128 66.694l-3.795 5.753 6.069 8.343-.144.62-5.957 3.799-.737-.124-7.766-9.707.321 7.505-.465.527-6.901.651-.544-.45-1.762-18.173-2.097-8.87.352-.512 15.42-2.466 6.373 4.606 1.633 8.498zm-9.319-.528l.224-5.024-3.555-.48.336 8.606 2.995-3.102z" fill="url(#v)"/><path d="M134.957 52.645l.304.542-.4 8.948-.304-.682.4-8.809z" fill="#5F2B60"/><path d="M134.524 72.525l.785-.047-.769.357-.256-.202.24-.108z" fill="#502450"/><path d="M150.441 49.698l.24.45-7.638 15.569-.256-.434 7.654-15.585zM134.54 72.834l-.256-.201 2.05 10.002-.545.729-8.774.837.752.031 8.503-.806.352-.481-2.082-10.11z" fill="#441A48"/><path d="M131.466 50.365l2.851 1.69.64.59-2.834-1.707-.657-.573z" fill="#7A387C"/><path d="M150.649 77.642l-.176.977-7.158 5.613.561.031 6.933-5.427.128-.73-.288-.464z" fill="#441A48"/><path d="M132.123 50.938l2.834 1.706-.4 8.808-2.834-1.69.4-8.824z" fill="#612C62"/><path d="M130.698 50.334l.768.031.657.574-1.009-.233-.416-.372z" fill="#C39FBA"/><path d="M131.114 50.706l1.009.233-.4 8.823-1.009-.108.4-8.948z" fill="#BF98B6"/><path d="M131.674 70.818l2.85 1.706-.24.109-2.85-1.706.24-.109z" fill="#522552"/><path d="M130.714 59.653l1.009.168.256.072h-.465l-.8-.24z" fill="#5A295A"/><path d="M147.222 47.512l2.834 1.69.385.496-2.851-1.69-.368-.496z" fill="#C8A2BC"/><path d="M147.591 48.008l2.85 1.69-7.654 15.585-2.85-1.69 7.654-15.585z" fill="#5A2860"/><path d="M146.406 47.496l.816.016.369.496-1.057-.341-.128-.17z" fill="#F3DDDC"/><path d="M132.939 81.658l2.851 1.706-8.775.837-2.85-1.706 8.774-.837z" fill="#4A204F"/><path d="M131.434 70.927l2.85 1.706 2.05 10.002-2.834-1.706-2.066-10.002z" fill="#56225B"/><path d="M133.5 80.93l2.834 1.705-.544.729-2.851-1.706.561-.729z" fill="#502355"/><path d="M146.534 47.666l1.057.342-7.654 15.584-1.041-.356 7.638-15.57z" fill="#703472"/><path d="M132.123 80.945l-8.503.806-.656-.45.336.605.865.59 8.775-.838-.817-.713z" fill="#5C2A5C"/><path d="M130.394 70.338l1.04.59 2.066 10.001-1.025-.465-2.081-10.126z" fill="#AB7BA5"/><path d="M132.475 80.464l1.025.465-.561.729-.816-.713.352-.481z" fill="#69316B"/><path d="M140.465 82.526l2.851 1.706-.945-.124-2.834-1.69.928.108z" fill="#441A48"/><path d="M139.937 63.592l2.85 1.69 7.862 12.36-2.85-1.706-7.862-12.344z" fill="#7A387C"/><path d="M147.799 75.936l2.85 1.706-.176.977-2.85-1.69.176-.993z" fill="#662F67"/><path d="M147.623 76.928l2.85 1.69-7.157 5.614-2.851-1.706 7.158-5.598z" fill="#502355"/><path d="M139.088 81.704l.449.714-7.862-11.6-.513-.821 7.926 11.707z" fill="#502450"/><path d="M138.896 63.236l1.041.357 7.862 12.343-1.009-.31-7.894-12.39z" fill="#C8A2BC"/><path d="M146.534 47.667l-7.638 15.569 7.894 12.39-.128.728-6.933 5.428-.641-.078-8.695-11.366 2.082 10.126-.352.48-8.503.807-.656-.45-2.434-10.87.24-18.02.512-.589 9.416-1.488.416.372-.4 8.947 5.22-9.645.832-.667 9.64-1.845.128.17z" fill="url(#w)"/><path d="M146.662 76.355l-6.934 5.427-.64-.078.448.714.929.108 7.157-5.598-.96-.573z" fill="#5C2961"/><path d="M146.79 75.626l1.009.31-.176.992-.961-.574.128-.728z" fill="#7B417A"/><path d="M62.053 61.7l-15.004 2.001-.416.543.576 4.915c2.947.326 6.165.543 9.624.636l-.048-1.473 4.035.977-.128.543c2.69.015 5.492-.047 8.39-.17l.208-3.816-7.237-4.155z" fill="url(#x)"/><path d="M87.048 57.808l-.865-.372-10.872 1.737-.657.636-1.873 9.707a221.17 221.17 0 0 0 7.462-.558l.368-3.52 2.05 1.55.352 1.69a227.95 227.95 0 0 0 8.71-1.054l-.752-3.318-3.923-6.498z" fill="url(#y)"/><path d="M110.122 53.606l-15.42 2.466-.352.511 2.097 8.87.144 1.458a242.98 242.98 0 0 0 9.079-1.582l-.192-4.683 3.555.48-.16 3.552c2.914-.605 5.764-1.24 8.502-1.923l-.88-4.559-6.373-4.59z" fill="url(#z)"/><path d="M131.13 50.706l-.432-.372-9.415 1.489-.513.589-.128 9.537c3.571-.93 6.949-1.923 10.104-2.962l.384-8.28z" fill="url(#A)"/><path d="M146.422 47.496l-9.64 1.86-.832.652-4.804 8.855c4.596-1.52 8.711-3.117 12.233-4.745l3.171-6.451-.128-.17z" fill="url(#B)"/><path d="M153 52.023l-4.829-3.245a1.124 1.124 0 0 0-.053-.592c-.088-.305-.3-.538-.548-.7L150.117 42l-3.272 5.254c-.195 0-.389.018-.584.09a1.314 1.314 0 0 0-.442.233L140 44.995l5.288 3.245c-.106.287-.141.592-.035.897.071.233.195.412.371.555L143.166 55l3.131-4.985c.265.054.548.036.813-.054a1.49 1.49 0 0 0 .778-.555L153 52.023z" fill="url(#C)"/><path d="M87.937 59.188c0-.163-.017-.344-.066-.507a1.459 1.459 0 0 0-.2-.393L89.414 54l-2.305 3.83a1.157 1.157 0 0 0-.78-.033c-.199.066-.365.18-.48.327L82 56.488l3.566 2.21c-.05.228-.034.474.05.703.099.278.265.524.48.671L84.587 64l2.056-3.682c.166.032.349.016.514-.033.266-.082.465-.262.598-.475L92 61.53l-4.063-2.34z" fill="url(#D)"/><path d="M89.838 64.759a1.7 1.7 0 0 0 .41-.052.863.863 0 0 0 .306-.155L94 65.93l-3.07-1.845a.885.885 0 0 0-.222-1.017L92.02 60l-1.774 2.845a1.046 1.046 0 0 0-.563.034c-.221.07-.409.224-.545.397L86 62.069l2.951 1.638a.857.857 0 0 0 .034.414.89.89 0 0 0 .375.482L87.98 68l1.859-3.241z" fill="url(#E)"/><path d="M116.251 58.865c0 .126.018.27.055.397a.988.988 0 0 0 .164.307L115.082 63l1.845-3.07a.92.92 0 0 0 .621.018.845.845 0 0 0 .384-.253L121 61.014l-2.849-1.77c.036-.18.018-.38-.037-.56a1.096 1.096 0 0 0-.383-.542L118.936 55l-1.644 2.962a.897.897 0 0 0-.895.415L113 57.005l3.251 1.86z" fill="url(#F)"/><path d="M45.863 30.751c.129 0 .274-.016.403-.049.112-.033.209-.098.305-.163L50 31.926l-3.058-1.844a.912.912 0 0 0 .032-.62.832.832 0 0 0-.258-.393L48.02 26l-1.77 2.84a1.114 1.114 0 0 0-.564.034 1.136 1.136 0 0 0-.547.391L42 28.057l2.946 1.65a.898.898 0 0 0 .418.898L43.996 34l1.867-3.249z" fill="url(#G)"/><path d="M85.937 27.188c0-.163-.017-.343-.066-.507a1.459 1.459 0 0 0-.2-.393L87.414 22l-2.305 3.83a1.157 1.157 0 0 0-.78-.033c-.199.066-.365.18-.48.327L80 24.488l3.566 2.21c-.05.228-.034.474.05.703.099.278.265.524.48.671L82.587 32l2.056-3.683c.166.033.349.017.514-.032.266-.082.465-.262.598-.475L90 29.53l-4.063-2.34z" fill="url(#H)"/><path d="M139.237 18.845c0 .13.016.261.049.409.033.114.1.212.166.31L138.058 23l1.842-3.06c.2.082.415.099.631.033.149-.049.282-.147.398-.261L144 21.02l-2.855-1.766c.033-.18.033-.377-.033-.573a1.193 1.193 0 0 0-.382-.54L141.942 15l-1.643 2.945a.897.897 0 0 0-.415.032.999.999 0 0 0-.482.377L136 16.98l3.237 1.865z" fill="url(#I)"/><path d="M64.415 47.892c0 .1.014.202.043.303.03.087.074.16.118.231L63.536 51l1.39-2.299a.652.652 0 0 0 .47.015.68.68 0 0 0 .292-.188L68 49.51l-2.137-1.33a.836.836 0 0 0-.322-.824L66.45 45l-1.23 2.212a.563.563 0 0 0-.307.029.66.66 0 0 0-.366.29L62 46.503l2.415 1.388z" fill="url(#J)"/><defs><linearGradient id="a" x1="78.022" y1="101.145" x2="79.216" y2="19.086" gradientUnits="userSpaceOnUse"><stop stop-color="#070709"/><stop offset="1" stop-color="#43428F"/></linearGradient><linearGradient id="b" x1="99.959" y1="69.009" x2="95.474" y2="22.839" gradientUnits="userSpaceOnUse"><stop stop-color="#070709"/><stop offset=".999" stop-color="#261E5B"/></linearGradient><linearGradient id="c" x1="142.943" y1="20.313" x2="145.939" y2="51.637" gradientUnits="userSpaceOnUse"><stop offset=".001" stop-color="#FCE75E"/><stop offset="1" stop-color="#E5AB39"/></linearGradient><linearGradient id="d" x1="120.918" y1="21.335" x2="124.648" y2="52.534" gradientUnits="userSpaceOnUse"><stop offset=".001" stop-color="#FCE75E"/><stop offset="1" stop-color="#E5AB39"/></linearGradient><linearGradient id="e" x1="100.076" y1="22.303" x2="103.196" y2="53.609" gradientUnits="userSpaceOnUse"><stop offset=".001" stop-color="#FCE75E"/><stop offset="1" stop-color="#E5AB39"/></linearGradient><linearGradient id="f" x1="78.347" y1="23.312" x2="81.266" y2="54.648" gradientUnits="userSpaceOnUse"><stop offset=".001" stop-color="#FCE75E"/><stop offset="1" stop-color="#E5AB39"/></linearGradient><linearGradient id="g" x1="55.849" y1="24.357" x2="60.37" y2="55.38" gradientUnits="userSpaceOnUse"><stop offset=".001" stop-color="#FCE75E"/><stop offset="1" stop-color="#E5AB39"/></linearGradient><linearGradient id="h" x1="34.163" y1="25.363" x2="37.488" y2="56.636" gradientUnits="userSpaceOnUse"><stop offset=".001" stop-color="#FCE75E"/><stop offset="1" stop-color="#E5AB39"/></linearGradient><linearGradient id="i" x1="139.136" y1="29.712" x2="137.588" y2="14.268" gradientUnits="userSpaceOnUse"><stop stop-color="#F3EB78"/><stop offset="1" stop-color="#F0CB64"/></linearGradient><linearGradient id="j" x1="150.673" y1="28.007" x2="148.85" y2="12.583" gradientUnits="userSpaceOnUse"><stop stop-color="#F3EB78"/><stop offset="1" stop-color="#F0CB64"/></linearGradient><linearGradient id="k" x1="123.185" y1="32.071" x2="122.084" y2="16.613" gradientUnits="userSpaceOnUse"><stop stop-color="#F3EB78"/><stop offset="1" stop-color="#F0CB64"/></linearGradient><linearGradient id="l" x1="95.651" y1="36.142" x2="91.582" y2="21.272" gradientUnits="userSpaceOnUse"><stop stop-color="#F3EB78"/><stop offset="1" stop-color="#F0CB64"/></linearGradient><linearGradient id="m" x1="107.892" y1="34.332" x2="104.535" y2="19.209" gradientUnits="userSpaceOnUse"><stop stop-color="#F3EB78"/><stop offset="1" stop-color="#F0CB64"/></linearGradient><linearGradient id="n" x1="79.18" y1="38.577" x2="78.423" y2="23.127" gradientUnits="userSpaceOnUse"><stop stop-color="#F3EB78"/><stop offset="1" stop-color="#F0CB64"/></linearGradient><linearGradient id="o" x1="57.985" y1="41.71" x2="57.153" y2="26.258" gradientUnits="userSpaceOnUse"><stop stop-color="#F3EB78"/><stop offset="1" stop-color="#F0CB64"/></linearGradient><linearGradient id="p" x1="30.129" y1="45.828" x2="29.255" y2="30.375" gradientUnits="userSpaceOnUse"><stop stop-color="#F3EB78"/><stop offset="1" stop-color="#F0CB64"/></linearGradient><linearGradient id="q" x1="42.218" y1="44.041" x2="41.093" y2="28.584" gradientUnits="userSpaceOnUse"><stop stop-color="#F3EB78"/><stop offset="1" stop-color="#F0CB64"/></linearGradient><linearGradient id="r" x1="45.026" y1="71.946" x2="149.334" y2="71.946" gradientUnits="userSpaceOnUse"><stop stop-color="#070709"/><stop offset="1" stop-color="#261E5B"/></linearGradient><linearGradient id="s" x1="86.603" y1="77.732" x2="87.248" y2="77.732" gradientUnits="userSpaceOnUse"><stop stop-color="#43428F"/><stop offset="1" stop-color="#52A6E0"/></linearGradient><linearGradient id="t" x1="61.131" y1="91.443" x2="54.384" y2="53.017" gradientUnits="userSpaceOnUse"><stop stop-color="#5E347E"/><stop offset=".994" stop-color="#A03C81"/></linearGradient><linearGradient id="u" x1="82.907" y1="88.912" x2="76.767" y2="50.358" gradientUnits="userSpaceOnUse"><stop stop-color="#5E347E"/><stop offset=".994" stop-color="#A03C81"/></linearGradient><linearGradient id="v" x1="109.491" y1="85.823" x2="102.488" y2="47.457" gradientUnits="userSpaceOnUse"><stop stop-color="#5E347E"/><stop offset=".994" stop-color="#A03C81"/></linearGradient><linearGradient id="w" x1="136.467" y1="82.688" x2="128.423" y2="44.605" gradientUnits="userSpaceOnUse"><stop stop-color="#5E347E"/><stop offset=".994" stop-color="#A03C81"/></linearGradient><linearGradient id="x" x1="57.424" y1="62.967" x2="57.756" y2="77.285" gradientUnits="userSpaceOnUse"><stop stop-color="#865590"/><stop offset="1" stop-color="#A74D89"/></linearGradient><linearGradient id="y" x1="80.535" y1="59.075" x2="81.585" y2="73.451" gradientUnits="userSpaceOnUse"><stop stop-color="#865590"/><stop offset="1" stop-color="#A74D89"/></linearGradient><linearGradient id="z" x1="105.012" y1="54.952" x2="105.873" y2="69.32" gradientUnits="userSpaceOnUse"><stop stop-color="#865590"/><stop offset="1" stop-color="#A74D89"/></linearGradient><linearGradient id="A" x1="125.036" y1="51.58" x2="128.151" y2="65.724" gradientUnits="userSpaceOnUse"><stop stop-color="#865590"/><stop offset="1" stop-color="#A74D89"/></linearGradient><linearGradient id="B" x1="138.15" y1="49.371" x2="139.556" y2="63.75" gradientUnits="userSpaceOnUse"><stop stop-color="#865590"/><stop offset="1" stop-color="#A74D89"/></linearGradient><radialGradient id="C" cx="0" cy="0" r="1" gradientUnits="userSpaceOnUse" gradientTransform="translate(146.5 48.508) scale(6.45373)"><stop stop-color="#fff"/><stop offset=".034" stop-color="#FCFAFC"/><stop offset=".217" stop-color="#EEDFEE"/><stop offset=".404" stop-color="#E3CAE1"/><stop offset=".595" stop-color="#DBBAD7"/><stop offset=".79" stop-color="#D6B1D1"/><stop offset=".998" stop-color="#D5ADCF"/></radialGradient><radialGradient id="D" cx="0" cy="0" r="1" gradientUnits="userSpaceOnUse" gradientTransform="translate(86.983 59.008) scale(7.76289)"><stop stop-color="#fff"/><stop offset=".034" stop-color="#FCFAFC"/><stop offset=".217" stop-color="#EEDFEE"/><stop offset=".404" stop-color="#E3CAE1"/><stop offset=".595" stop-color="#DBBAD7"/><stop offset=".79" stop-color="#D6B1D1"/><stop offset=".998" stop-color="#D5ADCF"/></radialGradient><radialGradient id="E" cx="0" cy="0" r="1" gradientUnits="userSpaceOnUse" gradientTransform="translate(89.983 64) scale(6.21029)"><stop stop-color="#fff"/><stop offset=".034" stop-color="#FCFAFC"/><stop offset=".217" stop-color="#EEDFEE"/><stop offset=".404" stop-color="#E3CAE1"/><stop offset=".595" stop-color="#DBBAD7"/><stop offset=".79" stop-color="#D6B1D1"/><stop offset=".998" stop-color="#D5ADCF"/></radialGradient><radialGradient id="F" cx="0" cy="0" r="1" gradientUnits="userSpaceOnUse" gradientTransform="translate(117.009 59.008) scale(6.2135)"><stop stop-color="#fff"/><stop offset=".034" stop-color="#FCFAFC"/><stop offset=".217" stop-color="#EEDFEE"/><stop offset=".404" stop-color="#E3CAE1"/><stop offset=".595" stop-color="#DBBAD7"/><stop offset=".79" stop-color="#D6B1D1"/><stop offset=".998" stop-color="#D5ADCF"/></radialGradient><radialGradient id="G" cx="0" cy="0" r="1" gradientUnits="userSpaceOnUse" gradientTransform="translate(46 29.983) scale(6.20762)"><stop stop-color="#fff"/><stop offset=".029" stop-color="#FFFEF9"/><stop offset=".182" stop-color="#FFFADC"/><stop offset=".338" stop-color="#FEF6C1"/><stop offset=".497" stop-color="#FEF3AB"/><stop offset=".658" stop-color="#FEF19B"/><stop offset=".823" stop-color="#FEEF91"/><stop offset=".999" stop-color="#FEEF8D"/></radialGradient><radialGradient id="H" cx="0" cy="0" r="1" gradientUnits="userSpaceOnUse" gradientTransform="translate(84.983 27.008) scale(5.03937)"><stop stop-color="#fff"/><stop offset=".029" stop-color="#FFFEF9"/><stop offset=".182" stop-color="#FFFADC"/><stop offset=".338" stop-color="#FEF6C1"/><stop offset=".497" stop-color="#FEF3AB"/><stop offset=".658" stop-color="#FEF19B"/><stop offset=".823" stop-color="#FEEF91"/><stop offset=".999" stop-color="#FEEF8D"/></radialGradient><radialGradient id="I" cx="0" cy="0" r="1" gradientUnits="userSpaceOnUse" gradientTransform="translate(139.992 18.991) scale(4.06372)"><stop stop-color="#fff"/><stop offset=".029" stop-color="#FFFEF9"/><stop offset=".182" stop-color="#FFFADC"/><stop offset=".338" stop-color="#FEF6C1"/><stop offset=".497" stop-color="#FEF3AB"/><stop offset=".658" stop-color="#FEF19B"/><stop offset=".823" stop-color="#FEEF91"/><stop offset=".999" stop-color="#FEEF8D"/></radialGradient><radialGradient id="J" cx="0" cy="0" r="1" gradientUnits="userSpaceOnUse" gradientTransform="translate(64.993 47.992) scale(3.04554)"><stop stop-color="#fff"/><stop offset=".029" stop-color="#FFFEF9"/><stop offset=".182" stop-color="#FFFADC"/><stop offset=".338" stop-color="#FEF6C1"/><stop offset=".497" stop-color="#FEF3AB"/><stop offset=".658" stop-color="#FEF19B"/><stop offset=".823" stop-color="#FEEF91"/><stop offset=".999" stop-color="#FEEF8D"/></radialGradient></defs></svg>