<svg width="333" height="393" viewBox="0 0 333 393" fill="none" xmlns="http://www.w3.org/2000/svg"><mask id="a" maskUnits="userSpaceOnUse" x="17" y="0" width="317" height="327"><path d="M169.996 22.806S208.2 66.47 283.517 98.124c0 0 58.397 28.926 48.574 103.151 0 0-11.462 55.123-57.306 73.679l-86.778 36.567s-79.683 46.39-134.806-23.468c0 0-17.465-18.011-22.377-68.222l-7.641-78.045S2.99 70.835 36.828 34.267c0 0 56.82-68.774 133.168-11.46z" fill="#fff"/></mask><g mask="url(#a)"><path d="M169.996 22.806S208.2 66.47 283.517 98.124c0 0 58.397 28.926 48.574 103.151 0 0-11.462 55.123-57.306 73.679l-86.778 36.567s-79.683 46.39-134.806-23.468c0 0-17.465-18.011-22.377-68.222l-7.641-78.045S2.99 70.835 36.828 34.267c0 0 56.82-68.774 133.168-11.46z" fill="#000" filter="url(#b)"/><path d="M169.996 22.806S208.2 66.47 283.517 98.124c0 0 58.397 28.926 48.574 103.151 0 0-11.462 55.123-57.306 73.679l-86.778 36.567s-79.683 46.39-134.806-23.468c0 0-17.465-18.011-22.377-68.222l-7.641-78.045S2.99 70.835 36.828 34.267c0 0 56.82-68.774 133.168-11.46z" fill="url(#c)"/></g><path d="M40.102 310.428s16.919 14.736 28.926 19.102c0 0 13.098 12.553-2.73 27.289 0 0-17.465 15.827-42.57-5.458 0 0-15.826-22.376-2.183-37.658 0 0 3.82-6.549 18.556-3.275z" fill="#000" filter="url(#d)"/><path d="M40.102 310.428s16.919 14.736 28.926 19.102c0 0 13.098 12.553-2.73 27.289 0 0-17.465 15.827-42.57-5.458 0 0-15.826-22.376-2.183-37.658 0 0 3.82-6.549 18.556-3.275z" fill="url(#e)"/><defs><filter id="b" x="-7.795" y="-3" width="366" height="376.617" filterUnits="userSpaceOnUse" color-interpolation-filters="sRGB"><feFlood flood-opacity="0" result="BackgroundImageFix"/><feColorMatrix in="SourceAlpha" values="0 0 0 0 0 0 0 0 0 0 0 0 0 0 0 0 0 0 127 0"/><feOffset dy="22"/><feGaussianBlur stdDeviation="12.5"/><feColorMatrix values="0 0 0 0 0.45098 0 0 0 0 0.211765 0 0 0 0 0.494118 0 0 0 0.0803329 0"/><feBlend in2="BackgroundImageFix" result="effect1_dropShadow"/><feBlend in="SourceGraphic" in2="effect1_dropShadow" result="shape"/></filter><filter id="d" x="0" y="307.512" width="90.118" height="84.966" filterUnits="userSpaceOnUse" color-interpolation-filters="sRGB"><feFlood flood-opacity="0" result="BackgroundImageFix"/><feColorMatrix in="SourceAlpha" values="0 0 0 0 0 0 0 0 0 0 0 0 0 0 0 0 0 0 127 0"/><feOffset dy="14"/><feGaussianBlur stdDeviation="8"/><feColorMatrix values="0 0 0 0 0.45098 0 0 0 0 0.211765 0 0 0 0 0.494118 0 0 0 0.251274 0"/><feBlend in2="BackgroundImageFix" result="effect1_dropShadow"/><feBlend in="SourceGraphic" in2="effect1_dropShadow" result="shape"/></filter><linearGradient id="c" x1="237.985" y1="28.924" x2="131.052" y2="348.452" gradientUnits="userSpaceOnUse"><stop stop-color="#6FBD5C"/><stop offset="1" stop-color="#327223"/></linearGradient><linearGradient id="e" x1="56.605" y1="314.202" x2="40.965" y2="367.207" gradientUnits="userSpaceOnUse"><stop stop-color="#6FBD5C"/><stop offset="1" stop-color="#327223"/></linearGradient></defs></svg>