<svg width="316" height="364" viewBox="0 0 316 364" fill="none" xmlns="http://www.w3.org/2000/svg"><mask id="a" maskUnits="userSpaceOnUse" x="0" y="0" width="317" height="327"><path d="M152.996 22.806S191.2 66.47 266.517 98.124c0 0 58.397 28.926 48.574 103.151 0 0-11.462 55.123-57.306 73.679l-86.778 36.567s-79.683 46.39-134.806-23.468c0 0-17.465-18.011-22.377-68.222l-7.641-78.045S-14.01 70.835 19.828 34.267c0 0 56.82-68.774 133.168-11.46z" fill="#fff"/></mask><g mask="url(#a)"><path d="M152.996 22.806S191.2 66.47 266.517 98.124c0 0 58.397 28.926 48.574 103.151 0 0-11.462 55.123-57.306 73.679l-86.778 36.567s-79.683 46.39-134.806-23.468c0 0-17.465-18.011-22.377-68.222l-7.641-78.045S-14.01 70.835 19.828 34.267c0 0 56.82-68.774 133.168-11.46z" fill="#000" filter="url(#b)"/><path d="M152.996 22.806S191.2 66.47 266.517 98.124c0 0 58.397 28.926 48.574 103.151 0 0-11.462 55.123-57.306 73.679l-86.778 36.567s-79.683 46.39-134.806-23.468c0 0-17.465-18.011-22.377-68.222l-7.641-78.045S-14.01 70.835 19.828 34.267c0 0 56.82-68.774 133.168-11.46z" fill="url(#c)"/></g><path d="M282.464 281.917s-17.142 14.736-29.307 19.102c0 0-13.271 12.553 2.765 27.289 0 0 17.695 15.827 43.13-5.458 0 0 16.035-22.376 2.212-37.658 0 0-3.87-6.549-18.8-3.275z" fill="#000" filter="url(#d)"/><path d="M282.464 281.917s-17.142 14.736-29.307 19.102c0 0-13.271 12.553 2.765 27.289 0 0 17.695 15.827 43.13-5.458 0 0 16.035-22.376 2.212-37.658 0 0-3.87-6.549-18.8-3.275z" fill="url(#e)"/><defs><filter id="b" x="-24.795" y="-3" width="366" height="376.617" filterUnits="userSpaceOnUse" color-interpolation-filters="sRGB"><feFlood flood-opacity="0" result="BackgroundImageFix"/><feColorMatrix in="SourceAlpha" values="0 0 0 0 0 0 0 0 0 0 0 0 0 0 0 0 0 0 127 0"/><feOffset dy="22"/><feGaussianBlur stdDeviation="12.5"/><feColorMatrix values="0 0 0 0 0.45098 0 0 0 0 0.211765 0 0 0 0 0.494118 0 0 0 0.0803329 0"/><feBlend in2="BackgroundImageFix" result="effect1_dropShadow"/><feBlend in="SourceGraphic" in2="effect1_dropShadow" result="shape"/></filter><filter id="d" x="232" y="279" width="90.882" height="84.966" filterUnits="userSpaceOnUse" color-interpolation-filters="sRGB"><feFlood flood-opacity="0" result="BackgroundImageFix"/><feColorMatrix in="SourceAlpha" values="0 0 0 0 0 0 0 0 0 0 0 0 0 0 0 0 0 0 127 0"/><feOffset dy="14"/><feGaussianBlur stdDeviation="8"/><feColorMatrix values="0 0 0 0 0.45098 0 0 0 0 0.211765 0 0 0 0 0.494118 0 0 0 0.251274 0"/><feBlend in2="BackgroundImageFix" result="effect1_dropShadow"/><feBlend in="SourceGraphic" in2="effect1_dropShadow" result="shape"/></filter><linearGradient id="c" x1="220.985" y1="28.924" x2="114.052" y2="348.452" gradientUnits="userSpaceOnUse"><stop stop-color="#6FBD5C"/><stop offset="1" stop-color="#327223"/></linearGradient><linearGradient id="e" x1="265.743" y1="285.69" x2="281.212" y2="338.805" gradientUnits="userSpaceOnUse"><stop stop-color="#6FBD5C"/><stop offset="1" stop-color="#327223"/></linearGradient></defs></svg>