<svg width="1518" height="738" viewBox="0 0 1518 738" fill="none" xmlns="http://www.w3.org/2000/svg"><path fill="#F1F3F4" d="M0 0h1518v738H0z"/><path d="M551.376 549.73c-.68 0-1.26-.128-1.74-.384a3.757 3.757 0 0 1-1.224-1.08l.744-.624c.296.392.624.692.984.9.36.2.784.3 1.272.3.6 0 1.056-.144 1.368-.432.32-.288.48-.672.48-1.152 0-.4-.12-.708-.36-.924-.24-.216-.636-.388-1.188-.516l-.684-.156c-.768-.176-1.356-.44-1.764-.792-.4-.36-.6-.864-.6-1.512 0-.368.068-.696.204-.984.136-.288.324-.528.564-.72.248-.192.54-.336.876-.432.344-.104.72-.156 1.128-.156.632 0 1.172.116 1.62.348.456.232.84.572 1.152 1.02l-.756.552a2.606 2.606 0 0 0-.84-.756c-.328-.184-.736-.276-1.224-.276-.536 0-.96.116-1.272.348-.304.224-.456.564-.456 1.02 0 .4.128.704.384.912.264.2.66.36 1.188.48l.684.156c.824.184 1.42.464 1.788.84.368.376.552.876.552 1.5 0 .384-.068.732-.204 1.044a2.082 2.082 0 0 1-.564.792 2.641 2.641 0 0 1-.912.504 3.71 3.71 0 0 1-1.2.18zm8.341-1.152h-.048a2.914 2.914 0 0 1-.24.432c-.088.136-.2.26-.336.372-.136.104-.3.188-.492.252a2.127 2.127 0 0 1-.672.096c-.64 0-1.148-.204-1.524-.612-.376-.416-.564-1-.564-1.752v-3.972h.96v3.804c0 1.112.472 1.668 1.416 1.668.192 0 .376-.024.552-.072.184-.048.344-.12.48-.216a1.031 1.031 0 0 0 .468-.9v-4.284h.96v6.192h-.96v-1.008zm4.024 1.008c-.336 0-.592-.092-.768-.276a1.054 1.054 0 0 1-.252-.72v-7.884h.96v8.04h.912v.84h-.852zm2.25-6.192h.96v1.008h.048c.16-.392.392-.68.696-.864.312-.192.684-.288 1.116-.288.384 0 .732.076 1.044.228.312.152.576.368.792.648.224.28.392.62.504 1.02.12.4.18.848.18 1.344 0 .496-.06.944-.18 1.344-.112.4-.28.74-.504 1.02-.216.28-.48.496-.792.648-.312.152-.66.228-1.044.228-.84 0-1.444-.384-1.812-1.152h-.048v3.408h-.96v-8.592zm2.556 5.472c.544 0 .972-.168 1.284-.504.312-.344.468-.792.468-1.344v-1.056c0-.552-.156-.996-.468-1.332-.312-.344-.74-.516-1.284-.516-.216 0-.424.032-.624.096-.192.056-.36.136-.504.24-.144.104-.26.232-.348.384-.08.144-.12.3-.12.468v2.304c0 .2.04.38.12.54.088.152.204.284.348.396.144.104.312.184.504.24.2.056.408.084.624.084zm8.905.72c-.36 0-.62-.096-.78-.288a1.459 1.459 0 0 1-.288-.72h-.06c-.136.384-.36.672-.672.864-.312.192-.684.288-1.116.288-.656 0-1.168-.168-1.536-.504-.36-.336-.54-.792-.54-1.368 0-.584.212-1.032.636-1.344.432-.312 1.1-.468 2.004-.468h1.224v-.612c0-.44-.12-.776-.36-1.008-.24-.232-.608-.348-1.104-.348-.376 0-.692.084-.948.252a2.103 2.103 0 0 0-.624.672l-.576-.54c.168-.336.436-.62.804-.852.368-.24.832-.36 1.392-.36.752 0 1.336.184 1.752.552.416.368.624.88.624 1.536v3.408h.708v.84h-.54zm-2.76-.672c.24 0 .46-.028.66-.084.2-.056.372-.136.516-.24a1.19 1.19 0 0 0 .336-.36.86.86 0 0 0 .12-.444v-1.02h-1.272c-.552 0-.956.08-1.212.24a.778.778 0 0 0-.372.696v.252c0 .304.108.54.324.708.224.168.524.252.9.252zm4.67-8.208h.96v5.628h.048l.948-1.056 1.752-1.884h1.164l-2.292 2.448 2.52 3.744h-1.164l-2.052-3.156-.924.948v2.208h-.96v-8.88zM297.01 315.346l-1.188 1.32v2.796h-1.008v-8.376h1.008v4.452h.036l1.2-1.452 2.532-3h1.236l-3.12 3.588 3.336 4.788h-1.248l-2.784-4.116zm7.337 4.26a2.82 2.82 0 0 1-1.152-.228 2.578 2.578 0 0 1-.876-.648 3.228 3.228 0 0 1-.564-1.02 4.398 4.398 0 0 1-.192-1.344c0-.488.064-.932.192-1.332.136-.4.324-.74.564-1.02.248-.288.54-.508.876-.66a2.82 2.82 0 0 1 1.152-.228c.416 0 .788.076 1.116.228.328.152.608.364.84.636.232.264.408.58.528.948.128.368.192.772.192 1.212v.456h-4.452v.288c0 .264.04.512.12.744.088.224.208.42.36.588.16.168.352.3.576.396.232.096.492.144.78.144.392 0 .732-.092 1.02-.276.296-.184.524-.448.684-.792l.684.492c-.2.424-.512.768-.936 1.032-.424.256-.928.384-1.512.384zm0-5.676c-.264 0-.504.048-.72.144a1.608 1.608 0 0 0-.564.384 2.019 2.019 0 0 0-.492 1.344v.084h3.42v-.132c0-.552-.152-.992-.456-1.32-.296-.336-.692-.504-1.188-.504zm4.257 5.532v-6.192h.96v1.14h.06a1.87 1.87 0 0 1 .6-.792c.288-.232.684-.348 1.188-.348h.372v.96h-.564c-.52 0-.928.1-1.224.3-.288.192-.432.436-.432.732v4.2h-.96zm8.223-1.008h-.048a2.914 2.914 0 0 1-.24.432c-.088.136-.2.26-.336.372-.136.104-.3.188-.492.252a2.127 2.127 0 0 1-.672.096c-.64 0-1.148-.204-1.524-.612-.376-.416-.564-1-.564-1.752v-3.972h.96v3.804c0 1.112.472 1.668 1.416 1.668.192 0 .376-.024.552-.072.184-.048.344-.12.48-.216a1.031 1.031 0 0 0 .468-.9v-4.284h.96v6.192h-.96v-1.008zm5.332 1.152a2.82 2.82 0 0 1-1.152-.228 2.578 2.578 0 0 1-.876-.648 3.228 3.228 0 0 1-.564-1.02 4.398 4.398 0 0 1-.192-1.344c0-.488.064-.932.192-1.332.136-.4.324-.74.564-1.02.248-.288.54-.508.876-.66a2.82 2.82 0 0 1 1.152-.228c.416 0 .788.076 1.116.228.328.152.608.364.84.636.232.264.408.58.528.948.128.368.192.772.192 1.212v.456h-4.452v.288c0 .264.04.512.12.744.088.224.208.42.36.588.16.168.352.3.576.396.232.096.492.144.78.144.392 0 .732-.092 1.02-.276.296-.184.524-.448.684-.792l.684.492c-.2.424-.512.768-.936 1.032-.424.256-.928.384-1.512.384zm0-5.676c-.264 0-.504.048-.72.144a1.608 1.608 0 0 0-.564.384 2.019 2.019 0 0 0-.492 1.344v.084h3.42v-.132c0-.552-.152-.992-.456-1.32-.296-.336-.692-.504-1.188-.504zm4.258 5.532v-6.192h.96v1.008h.048c.152-.352.364-.632.636-.84.28-.208.652-.312 1.116-.312.64 0 1.144.208 1.512.624.376.408.564.988.564 1.74v3.972h-.96v-3.804c0-1.112-.468-1.668-1.404-1.668-.192 0-.38.024-.564.072-.176.048-.336.12-.48.216-.144.096-.26.22-.348.372-.08.144-.12.316-.12.516v4.296h-.96zm9.752 0v-8.376h3.336c.752 0 1.328.216 1.728.648.408.424.612 1.008.612 1.752s-.204 1.332-.612 1.764c-.4.424-.976.636-1.728.636h-2.328v3.576h-1.008zm1.008-4.464h2.328c.4 0 .708-.104.924-.312.224-.208.336-.504.336-.888v-.624c0-.384-.112-.68-.336-.888-.216-.208-.524-.312-.924-.312h-2.328v3.024zm10.556 4.464c-.36 0-.62-.096-.78-.288a1.459 1.459 0 0 1-.288-.72h-.06c-.136.384-.36.672-.672.864-.312.192-.684.288-1.116.288-.656 0-1.168-.168-1.536-.504-.36-.336-.54-.792-.54-1.368 0-.584.212-1.032.636-1.344.432-.312 1.1-.468 2.004-.468h1.224v-.612c0-.44-.12-.776-.36-1.008-.24-.232-.608-.348-1.104-.348-.376 0-.692.084-.948.252a2.103 2.103 0 0 0-.624.672l-.576-.54c.168-.336.436-.62.804-.852.368-.24.832-.36 1.392-.36.752 0 1.336.184 1.752.552.416.368.624.88.624 1.536v3.408h.708v.84h-.54zm-2.76-.672c.24 0 .46-.028.66-.084.2-.056.372-.136.516-.24a1.19 1.19 0 0 0 .336-.36.86.86 0 0 0 .12-.444v-1.02h-1.272c-.552 0-.956.08-1.212.24a.778.778 0 0 0-.372.696v.252c0 .304.108.54.324.708.224.168.524.252.9.252zm4.671.672v-6.192h.96v1.14h.06a1.87 1.87 0 0 1 .6-.792c.288-.232.684-.348 1.188-.348h.372v.96h-.564c-.52 0-.928.1-1.224.3-.288.192-.432.436-.432.732v4.2h-.96zm4.406-8.88h.96v5.628h.048l.948-1.056 1.752-1.884h1.164l-2.292 2.448 2.52 3.744h-1.164l-2.052-3.156-.924.948v2.208h-.96v-8.88zm458.899 294.013h2.296c.464 0 .827.131 1.088.392.267.262.4.611.4 1.048 0 .208-.029.384-.088.528a1.149 1.149 0 0 1-.224.36.99.99 0 0 1-.296.208 1.49 1.49 0 0 1-.296.088v.048c.101.006.213.032.336.08a1.206 1.206 0 0 1 .64.632c.08.16.12.355.12.584 0 .23-.037.443-.112.64a1.507 1.507 0 0 1-.296.512c-.128.144-.28.259-.456.344-.176.08-.368.12-.576.12h-2.536v-5.584zm.672 4.992h1.656c.288 0 .515-.072.68-.216.165-.149.248-.365.248-.648v-.272c0-.282-.083-.496-.248-.64-.165-.149-.392-.224-.68-.224h-1.656v2zm0-2.576h1.544c.267 0 .475-.066.624-.2.149-.133.224-.325.224-.576v-.272c0-.25-.075-.442-.224-.576-.149-.133-.357-.2-.624-.2h-1.544v1.824zm7.035 2.496h-.032a1.973 1.973 0 0 1-.16.288 1.088 1.088 0 0 1-.224.248c-.091.07-.2.126-.328.168a1.412 1.412 0 0 1-.448.064c-.427 0-.766-.136-1.016-.408-.251-.277-.376-.666-.376-1.168v-2.648h.64v2.536c0 .742.314 1.112.944 1.112.128 0 .25-.016.368-.048a.986.986 0 0 0 .32-.144.694.694 0 0 0 .312-.6v-2.856h.64v4.128h-.64v-.672zm2.003.672v-4.128h.64v.76h.04c.074-.197.208-.373.4-.528.192-.154.456-.232.792-.232h.248v.64h-.376c-.347 0-.619.067-.816.2-.192.128-.288.291-.288.488v2.8h-.64zm6.23.456c0 .427-.168.739-.504.936-.331.203-.83.304-1.496.304-.646 0-1.11-.088-1.392-.264a.836.836 0 0 1-.424-.752c0-.224.058-.4.176-.528.117-.122.277-.213.48-.272v-.088a.595.595 0 0 1-.368-.576c0-.208.066-.365.2-.472.133-.112.304-.194.512-.248v-.032a1.348 1.348 0 0 1-.576-.504 1.423 1.423 0 0 1-.2-.76c0-.208.037-.4.112-.576.074-.176.178-.325.312-.448.138-.128.301-.226.488-.296a1.88 1.88 0 0 1 .64-.104c.293 0 .554.054.784.16v-.072c0-.16.037-.29.112-.392.074-.106.197-.16.368-.16h.616v.56h-.784v.264c.149.128.264.283.344.464.085.176.128.376.128.6 0 .208-.038.4-.112.576a1.322 1.322 0 0 1-.808.744 1.86 1.86 0 0 1-.64.104c-.134 0-.267-.013-.4-.04a1.296 1.296 0 0 0-.376.168.33.33 0 0 0-.168.296c0 .123.058.206.176.248.117.043.269.064.456.064h.88c.512 0 .882.099 1.112.296.234.192.352.459.352.8zm-.6.048a.487.487 0 0 0-.192-.4c-.123-.096-.344-.144-.664-.144h-1.376c-.256.118-.384.304-.384.56 0 .182.066.336.2.464.138.128.37.192.696.192h.592c.357 0 .634-.056.832-.168a.545.545 0 0 0 .296-.504zm-1.432-2.392c.272 0 .488-.064.648-.192.16-.133.24-.336.24-.608v-.224c0-.272-.08-.472-.24-.6-.16-.133-.376-.2-.648-.2s-.488.067-.648.2c-.16.128-.24.328-.24.6v.224c0 .272.08.475.24.608.16.128.376.192.648.192zm4.283 1.984c-.282 0-.538-.05-.768-.152a1.717 1.717 0 0 1-.584-.432 2.151 2.151 0 0 1-.376-.68 2.938 2.938 0 0 1-.128-.896c0-.325.043-.621.128-.888.091-.266.216-.493.376-.68.166-.192.36-.338.584-.44a1.89 1.89 0 0 1 .768-.152c.278 0 .526.051.744.152.219.102.406.243.56.424.155.176.272.387.352.632.086.246.128.515.128.808v.304h-2.968v.192c0 .176.027.342.08.496.059.15.139.28.24.392.107.112.235.2.384.264.155.064.328.096.52.096.262 0 .488-.061.68-.184.198-.122.35-.298.456-.528l.456.328a1.605 1.605 0 0 1-.624.688c-.282.171-.618.256-1.008.256zm0-3.784c-.176 0-.336.032-.48.096a1.08 1.08 0 0 0-.376.256 1.269 1.269 0 0 0-.24.4c-.058.15-.088.315-.088.496v.056h2.28v-.088c0-.368-.101-.661-.304-.88-.197-.224-.461-.336-.792-.336zm2.839 3.688v-4.128h.64v.76h.04c.074-.197.208-.373.4-.528.192-.154.456-.232.792-.232h.248v.64h-.376c-.347 0-.619.067-.816.2-.192.128-.288.291-.288.488v2.8h-.64zm4.465-2.744l-.792.88v1.864h-.672v-5.584h.672v2.968h.024l.8-.968 1.688-2h.824l-2.08 2.392 2.224 3.192h-.832l-1.856-2.744zm3.863-2.352c-.139 0-.24-.032-.304-.096a.392.392 0 0 1-.088-.264v-.104c0-.106.029-.192.088-.256.064-.069.165-.104.304-.104.138 0 .237.035.296.104.064.064.096.15.096.256v.104a.373.373 0 0 1-.096.264c-.059.064-.158.096-.296.096zm-.32.968h.64v4.128h-.64v-4.128zm2 4.128v-4.128h.64v.672h.032a1.37 1.37 0 0 1 .424-.56c.186-.138.434-.208.744-.208.426 0 .762.139 1.008.416.25.272.376.659.376 1.16v2.648h-.64v-2.536c0-.741-.312-1.112-.936-1.112a1.48 1.48 0 0 0-.376.048c-.118.032-.224.08-.32.144a.735.735 0 0 0-.232.248.692.692 0 0 0-.08.344v2.864h-.64zm8.027.456c0 .427-.168.739-.504.936-.331.203-.83.304-1.496.304-.646 0-1.11-.088-1.392-.264a.836.836 0 0 1-.424-.752c0-.224.058-.4.176-.528.117-.122.277-.213.48-.272v-.088a.595.595 0 0 1-.368-.576c0-.208.066-.365.2-.472.133-.112.304-.194.512-.248v-.032a1.348 1.348 0 0 1-.576-.504 1.423 1.423 0 0 1-.2-.76c0-.208.037-.4.112-.576.074-.176.178-.325.312-.448.138-.128.301-.226.488-.296a1.88 1.88 0 0 1 .64-.104c.293 0 .554.054.784.16v-.072c0-.16.037-.29.112-.392.074-.106.197-.16.368-.16h.616v.56h-.784v.264c.149.128.264.283.344.464.085.176.128.376.128.6 0 .208-.038.4-.112.576a1.322 1.322 0 0 1-.808.744 1.86 1.86 0 0 1-.64.104c-.134 0-.267-.013-.4-.04a1.296 1.296 0 0 0-.376.168.33.33 0 0 0-.168.296c0 .123.058.206.176.248.117.043.269.064.456.064h.88c.512 0 .882.099 1.112.296.234.192.352.459.352.8zm-.6.048a.487.487 0 0 0-.192-.4c-.123-.096-.344-.144-.664-.144h-1.376c-.256.118-.384.304-.384.56 0 .182.066.336.2.464.138.128.37.192.696.192h.592c.357 0 .634-.056.832-.168a.545.545 0 0 0 .296-.504zm-1.432-2.392c.272 0 .488-.064.648-.192.16-.133.24-.336.24-.608v-.224c0-.272-.08-.472-.24-.6-.16-.133-.376-.2-.648-.2s-.488.067-.648.2c-.16.128-.24.328-.24.6v.224c0 .272.08.475.24.608.16.128.376.192.648.192zm273.988-147.834l-.79.88v1.864h-.67v-5.584h.67v2.968h.02l.8-.968 1.69-2h.82l-2.08 2.392 2.23 3.192h-.83l-1.86-2.744zm4.89 2.84c-.28 0-.54-.051-.77-.152a1.683 1.683 0 0 1-.58-.432 2.15 2.15 0 0 1-.38-.68 3.103 3.103 0 0 1 0-1.784c.09-.267.22-.493.38-.68.16-.192.36-.339.58-.44.23-.101.49-.152.77-.152s.53.051.74.152c.22.101.41.243.56.424.16.176.28.387.36.632.08.245.12.515.12.808v.304h-2.96v.192c0 .176.02.341.08.496.06.149.14.28.24.392.1.112.23.2.38.264.16.064.33.096.52.096.26 0 .49-.061.68-.184.2-.123.35-.299.46-.528l.45.328c-.13.283-.34.512-.62.688-.28.171-.62.256-1.01.256zm0-3.784c-.18 0-.34.032-.48.096-.14.059-.27.144-.38.256-.1.112-.18.245-.24.4-.05.149-.08.315-.08.496v.056h2.28v-.088c0-.368-.1-.661-.31-.88-.19-.224-.46-.336-.79-.336zm2.84-2.232h.64v2.464h.03c.11-.261.26-.453.47-.576.2-.128.45-.192.74-.192.26 0 .49.051.7.152.2.101.38.245.52.432.15.187.26.413.34.68.08.267.12.565.12.896 0 .331-.04.629-.12.896-.08.267-.19.493-.34.68-.14.187-.32.331-.52.432-.21.101-.44.152-.7.152-.56 0-.96-.256-1.21-.768h-.03v.672h-.64v-5.92zm1.7 5.44c.37 0 .65-.112.86-.336.21-.229.31-.528.31-.896v-.704c0-.368-.1-.664-.31-.888-.21-.229-.49-.344-.86-.344-.14 0-.28.021-.41.064-.13.037-.24.091-.34.16a.911.911 0 0 0-.23.256.67.67 0 0 0-.08.312v1.536c0 .133.03.253.08.36.06.101.14.189.23.264.1.069.21.123.34.16.13.037.27.056.41.056zm5.94.48c-.24 0-.41-.064-.52-.192a.924.924 0 0 1-.19-.48h-.04c-.09.256-.24.448-.45.576-.21.128-.46.192-.74.192-.44 0-.78-.112-1.03-.336-.24-.224-.36-.528-.36-.912 0-.389.14-.688.43-.896.28-.208.73-.312 1.33-.312h.82v-.408c0-.293-.08-.517-.24-.672-.16-.155-.41-.232-.74-.232-.25 0-.46.056-.63.168-.17.112-.3.261-.42.448l-.38-.36a1.4 1.4 0 0 1 .54-.568c.24-.16.55-.24.92-.24.51 0 .89.123 1.17.368.28.245.42.587.42 1.024v2.272h.47v.56h-.36zm-1.84-.448c.16 0 .31-.019.44-.056.13-.037.25-.091.34-.16.1-.069.17-.149.23-.24a.607.607 0 0 0 .08-.296v-.68h-.85c-.37 0-.64.053-.81.16a.532.532 0 0 0-.25.464v.168c0 .203.08.36.22.472.15.112.35.168.6.168zm3.11-5.472h.64v2.464h.04c.1-.261.26-.453.46-.576.21-.128.46-.192.74-.192.26 0 .49.051.7.152.21.101.38.245.53.432.15.187.26.413.33.68.08.267.12.565.12.896 0 .331-.04.629-.12.896a1.8 1.8 0 0 1-.33.68 1.51 1.51 0 0 1-.53.432c-.21.101-.44.152-.7.152-.56 0-.96-.256-1.2-.768h-.04v.672h-.64v-5.92zm1.71 5.44c.36 0 .65-.112.85-.336.21-.229.32-.528.32-.896v-.704c0-.368-.11-.664-.32-.888-.2-.229-.49-.344-.85-.344-.15 0-.29.021-.42.064a.976.976 0 0 0-.33.16.813.813 0 0 0-.24.256.67.67 0 0 0-.08.312v1.536c0 .133.03.253.08.36a.91.91 0 0 0 .24.264c.09.069.2.123.33.16.13.037.27.056.42.056zm6.49-2.048h-2.82v2.528h-.67v-5.584h.67v2.464h2.82v-2.464h.68v5.584h-.68v-2.528zm5.1 2.528c-.24 0-.41-.064-.52-.192-.1-.128-.16-.288-.19-.48h-.04c-.09.256-.24.448-.45.576-.21.128-.46.192-.74.192-.44 0-.78-.112-1.03-.336-.24-.224-.36-.528-.36-.912 0-.389.14-.688.43-.896.28-.208.73-.312 1.33-.312h.82v-.408c0-.293-.08-.517-.24-.672-.16-.155-.41-.232-.74-.232-.25 0-.46.056-.63.168-.16.112-.3.261-.42.448l-.38-.36a1.4 1.4 0 0 1 .54-.568c.24-.16.55-.24.92-.24.51 0 .9.123 1.17.368.28.245.42.587.42 1.024v2.272h.47v.56h-.36zm-1.84-.448c.16 0 .31-.019.44-.056.13-.037.25-.091.34-.16.1-.069.18-.149.23-.24a.607.607 0 0 0 .08-.296v-.68h-.85c-.37 0-.64.053-.81.16a.532.532 0 0 0-.25.464v.168c0 .203.08.36.22.472.15.112.35.168.6.168zm5.66-.224h-.03c-.05.096-.1.192-.16.288-.06.091-.14.173-.23.248-.09.069-.2.125-.33.168-.12.043-.27.064-.44.064-.43 0-.77-.136-1.02-.408-.25-.277-.38-.667-.38-1.168v-2.648h.64v2.536c0 .741.32 1.112.95 1.112.13 0 .25-.016.37-.048s.23-.08.32-.144a.7.7 0 0 0 .31-.6v-2.856h.64v4.128h-.64v-.672zm3.24.768c-.38 0-.71-.072-.97-.216a2.37 2.37 0 0 1-.66-.592l.45-.368c.16.203.34.36.54.472.2.107.43.16.69.16.27 0 .48-.059.63-.176.16-.117.23-.283.23-.496 0-.16-.05-.296-.16-.408-.1-.117-.29-.197-.56-.24l-.33-.048a2.962 2.962 0 0 1-.52-.12c-.16-.059-.3-.133-.43-.224a1.172 1.172 0 0 1-.28-.352 1.245 1.245 0 0 1-.09-.496c0-.203.03-.379.11-.528a.998.998 0 0 1 .3-.384 1.4 1.4 0 0 1 .47-.224c.19-.053.38-.08.59-.08.33 0 .61.059.84.176.23.117.43.28.6.488l-.43.384a1.181 1.181 0 0 0-.4-.344c-.17-.107-.39-.16-.66-.16s-.47.059-.61.176a.584.584 0 0 0-.2.464c0 .203.07.349.2.44.14.091.34.157.59.2l.32.048c.46.069.79.203.98.4.19.192.29.445.29.76 0 .4-.14.715-.41.944-.27.229-.64.344-1.12.344zm-100.38 80.318h.74v3.942l-.07 1.287h.03l.63-1.134 2.68-4.095h.68v6.282h-.74v-3.942l.08-1.287h-.03l-.63 1.134-2.68 4.095h-.69v-6.282zm7.61 6.39c-.48 0-.85-.081-1.14-.243a1.926 1.926 0 0 1-.69-.693l.54-.432c.12.228.29.408.5.54.21.126.48.189.79.189.38 0 .65-.069.83-.207a.626.626 0 0 0 .28-.531v-.108c0-.234-.08-.411-.24-.531-.16-.126-.38-.189-.67-.189h-.99v-.603h.9c.29 0 .51-.057.67-.171.16-.114.23-.276.23-.486v-.108a.544.544 0 0 0-.24-.468c-.15-.12-.42-.18-.79-.18-.31 0-.56.063-.76.189-.19.12-.35.285-.47.495l-.48-.405c.14-.27.35-.489.63-.657.28-.174.65-.261 1.12-.261.6 0 1.05.111 1.34.333.28.222.43.528.43.918 0 .288-.08.516-.24.684-.15.168-.36.285-.65.351v.036c.33.048.57.168.74.36.16.186.25.426.25.72 0 .45-.17.807-.52 1.071-.33.258-.79.387-1.37.387zm4.98 0c-.32 0-.61-.054-.87-.162a1.624 1.624 0 0 1-.66-.504 2.48 2.48 0 0 1-.42-.882c-.1-.366-.14-.807-.14-1.323 0-.666.04-1.236.12-1.71.09-.474.23-.864.43-1.17.19-.306.43-.534.72-.684.3-.156.67-.252 1.09-.288l1.46-.117v.729l-1.55.126c-.26.024-.48.075-.66.153-.18.078-.33.201-.45.369-.12.162-.21.378-.27.648-.06.27-.11.606-.14 1.008h.04c.14-.318.31-.555.53-.711.22-.156.51-.234.87-.234.3 0 .57.054.81.162.25.108.46.264.63.468.18.198.31.447.41.747.1.294.15.63.15 1.008 0 .354-.05.675-.15.963-.1.288-.25.537-.43.747-.19.21-.41.372-.67.486-.25.114-.53.171-.85.171zm.04-.639c.19 0 .36-.03.51-.09.16-.06.29-.15.41-.27.11-.12.2-.267.27-.441.06-.174.1-.378.1-.612v-.567c0-.504-.13-.879-.37-1.125-.25-.246-.58-.369-.99-.369-.43 0-.76.108-.97.324-.21.21-.32.486-.32.828v.828c0 .504.12.879.37 1.125s.58.369.99.369zm6.07-4.113h.71l-2.08 5.724c-.05.138-.11.252-.16.342a.61.61 0 0 1-.2.225.767.767 0 0 1-.29.117 2.2 2.2 0 0 1-.43.036h-.37v-.63h.73l.35-.99-1.73-4.824h.72l1.11 3.159.22.756h.04l.26-.756 1.12-3.159zm1.63 0h.72v4.014h1.75v-4.014h.72v4.014h1.74v-4.014h.72v4.644h-5.65v-4.644zm7.18 0h.72v1.944h.93l.9-1.422c.06-.108.13-.195.19-.261a.732.732 0 0 1 .18-.162c.06-.036.12-.06.19-.072a.808.808 0 0 1 .22-.027h.42v.63h-.55l-.73 1.152c-.05.078-.09.141-.13.189-.04.048-.07.09-.11.126a.58.58 0 0 1-.11.081c-.05.018-.1.036-.16.054v.036c.13.018.24.06.33.126.09.06.19.18.29.36l.71 1.26h.54v.63h-.53c-.15 0-.3-.039-.43-.117-.12-.084-.25-.234-.37-.45l-.85-1.521h-.93v2.088h-.72v-4.644zm8.24 4.644c-.27 0-.47-.072-.59-.216a1.136 1.136 0 0 1-.22-.54h-.04c-.1.288-.27.504-.5.648-.24.144-.52.216-.84.216-.49 0-.88-.126-1.15-.378-.27-.252-.41-.594-.41-1.026 0-.438.16-.774.48-1.008.32-.234.82-.351 1.5-.351h.92v-.459c0-.33-.09-.582-.27-.756-.18-.174-.46-.261-.83-.261-.28 0-.52.063-.71.189-.19.126-.34.294-.47.504l-.43-.405c.13-.252.33-.465.6-.639.28-.18.63-.27 1.05-.27.56 0 1 .138 1.31.414.31.276.47.66.47 1.152v2.556h.53v.63h-.4zm-2.07-.504c.18 0 .34-.021.49-.063.15-.042.28-.102.39-.18a.86.86 0 0 0 .25-.27.645.645 0 0 0 .09-.333v-.765h-.95c-.42 0-.72.06-.91.18a.576.576 0 0 0-.28.522v.189c0 .228.08.405.24.531.17.126.39.189.68.189zm194.99-179.529h1.01v3.708h1.63l1.68-2.868c.19-.304.37-.52.54-.648a1.1 1.1 0 0 1 .65-.192h.55v.888h-.75l-1.49 2.544c-.14.24-.26.4-.36.48a.94.94 0 0 1-.35.192v.06c.19.04.35.108.48.204.14.096.29.284.45.564l1.56 2.556h.73v.888h-.75c-.19 0-.37-.052-.55-.156-.17-.112-.35-.32-.54-.624l-1.85-3.024h-1.63v3.804h-1.01v-8.376zm7.74 2.184h.93v3.432l-.09 1.488h.04l.77-1.32 2.47-3.6h.89v6.192h-.93v-3.432l.09-1.488h-.05l-.76 1.32-2.48 3.6h-.88v-6.192zm7.05 0h.96v2.58h3.1v-2.58h.96v6.192h-.96v-2.772h-3.1v2.772h-.96v-6.192zm9.4 6.336c-.42 0-.8-.076-1.14-.228a2.519 2.519 0 0 1-.89-.648 3.32 3.32 0 0 1-.57-1.02c-.13-.4-.2-.848-.2-1.344 0-.488.07-.932.2-1.332.14-.4.33-.74.57-1.02.25-.288.54-.508.89-.66.34-.152.72-.228 1.14-.228.41 0 .79.076 1.12.228.35.152.64.372.89.66.25.28.44.62.58 1.02.13.4.2.844.2 1.332 0 .496-.07.944-.2 1.344-.14.392-.33.732-.58 1.02-.25.28-.54.496-.89.648a2.67 2.67 0 0 1-1.12.228zm0-.852c.52 0 .94-.16 1.27-.48.33-.32.49-.808.49-1.464v-.888c0-.656-.16-1.144-.49-1.464-.33-.32-.75-.48-1.27-.48s-.95.16-1.28.48c-.32.32-.49.808-.49 1.464v.888c0 .656.17 1.144.49 1.464.33.32.76.48 1.28.48zm4.37-5.484h4.84v6.192h-.96v-5.352h-2.92v5.352h-.96v-6.192zm11.38 6.192c-.36 0-.62-.096-.78-.288a1.48 1.48 0 0 1-.29-.72h-.06a1.58 1.58 0 0 1-.67.864c-.31.192-.68.288-1.12.288-.65 0-1.16-.168-1.53-.504-.36-.336-.54-.792-.54-1.368 0-.584.21-1.032.63-1.344.44-.312 1.1-.468 2.01-.468h1.22v-.612c0-.44-.12-.776-.36-1.008-.24-.232-.61-.348-1.1-.348-.38 0-.69.084-.95.252-.25.168-.46.392-.62.672l-.58-.54c.17-.336.44-.62.8-.852.37-.24.84-.36 1.4-.36.75 0 1.33.184 1.75.552.41.368.62.88.62 1.536v3.408h.71v.84h-.54zm-2.76-.672c.24 0 .46-.028.66-.084.2-.056.37-.136.52-.24.14-.104.25-.224.33-.36a.86.86 0 0 0 .12-.444v-1.02h-1.27c-.55 0-.96.08-1.21.24-.25.16-.37.392-.37.696v.252c0 .304.1.54.32.708.22.168.52.252.9.252zm4.67-5.52h.96v1.008h.05c.16-.392.39-.68.69-.864.32-.192.69-.288 1.12-.288.38 0 .73.076 1.04.228.32.152.58.368.8.648.22.28.39.62.5 1.02.12.4.18.848.18 1.344 0 .496-.06.944-.18 1.344-.11.4-.28.74-.5 1.02-.22.28-.48.496-.8.648a2.34 2.34 0 0 1-1.04.228c-.84 0-1.44-.384-1.81-1.152h-.05v3.408h-.96v-8.592zm2.56 5.472c.54 0 .97-.168 1.28-.504.31-.344.47-.792.47-1.344v-1.056c0-.552-.16-.996-.47-1.332-.31-.344-.74-.516-1.28-.516-.22 0-.43.032-.63.096a1.59 1.59 0 0 0-.5.24c-.15.104-.26.232-.35.384-.08.144-.12.3-.12.468v2.304c0 .2.04.38.12.54.09.152.2.284.35.396.14.104.31.184.5.24.2.056.41.084.63.084zm4.4-5.472h.96v2.592h1.24l1.2-1.896c.08-.144.17-.26.25-.348a.975.975 0 0 1 .24-.216.72.72 0 0 1 .25-.096c.09-.024.19-.036.3-.036h.56v.84h-.74l-.97 1.536c-.07.104-.12.188-.17.252-.05.064-.1.12-.14.168-.05.04-.1.076-.16.108-.06.024-.12.048-.2.072v.048c.16.024.31.08.43.168.13.08.26.24.39.48l.95 1.68h.71v.84h-.7c-.2 0-.4-.052-.57-.156-.17-.112-.33-.312-.49-.6l-1.14-2.028h-1.24v2.784h-.96v-6.192zM735.122 189.665l-1.188 1.32v2.796h-1.008v-8.376h1.008v4.452h.036l1.2-1.452 2.532-3h1.236l-3.12 3.588 3.336 4.788h-1.248l-2.784-4.116zm5.409 4.116v-8.376h4.992v.888h-3.984v2.808h3.636v.888h-3.636v3.792h-1.008zm9.456.144c-1.064 0-1.892-.36-2.484-1.08-.592-.728-.888-1.796-.888-3.204 0-1.408.296-2.488.888-3.24.592-.76 1.42-1.14 2.484-1.14.704 0 1.292.16 1.764.48.48.32.852.772 1.116 1.356l-.816.492a2.285 2.285 0 0 0-.768-1.032c-.344-.264-.776-.396-1.296-.396-.36 0-.684.068-.972.204-.28.136-.52.332-.72.588-.192.248-.34.548-.444.9a4.019 4.019 0 0 0-.156 1.164v1.248c0 .864.2 1.54.6 2.028.4.488.964.732 1.692.732.536 0 .984-.136 1.344-.408.36-.28.624-.648.792-1.104l.804.504a3.303 3.303 0 0 1-1.14 1.404c-.496.336-1.096.504-1.8.504zm161.618-61.345h3.444c.696 0 1.24.196 1.632.588.4.392.6.916.6 1.572 0 .312-.044.576-.132.792-.088.216-.2.396-.336.54-.136.136-.284.24-.444.312a2.27 2.27 0 0 1-.444.132v.072c.152.008.32.048.504.12.192.072.372.188.54.348.168.152.308.352.42.6.12.24.18.532.18.876s-.056.664-.168.96a2.278 2.278 0 0 1-.444.768c-.192.216-.42.388-.684.516-.264.12-.552.18-.864.18h-3.804v-8.376zm1.008 7.488h2.484c.432 0 .772-.108 1.02-.324.248-.224.372-.548.372-.972v-.408c0-.424-.124-.744-.372-.96-.248-.224-.588-.336-1.02-.336h-2.484v3zm0-3.864h2.316c.4 0 .712-.1.936-.3.224-.2.336-.488.336-.864v-.408c0-.376-.112-.664-.336-.864-.224-.2-.536-.3-.936-.3h-2.316v2.736zm5.851 4.752l2.292-3.12-2.196-3.072h1.128l1.572 2.304h.036l1.632-2.304h1.068l-2.184 3 2.232 3.192h-1.128l-1.608-2.424h-.036l-1.74 2.424h-1.068zm9.049.144a2.79 2.79 0 0 1-1.14-.228 2.548 2.548 0 0 1-.888-.648 3.228 3.228 0 0 1-.564-1.02 4.159 4.159 0 0 1-.204-1.344c0-.488.068-.932.204-1.332.136-.4.324-.74.564-1.02.248-.288.544-.508.888-.66a2.79 2.79 0 0 1 1.14-.228c.416 0 .792.076 1.128.228.344.152.64.372.888.66.248.28.44.62.576 1.02.136.4.204.844.204 1.332 0 .496-.068.944-.204 1.344a3.103 3.103 0 0 1-.576 1.02c-.248.28-.544.496-.888.648a2.706 2.706 0 0 1-1.128.228zm0-.852c.52 0 .944-.16 1.272-.48.328-.32.492-.808.492-1.464v-.888c0-.656-.164-1.144-.492-1.464-.328-.32-.752-.48-1.272-.48s-.944.16-1.272.48c-.328.32-.492.808-.492 1.464v.888c0 .656.164 1.144.492 1.464.328.32.752.48 1.272.48zm3.428-.132h.708c.248-.4.448-.9.6-1.5.152-.6.228-1.288.228-2.064v-1.788h4.188v5.352h1.032v2.52h-.876v-1.68h-5.004v1.68h-.876v-2.52zm4.764 0v-4.512h-2.316v.996c0 .824-.072 1.528-.216 2.112-.136.576-.3 1.044-.492 1.404h3.024zm153.545 58.646c-.45 0-.84-.086-1.16-.256a2.58 2.58 0 0 1-.82-.72l.5-.416c.2.261.41.461.65.6.24.133.53.2.85.2.4 0 .71-.096.91-.288.22-.192.32-.448.32-.768 0-.267-.08-.472-.24-.616-.16-.144-.42-.259-.79-.344l-.45-.104c-.52-.118-.91-.294-1.18-.528-.27-.24-.4-.576-.4-1.008 0-.246.05-.464.14-.656.09-.192.21-.352.37-.48.17-.128.36-.224.59-.288.23-.07.48-.104.75-.104.42 0 .78.077 1.08.232.3.154.56.381.77.68l-.51.368a1.664 1.664 0 0 0-.56-.504c-.22-.123-.49-.184-.81-.184-.36 0-.64.077-.85.232-.2.149-.31.376-.31.68 0 .266.09.469.26.608.18.133.44.24.79.32l.46.104c.55.122.95.309 1.19.56.25.25.37.584.37 1 0 .256-.05.488-.14.696-.08.208-.21.384-.37.528-.17.144-.37.256-.61.336-.24.08-.5.12-.8.12zm3.93-.096c-.23 0-.4-.062-.52-.184-.11-.128-.16-.294-.16-.496v-2.888h-.68v-.56h.38c.14 0 .23-.027.28-.08.05-.059.08-.158.08-.296v-.768h.58v1.144h.9v.56h-.9v3.008h.84v.56h-.8zm4.89 0c-.24 0-.41-.064-.52-.192a.924.924 0 0 1-.19-.48h-.04c-.09.256-.24.448-.45.576-.21.128-.46.192-.74.192-.44 0-.78-.112-1.03-.336-.24-.224-.36-.528-.36-.912 0-.39.14-.688.43-.896.28-.208.73-.312 1.33-.312h.82v-.408c0-.294-.08-.518-.24-.672-.16-.155-.41-.232-.74-.232-.25 0-.46.056-.63.168-.17.112-.3.261-.42.448l-.38-.36c.11-.224.29-.414.54-.568.24-.16.55-.24.92-.24.5 0 .89.122 1.17.368.28.245.42.586.42 1.024v2.272h.47v.56h-.36zm-1.84-.448c.16 0 .31-.019.44-.056.13-.038.25-.091.34-.16.1-.07.17-.15.23-.24a.61.61 0 0 0 .08-.296v-.68h-.85c-.37 0-.64.053-.81.16a.53.53 0 0 0-.25.464v.168c0 .202.08.36.22.472.15.112.35.168.6.168zm3.11.448v-4.128h.64v.76h.04a1.3 1.3 0 0 1 .4-.528c.2-.155.46-.232.8-.232h.24v.64h-.37c-.35 0-.62.066-.82.2-.19.128-.29.29-.29.488v2.8h-.64zm2.94-5.92h.64v2.464h.03c.11-.262.26-.454.47-.576.2-.128.45-.192.74-.192.26 0 .49.05.7.152.2.101.38.245.52.432.15.186.27.413.34.68.08.266.12.565.12.896 0 .33-.04.629-.12.896a1.82 1.82 0 0 1-.34.68c-.14.186-.32.33-.52.432-.21.101-.44.152-.7.152-.56 0-.96-.256-1.21-.768h-.03v.672h-.64v-5.92zm1.7 5.44c.37 0 .65-.112.86-.336.21-.23.31-.528.31-.896v-.704c0-.368-.1-.664-.31-.888-.21-.23-.49-.344-.86-.344-.14 0-.28.021-.41.064-.13.037-.24.09-.34.16a.898.898 0 0 0-.23.256.67.67 0 0 0-.08.312v1.536c0 .133.03.253.08.36.06.101.14.189.23.264.1.069.21.122.34.16.13.037.27.056.41.056zm5.49-.192h-.04c-.04.096-.09.192-.16.288-.06.09-.13.173-.22.248-.09.069-.2.125-.33.168-.13.042-.28.064-.45.064-.42 0-.76-.136-1.01-.408-.25-.278-.38-.667-.38-1.168v-2.648h.64v2.536c0 .741.32 1.112.95 1.112.12 0 .25-.016.36-.048.13-.032.23-.08.32-.144.1-.064.17-.144.23-.24a.697.697 0 0 0 .09-.36v-2.856h.64v4.128h-.64v-.672zm2 .672v-4.128h.64v.76h.04c.07-.198.21-.374.4-.528.19-.155.45-.232.79-.232h.25v.64h-.38c-.34 0-.62.066-.81.2-.2.128-.29.29-.29.488v2.8h-.64zm6.23.456c0 .426-.17.738-.51.936-.33.202-.83.304-1.49.304-.65 0-1.11-.088-1.39-.264a.829.829 0 0 1-.43-.752c0-.224.06-.4.18-.528.12-.123.28-.214.48-.272v-.088a.592.592 0 0 1-.37-.576c0-.208.07-.366.2-.472.13-.112.3-.195.51-.248v-.032a1.333 1.333 0 0 1-.57-.504c-.14-.219-.2-.472-.2-.76a1.37 1.37 0 0 1 .42-1.024c.14-.128.3-.227.49-.296.19-.07.4-.104.64-.104.29 0 .55.053.78.16v-.072c0-.16.04-.291.11-.392.08-.107.2-.16.37-.16h.62v.56h-.79v.264c.15.128.27.282.35.464.08.176.13.376.13.6 0 .208-.04.4-.12.576-.07.176-.18.328-.32.456-.13.122-.29.218-.48.288a2.01 2.01 0 0 1-1.04.064c-.14.037-.27.093-.38.168a.335.335 0 0 0-.17.296c0 .122.06.205.18.248.12.042.27.064.45.064h.88c.52 0 .89.098 1.12.296.23.192.35.458.35.8zm-.6.048a.505.505 0 0 0-.19-.4c-.13-.096-.35-.144-.67-.144h-1.37c-.26.117-.39.304-.39.56 0 .181.07.336.2.464.14.128.37.192.7.192h.59c.36 0 .63-.056.83-.168.2-.112.3-.28.3-.504zm-1.43-2.392c.27 0 .48-.064.64-.192.16-.134.24-.336.24-.608v-.224c0-.272-.08-.472-.24-.6-.16-.134-.37-.2-.64-.2-.28 0-.49.066-.65.2-.16.128-.24.328-.24.6v.224c0 .272.08.474.24.608.16.128.37.192.65.192zm4.28 1.984c-.28 0-.54-.051-.77-.152a1.709 1.709 0 0 1-.58-.432 2.15 2.15 0 0 1-.38-.68 3.108 3.108 0 0 1 0-1.784c.09-.267.22-.494.38-.68.16-.192.36-.339.58-.44.23-.102.49-.152.77-.152s.53.05.74.152c.22.101.41.242.56.424.16.176.28.386.36.632.08.245.12.514.12.808v.304h-2.96v.192c0 .176.02.341.08.496.05.149.13.28.24.392.1.112.23.2.38.264s.33.096.52.096c.26 0 .49-.062.68-.184.2-.123.35-.299.46-.528l.45.328c-.13.282-.34.512-.62.688-.28.17-.62.256-1.01.256zm0-3.784c-.18 0-.34.032-.48.096-.14.058-.27.144-.38.256-.1.112-.18.245-.24.4-.05.149-.08.314-.08.496v.056h2.28v-.088c0-.368-.11-.662-.31-.88-.2-.224-.46-.336-.79-.336zm2.84 3.688v-4.128h.64v.76h.04c.07-.198.21-.374.4-.528.19-.155.45-.232.79-.232h.25v.64h-.38c-.34 0-.62.066-.81.2-.2.128-.29.29-.29.488v2.8h-.64z" fill="#901D81"/><path d="M799.356 146.357l-79.727-78.276h-8.745v183.618l59.86 32.982 17.943-24.294 10.669-8.688V146.357z" stroke="#901D81" stroke-width="2"/><path d="M710.847 69.096H583.081C526.432 24.068 459.732 1.554 382.983 1.554c-76.749 0-152.584 22.514-227.506 67.542C60.819 140.996 9.75 237.726 2.27 359.286c-7.48 121.56 43.59 225.255 153.207 311.085 82.082 53.09 166.643 74.188 253.683 63.293 1.318-82.085 1.318-140.917 0-176.497l54.007-129.821h247.68v-16.29h41.239v-80.135l19.331-45.694-60.57-33.11V69.096zM34.149 526.035L209.54 700.862M9.314 453.319l276.282 275.392M1.554 399.169L339.92 736.447M1.554 351.208l386.484 385.238M9.314 306.341l400.454 399.162M20.18 259.927l391.14 389.879m-374.067-433.2L411.32 589.468M54.327 181.022l363.201 362.032M76.057 148.532L433.05 504.375M99.339 119.136l176.944 176.375m41.908 41.773l128.828 128.413M130.382 89.74l207.987 207.318m41.908 41.773l90.024 89.734M158.32 66.534l231.27 230.524m35.699 35.584l94.681 94.376" stroke="#901D81" stroke-width="2"/><path d="M198.676 46.42l380.295 379.02 3.085 3.126M232.823 29.402l394.245 396.069M273.179 17.025l408.214 409.993M322.847 6.195L729.509 410M375.62 1.554l375.619 375.955M443.915 7.742l313.533 312.523M541.7 40.232l169.184 170.186m-91.577-140.79l91.577 91.281m-40.356-91.281l41.908 41.773" stroke="#901D81" stroke-width="2"/><path d="M674.334 672.085h-92.645c-55.634 37.315-112.424 57.737-170.369 61.267.111-32.199.111-90.673 0-175.423l53.746-129.342h246.935v-17.041h41.463l11.34 35.122 36.104 51.674v25.617l-22.584 27.604v66.459h-103.99v54.063z" stroke="#901D81" stroke-width="2"/><path d="M800.514 147.251c89.767-44.745 175.859-43.648 258.276 3.291-4.21 4.179-9.07 8.565-14.58 13.158v21.721l62.11 75.656 21.31 68.89h26.46v87.788h-26.46l-21.31 67.058 56.24 39.154v147.499H675.184v-52.331h103.325v-67.52l22.005-27.648v-24.571l-35.516-52.438-12.707-35.552v-81.439l19.424-43.416 18.726-25.474 10.073-8.643V147.251z" stroke="#901D81" stroke-width="2"/><path d="M966.987 227.437h37.253v18.565h-37.253v-18.565zm-172.288 44.867h37.252v18.565h-37.252v-18.565zm186.258 281.58h37.253v18.565h-37.253v-18.565zM794.699 671.853v-92.612l20.799-24.97 63.017 24.97v92.612h-83.816zm231.271-110.069l69.7-58.956 59.13 33.728v31.252h-128.83v-6.024zm147.45-122.723v85.427h-11.96l-56.33-39.175 21.51-67.578h26.74l20.04 21.326zm-116.41-285.887l26.39 30.83-21.82 21.772m111.84-68.074v172.429l-18.62 19.417" stroke="#901D81" stroke-width="2"/><path d="M1106.68 261.474l24.93-14.351-7.18-11.204 26.42-19.313h22.57m0-77.357h-42.99l-68.76 66.527" stroke="#901D81" stroke-width="2"/><path d="M1058.56 150.807l77.04-81.18h380.85v601.839h-353.44" stroke="#901D81" stroke-width="2"/><path d="M963.316 121.187v-10.875h-63.703v10.875h63.703zM762.884 334.042h-10.876v63.701h10.876v-63.701z" fill="#901D81"/></svg>