<?xml version="1.0" encoding="UTF-8"?>
<svg width="301px" height="311px" viewBox="0 0 301 311" version="1.1" xmlns="http://www.w3.org/2000/svg" xmlns:xlink="http://www.w3.org/1999/xlink">
    <!-- Generator: Sketch 52.5 (67469) - http://www.bohemiancoding.com/sketch -->
    <title>logo_nemo park</title>
    <desc>Created with Sketch.</desc>
    <defs>
        <filter x="-37.9%" y="-37.9%" width="175.9%" height="175.9%" filterUnits="objectBoundingBox" id="filter-1">
            <feOffset dx="0" dy="19" in="SourceAlpha" result="shadowOffsetOuter1"></feOffset>
            <feGaussianBlur stdDeviation="15.5" in="shadowOffsetOuter1" result="shadowBlurOuter1"></feGaussianBlur>
            <feColorMatrix values="0 0 0 0 0.450980392   0 0 0 0 0.211764706   0 0 0 0 0.494117647  0 0 0 0.0803328804 0" type="matrix" in="shadowBlurOuter1" result="shadowMatrixOuter1"></feColorMatrix>
            <feMerge>
                <feMergeNode in="shadowMatrixOuter1"></feMergeNode>
                <feMergeNode in="SourceGraphic"></feMergeNode>
            </feMerge>
        </filter>
        <path d="M0.0474474836,2.74748402 C1.88636246,12.5398917 3.72560242,22.3322995 5.56467987,32.1248717 L13.4274754,31.0037219 C12.5446597,27.2794497 11.6616815,23.5551777 10.7790283,19.8309054 C13.0147472,19.7016876 15.2503037,19.5721406 17.4861851,19.4427581 L21.0003863,30.3363982 C24.0449872,29.9624071 27.0895882,29.5880869 30.1340268,29.214096 C26.705946,21.1683512 23.2778655,13.1226066 19.8496223,5.07702654 C17.9119125,3.43768837 15.9745278,1.79818558 14.036818,0.159012017 C9.37364036,1.02172628 4.71046267,1.88460515 0.0474474836,2.74748402 M8.74577367,8.65759526 C9.7988803,8.53068194 10.851987,8.40376861 11.9050936,8.27669069 C13.0836436,10.7150396 14.2618686,13.153553 15.4404186,15.5919019 C13.6476512,15.8458931 11.8548838,16.100049 10.0622788,16.3540402 C9.62338962,13.7886134 9.1845004,11.2231866 8.74577367,8.65759526" id="path-2"></path>
        <path d="M0.0121868537,3.40558966 C2.43639578,12.92343 4.86027974,22.4412705 7.28432616,31.95944 L15.4628424,30.7596071 L14.2951793,22.7892533 C16.9377767,24.8885082 19.580699,26.9877631 22.2234588,29.0871827 C25.4948979,28.3507233 28.7661743,27.6142639 32.0376134,26.8778045 C28.5118753,23.9321315 24.9859749,20.986294 21.4602368,18.0406211 C22.7164577,17.4850667 23.9726786,16.9296769 25.2288995,16.3742871 C25.0631583,13.2842524 24.8974171,10.1943822 24.7315134,7.10434744 C22.11004,4.74731527 19.4884039,2.3899539 16.8669304,0.032757134 C11.2486284,1.15703464 5.6303264,2.28114755 0.0121868537,3.40558966 Z M10.4290219,11.3851616 L13.2510097,10.0197324 L15.3229373,15.0635079 L11.4471929,15.9505843 L10.4290219,11.3851616 Z" id="path-4"></path>
        <path d="M13.2194051,12.0005019 L19.3441928,6.97219956 L15.6619756,0.148839198 L0.0476912206,5.2044666 L0.0286797289,19.8999094 L8.13261243,31.7798848 L19.0348092,29.1374212 L24.4386227,24.5907639 C23.5192463,20.6054225 22.5998702,16.6202454 21.6803314,12.6349039 C19.6366773,14.299098 17.5931857,15.9631275 15.5496941,17.6274862 C15.8093553,19.3725031 16.069179,21.1178493 16.3290027,22.8628663 L13.617509,23.801959 L9.2021307,18.1030407 L8.55297764,9.65153558 L10.3168216,9.06783309 L13.2194051,12.0005019 Z" id="path-6"></path>
        <polygon id="path-8" points="0 0.00510287009 185.086784 0.00510287009 185.086784 33.5386795 0 33.5386795"></polygon>
        <path d="M0.0422152611,1.30447467 C0.43950669,4.64306858 0.836960611,7.98166251 1.23441453,11.320421 L7.89331136,10.0246212 C8.71178046,16.9233724 9.53008706,23.8221235 10.3485562,30.7208747 C13.6302321,30.8770883 16.9120706,31.0333021 20.193909,31.1893511 L17.3818331,21.8413869 C17.1829437,17.5510254 16.9840542,13.2608285 16.7851648,8.97046703 C18.8345061,9.09836802 20.8841724,9.22610438 22.9336762,9.35367611 C22.586757,6.28734502 22.239838,3.22101392 21.8932439,0.154682807 C14.6094052,0.537891892 7.32572898,0.921265583 0.0422152611,1.30447467" id="path-10"></path>
        <path d="M0.0643465873,3.4612274 C2.48823054,12.9792324 4.91227697,22.4972374 7.33632342,32.0150778 L15.5150021,30.8152449 L14.3471766,22.8450556 C16.9900989,24.9443105 19.6326963,27.0437301 22.2756185,29.142985 C25.5470576,28.4065256 28.8183341,27.6700662 32.0897731,26.9336068 L21.5123965,18.0964235 C22.768455,17.5408691 24.0246759,16.9853146 25.2808966,16.4299248 C25.115318,13.3400547 24.9494144,10.2501846 24.7836731,7.1601498 C22.1618746,4.80311763 19.5405636,2.44592086 16.9189277,0.0887240963 C11.3007882,1.212837 5.68248612,2.33711452 0.0643465873,3.4612274 Z M10.4811816,11.440964 L13.303007,10.0755347 L15.3749346,15.1193103 L11.4991901,16.006222 L10.4811816,11.440964 Z" id="path-12"></path>
        <path d="M0.0643465873,3.4612274 C2.48823054,12.9792324 4.91227697,22.4972374 7.33632342,32.0150778 L15.5150021,30.8152449 L14.3471766,22.8450556 C16.9900989,24.9443105 19.6326963,27.0437301 22.2756185,29.142985 C25.5470576,28.4065256 28.8183341,27.6700662 32.0897731,26.9336068 L21.5123965,18.0964235 C22.768455,17.5408691 24.0246759,16.9853146 25.2808966,16.4299248 C25.115318,13.3400547 24.9494144,10.2501846 24.7836731,7.1601498 C22.1618746,4.80311763 19.5405636,2.44592086 16.9189277,0.0887240963 C11.3007882,1.212837 5.68248612,2.33711452 0.0643465873,3.4612274 Z M10.4811816,11.440964 L13.303007,10.0755347 L15.3749346,15.1193103 L11.4991901,16.006222 L10.4811816,11.440964 Z" id="path-14"></path>
        <path d="M19.6798675,8.0299587 C18.8899969,5.37909999 18.0999638,2.72840589 17.3100932,0.0777117734 C11.5642354,1.35013712 5.81821518,2.62239786 0.0723574124,3.89498783 C1.42574813,7.32263505 2.77913885,10.7504469 4.13252959,14.1782587 L8.42928919,32.088839 L28.654104,29.261849 C27.5490002,26.9648989 26.4437337,24.667949 25.3384674,22.3711636 L14.4806308,24.8157676 L12.4038284,19.9323209 L22.8010019,18.6271384 L20.0856086,11.7494572 L11.9144044,13.2207298 L9.71735839,8.58419624 L19.6798675,8.0299587 Z" id="path-16"></path>
        <path d="M21.3285863,9.00297726 L21.0377268,1.48957716 C15.4673597,1.01912546 9.89683012,0.54883837 4.32646304,0.0783866691 C3.96670712,4.50389192 3.60695119,8.92923255 3.24735778,13.3547378 C2.19360116,18.9515987 1.14016953,24.5482949 0.0864129171,30.1451557 C7.01650788,30.8521501 13.9464403,31.5593092 20.8765352,32.2663036 C21.0637253,29.6001363 21.2507529,26.933969 21.4381055,24.2674725 C18.2834978,24.1201476 15.1288901,23.9726581 11.9744449,23.8253334 L11.2312093,18.561476 L21.6033592,20.058263 L20.7593789,12.7002536 L12.4927924,11.9540823 L11.5701664,6.89680877 L21.3285863,9.00297726 Z" id="path-18"></path>
        <path d="M0.0295734316,11.815778 C0.201489313,16.4044105 0.373730178,20.993043 0.545808552,25.5816755 L4.70883777,33.8005884 L19.204044,33.8005884 L23.5159154,16.1240819 L22.5495791,6.3290404 L17.4202136,1.14979186 C12.6398796,0.796047737 7.85938318,0.44246822 3.07904921,0.0888887049 C2.06250312,3.99785181 1.04595703,7.90681491 0.0295734316,11.815778 Z M9.80115519,26.2476823 C9.17068862,23.6040663 8.54022205,20.9604505 7.90991799,18.3166699 C8.154955,15.5428485 8.40031699,12.7693563 8.64535398,9.99569948 C10.2213579,9.8222019 11.7975243,9.64886893 13.3735282,9.47537134 C13.8428033,11.5040091 14.3120784,13.5326469 14.781516,15.5611201 L11.8821823,26.3694927 C11.1883441,26.3289991 10.4946684,26.2883406 9.80115519,26.2476823 Z" id="path-20"></path>
        <path d="M0.141692485,2.5996654 C1.98076995,12.3920731 3.82000991,22.1844809 5.65892488,31.9770532 L13.5217204,30.8559032 C12.6389047,27.1317958 11.756089,23.4075236 10.8732733,19.6834161 C13.1089923,19.553869 15.3448737,19.4244866 17.5804301,19.2951041 L21.0946313,30.1885794 C24.1390698,29.8145885 27.1836708,29.4402683 30.2284343,29.0662774 C26.8003537,21.0205326 23.3721105,12.9749526 19.9438674,4.9292079 C18.00632,3.28986973 16.0687728,1.65069617 14.131063,0.0111933925 C9.46788537,0.874072265 4.80470768,1.73678653 0.141692485,2.5996654 M8.84001866,8.51010585 C9.8932878,8.38286332 10.9463945,8.25595 11.9993386,8.12903667 C13.1778886,10.5673855 14.3564386,13.005899 15.5346636,15.4442479 C13.7418962,15.6982391 11.9492913,15.952395 10.1565238,16.2063862 C9.71779711,13.6409594 9.27890789,11.075368 8.84001866,8.51010585" id="path-22"></path>
        <path d="M0.141692485,2.5996654 C1.98076995,12.3920731 3.82000991,22.1844809 5.65892488,31.9770532 L13.5217204,30.8559032 C12.6389047,27.1317958 11.756089,23.4075236 10.8732733,19.6834161 C13.1089923,19.553869 15.3448737,19.4244866 17.5804301,19.2951041 L21.0946313,30.1885794 C24.1390698,29.8145885 27.1836708,29.4402683 30.2284343,29.0662774 C26.8003537,21.0205326 23.3721105,12.9749526 19.9438674,4.9292079 C18.00632,3.28986973 16.0687728,1.65069617 14.131063,0.0111933925 C9.46788537,0.874072265 4.80470768,1.73678653 0.141692485,2.5996654 M8.84001866,8.51010585 C9.8932878,8.38286332 10.9463945,8.25595 11.9993386,8.12903667 C13.1778886,10.5673855 14.3564386,13.005899 15.5346636,15.4442479 C13.7418962,15.6982391 11.9492913,15.952395 10.1565238,16.2063862 C9.71779711,13.6409594 9.27890789,11.075368 8.84001866,8.51010585" id="path-24"></path>
        <polygon id="path-26" points="0.0585618941 0.000625513108 8.87891911 0.000625513108 10.266433 23.3930052 2.13991401 23.3930052"></polygon>
        <polygon id="path-28" points="0.730886238 5.0224752 9.55124344 5.0224752 9.55124344 0.00256789592 0.0372105265 0.00256789592"></polygon>
        <path d="M19.2104786,31.6149799 C14.4806795,31.371359 9.75055537,31.1277381 5.02075622,30.8841172 C4.08545583,28.3665916 3.15015543,25.8489013 2.21485502,23.3313756 C1.47763163,15.6072763 0.74024574,7.8830125 0.0030223397,0.158913252 C2.82728505,0.192164211 5.65138527,0.225415171 8.47564799,0.258666131 C8.74018395,8.13897905 9.00488241,16.0194566 9.26958088,23.8997694 C11.0194506,23.4452849 12.7691578,22.9909649 14.51919,22.5366448 C14.9605166,15.3027502 15.4020056,8.06918495 15.8433322,0.835455061 C19.0567618,0.839241062 22.2698664,0.843191672 25.4832959,0.846977671 C23.3921943,11.1030881 21.3014178,21.3588694 19.2104786,31.6149799" id="path-30"></path>
        <path d="M0.128693175,2.55028279 C1.43219904,12.8080393 2.73537993,23.0659606 4.0387233,33.3237171 L21.9938585,32.9163105 C23.6281969,29.2944249 25.2626977,25.6723749 26.897036,22.0503248 C26.5262307,18.3216082 26.1554253,14.5928916 25.7847824,10.8641751 C22.8469384,7.28031415 19.9092566,3.69645325 16.9717374,0.112921577 C11.3573352,0.925265575 5.74309542,1.73793879 0.128693175,2.55028279 Z M8.71993753,16.7512411 L8.71993753,11.2144624 C10.5552777,10.9928991 12.3907804,10.7710065 14.2261205,10.5494432 C15.725591,12.019399 17.2250614,13.4891902 18.7243694,14.9593106 C18.4825823,17.1151909 18.2407951,19.2710712 17.9990079,21.4269516 C16.8635181,22.3311472 15.7283533,23.2353428 14.5930261,24.1395386 C12.953488,24.4012665 11.31395,24.6628297 9.67424941,24.9245575 C9.35609128,22.1999541 9.03809566,19.4756799 8.71993753,16.7512411 Z" id="path-32"></path>
    </defs>
    <g id="Page-1" stroke="none" stroke-width="1" fill="none" fill-rule="evenodd">
        <g id="цены-(аттракционы)" transform="translate(-915.000000, -613.000000)">
            <g id="logo_nemo-park" transform="translate(946.000000, 622.000000)">
                <g id="Group-3">
                    <g id="Fill-1" filter="url(#filter-1)" fill="#FFFFFF">
                        <g id="path-1-link" transform="translate(0.000000, 2.000000)">
                            <path d="M116.04406,17.5264429 C116.04406,17.5264429 145.059776,51.0799493 202.262598,75.4062797 C202.262598,75.4062797 246.614779,97.6354201 239.154267,154.676073 C239.154267,154.676073 230.448946,197.037164 195.630695,211.297135 L129.72331,239.398254 C129.72331,239.398254 69.2045363,275.048182 27.3389392,221.363494 C27.3389392,221.363494 14.0743736,207.522346 10.3437383,168.936045 L4.54044333,108.959786 C4.54044333,108.959786 -10.7960224,54.4351461 14.9037412,26.334027 C14.9037412,26.334027 58.0581998,-26.5176254 116.04406,17.5264429" id="path-1"></path>
                        </g>
                    </g>
                    <g id="Group-20" transform="translate(112.845177, 135.310414) rotate(4.000000) translate(-112.845177, -135.310414) translate(20.845177, 91.310414)">
                        <polygon id="Path-35" fill="#34305C" points="2.49313202 20.8522704 18.9561904 15.5073202 22.7052037 17.5412267 23.439505 14.5378496 43.1224891 10.5099291 47.0088775 12.1202453 48.6623106 14.0680333 48.9399826 10.3221528 50.2523014 8.51767812 67.9012875 5.09141245 70.2398678 5.92550251 72.3043954 8.7727693 72.9877041 5.91440307 74.2609824 4.15765598 89.6984411 2.81814978 95.7294625 6.64425635 95.9965717 2.16524172 120.016549 0.696198567 121.832017 2.16524172 122.461557 0.696198567 132.893594 0.696198567 133.707962 2.0020147 134.746438 0.696198567 145.281638 1.08794341 147.074645 4.74422859 149.356653 1.08794341 161.418695 1.21852502 178.944974 2.65492277 181.956768 5.09141245 182.085078 13.4931967 180.652764 15.2234031 181.974595 17.0138402 183.097772 25.017024 181.793768 26.8027281 183.097772 28.7712455 182.771771 37.0745059 180.652764 40.2180296 162.877551 40.3553036 164.515706 43.624904 165.429407 52.1825538 159.975603 73.6586752 157.339084 76.1070804 142.690455 75.9438534 140.22862 73.6586752 139.576618 72.516086 136.316607 75.4461252 128.166578 75.7806264 125.721569 73.0007071 121.972556 75.9438534 102.086485 77.1279103 99.4170735 74.4748101 98.3616611 73.6586752 95.5149257 78.2290316 82.3634153 79.0451667 77.2116321 75.0339607 75.8433921 73.6586752 74.2609824 77.1279103 73.0723823 79.9165714 60.3458659 81.656799 57.6362595 79.0451667 56.203167 77.1279103 53.9662386 81.656799 51.2455955 84.2684312 35.0932477 87.6961986 26.6172176 82.14648 25.5407618 75.7806264 29.2252267 71.7502248 22.7052037 62.2327839 23.439505 58.6577297 26.143489 54.0714331 24.8242111 53.7040353 15.0441765 57.0095194 9.37352344 56.3978588 0.0977723715 42.319088 0.0977723715 27.6286563"></polygon>
                        <g id="Group-88" transform="translate(4.234849, 3.621570)">
                            <g id="Group-11" transform="translate(94.082511, 2.628637)" fill="#000000">
                                <path d="M79.5745972,10.3188922 L79.2837376,2.80549213 L62.572474,1.39446625 C62.212718,5.81980688 61.8529621,10.2453121 61.4933687,14.6706528 C60.439612,20.2675137 59.3861804,25.8642098 58.3324239,31.4610708 C65.2625188,32.1682298 72.1924511,32.8752243 79.1225461,33.5823831 C79.3097362,30.9160513 79.4967638,28.249884 79.6841164,25.583552 C76.5295087,25.4362273 73.374901,25.2887378 70.2204558,25.1414131 L69.4772202,19.8773909 L79.84937,21.3741781 L79.0053898,14.0163331 L70.7388032,13.2701618 L69.8161772,8.21272374 L79.5745972,10.3188922 Z" id="Fill-1"></path>
                                <path d="M55.0721967,31.5712598 C50.3423976,31.3276389 45.6122734,31.0838534 40.8824743,30.840397 C39.9471739,28.3227069 39.0118734,25.8051812 38.0765732,23.2874909 C37.3393497,15.5633917 36.6019637,7.83929243 35.8647404,0.115193177 C38.6890032,0.148279529 41.5131033,0.181695097 44.337366,0.214781449 C44.601902,8.09525898 44.8666005,15.9755719 45.1312989,23.8560494 C46.8811685,23.4015647 48.6308759,22.9470802 50.3809079,22.4929246 C50.8222346,15.2590302 51.2637237,8.02530026 51.7050502,0.791570379 C54.9184799,0.795356378 58.1315845,0.799306988 61.345014,0.803257597 C59.2539124,11.0592035 57.1631359,21.3151493 55.0721967,31.5712598" id="Fill-3"></path>
                                <polygon id="Fill-5" points="25.0070174 7.34933458 33.8273747 7.34933458 35.214726 30.7415495 27.088207 30.7415495"></polygon>
                                <polygon id="Fill-7" points="24.8669011 5.29286148 33.6872583 5.29286148 33.6872583 0.273118776 24.1730629 0.273118776"></polygon>
                                <path d="M0.1442436,1.96949387 C0.54169752,5.30808779 0.939151441,8.64668169 1.33644287,11.9854402 C3.55607516,11.553507 5.77570743,11.1215737 7.99550219,10.6896404 C8.81380881,17.5885562 9.63227789,24.4873074 10.4505845,31.3860585 C13.7324229,31.5421076 17.0140989,31.6983212 20.2960999,31.854535 C19.358687,28.7383274 18.4212743,25.6222844 17.484024,22.5064062 C17.284972,18.2160446 17.0862451,13.9258477 16.8871931,9.63548624 C18.9366969,9.7633872 20.9863631,9.89112356 23.0357045,10.0188599 C22.688948,6.95236422 22.3420287,3.8860331 21.9952722,0.819702007 C14.711596,1.20291109 7.42791979,1.58628478 0.1442436,1.96949387" id="Fill-9"></path>
                            </g>
                            <g id="Group-14" transform="translate(70.683750, 5.756202)">
                                <g id="Fill-12-Clipped">
                                    <mask id="mask-3" fill="white">
                                        <use xlink:href="#path-2"></use>
                                    </mask>
                                    <g id="path-4"></g>
                                    <path d="M-0.591403634,2.42378099 C5.83903032,1.38839219 12.2693018,0.353003385 18.6998982,-0.682220811 C23.0008825,10.3185795 27.302192,21.3193798 31.603339,32.32018 C22.9137873,33.7338397 14.2245606,35.1474992 5.53500895,36.5613236 C3.49297975,25.1820877 1.45078806,13.8030167 -0.591403634,2.42378099" id="Fill-12" fill="#000000" mask="url(#mask-3)"></path>
                                </g>
                            </g>
                            <path d="M65.7174458,16.8365742 C64.9275752,14.1858801 64.1375422,11.535186 63.3478341,8.8843273 C57.6018139,10.1569173 51.8557934,11.429178 46.1099359,12.7016034 C47.4633264,16.1294152 48.8167172,19.5570624 50.1702704,22.9848743 L54.46703,40.8954544 C61.2086349,39.9532342 67.95024,39.0108492 74.6918449,38.0684645 C73.5867411,35.7716791 72.4813122,33.4747291 71.3760457,31.1777792 L60.5183717,33.6223832 L58.4414067,28.7391011 L68.8385804,27.433754 L66.1231868,20.5560727 L57.9519828,22.0273454 L55.7549367,17.3909764 L65.7174458,16.8365742 Z" id="Fill-15" fill="#000000"></path>
                            <g id="Group-19" transform="translate(20.636406, 14.480464)">
                                <g id="Fill-17-Clipped">
                                    <mask id="mask-5" fill="white">
                                        <use xlink:href="#path-4"></use>
                                    </mask>
                                    <g id="path-6"></g>
                                    <polygon id="Fill-17" fill="#000000" mask="url(#mask-5)" points="-2.08239206 2.06546074 28.5093729 -4.9350186 36.9053026 32.7169201 6.31353765 39.7173993"></polygon>
                                </g>
                            </g>
                            <g id="Group-32" transform="translate(0.000000, 0.817941)">
                                <path d="M13.2194051,31.9229791 L19.3441928,26.8946768 L15.6619756,20.0714811 L0.0476912206,25.1269439 L0.0286797289,39.8223867 L8.13261243,51.7023621 L19.0348092,49.0598985 L24.4386227,44.5132412 C23.5192463,40.5278998 22.5998702,36.5427228 21.6803314,32.5573812 C19.6366773,34.2215752 17.5931857,35.8857693 15.5496941,37.5499635 C15.8093553,39.2949805 16.069179,41.0403266 16.3290027,42.7853436 L13.617509,43.7244363 L9.2021307,38.025518 L8.55297764,29.5740128 L10.3168216,28.9903103 L13.2194051,31.9229791 Z" id="Fill-20" fill="#000000"></path>
                                <g id="Group-87" transform="translate(1.299931, 16.790090)">
                                    <g id="Mask" fill="#FF7400">
                                        <path d="M13.2194051,12.0005019 L19.3441928,6.97219956 L15.6619756,0.148839198 L0.0476912206,5.2044666 L0.0286797289,19.8999094 L8.13261243,31.7798848 L19.0348092,29.1374212 L24.4386227,24.5907639 C23.5192463,20.6054225 22.5998702,16.6202454 21.6803314,12.6349039 C19.6366773,14.299098 17.5931857,15.9631275 15.5496941,17.6274862 C15.8093553,19.3725031 16.069179,21.1178493 16.3290027,22.8628663 L13.617509,23.801959 L9.2021307,18.1030407 L8.55297764,9.65153558 L10.3168216,9.06783309 L13.2194051,12.0005019 Z" id="path-8"></path>
                                    </g>
                                    <g id="Clipped">
                                        <mask id="mask-7" fill="white">
                                            <use xlink:href="#path-6"></use>
                                        </mask>
                                        <g id="path-8"></g>
                                        <g id="Group" mask="url(#mask-7)">
                                            <g transform="translate(-7.637096, -23.374437)" id="Fill-85-Clipped">
                                                <g>
                                                    <mask id="mask-9" fill="white">
                                                        <use xlink:href="#path-8"></use>
                                                    </mask>
                                                    <g id="path-10"></g>
                                                    <path d="M0,33.5386795 C31.2430305,31.1222236 62.4200896,28.108732 93.5306895,24.4977106 C124.115793,20.9479236 154.634436,16.8210187 185.086784,12.1174893 C183.480881,8.70284619 181.874979,5.28836765 180.269077,1.87372452 L67.9854194,0.00508640923 L23.6496457,12.2588882 L4.58875662,22.4713775 C3.05922524,26.1605878 1.52953138,29.8496336 0,33.5386795" id="Fill-85" fill="#FF8825" mask="url(#mask-9)"></path>
                                                </g>
                                            </g>
                                        </g>
                                    </g>
                                </g>
                                <path d="M1.81627992,36.5363688 L9.64381477,48.0110776 L20.1106971,45.4741281 L25.1952151,41.1961123 L22.6819608,30.3016492 L17.3733673,34.6246033 L18.171525,39.9868967 L14.7476691,41.1727378 L10.0274569,35.0804048 L9.33719354,26.0929337 L11.7493781,25.2944168 L14.5531669,28.1271681 L20.0214893,23.6379594 L16.7273016,17.5334452 L1.83464145,22.3553281 L1.81627992,36.5363688 Z M9.22133719,49.1289353 L0.841006646,36.8436934 L0.860668103,21.6338483 L17.1965767,16.3444765 L21.2668234,23.886683 L14.4855705,29.454079 L11.4840297,26.421328 L10.3686888,26.7905453 L10.9767316,34.7059201 L15.0872761,40.0114234 L17.0862451,39.3190792 L16.3257854,34.2104477 L23.2786292,28.5485665 L26.2817948,41.5658235 L20.5588483,46.3811221 L9.22133719,49.1289353 Z" id="Fill-24" fill="#FFFFFF" fill-rule="nonzero"></path>
                                <g id="Fill-85" transform="translate(95.219951, 0.493826)">
                                    <g id="Mask" fill="#FF7400">
                                        <path d="M0.0422152611,1.30447467 C0.43950669,4.64306858 0.836960611,7.98166251 1.23441453,11.320421 L7.89331136,10.0246212 C8.71178046,16.9233724 9.53008706,23.8221235 10.3485562,30.7208747 C13.6302321,30.8770883 16.9120706,31.0333021 20.193909,31.1893511 L17.3818331,21.8413869 C17.1829437,17.5510254 16.9840542,13.2608285 16.7851648,8.97046703 C18.8345061,9.09836802 20.8841724,9.22610438 22.9336762,9.35367611 C22.586757,6.28734502 22.239838,3.22101392 21.8932439,0.154682807 C14.6094052,0.537891892 7.32572898,0.921265583 0.0422152611,1.30447467" id="path-12"></path>
                                    </g>
                                    <g id="Clipped">
                                        <mask id="mask-11" fill="white">
                                            <use xlink:href="#path-10"></use>
                                        </mask>
                                        <g id="path-12"></g>
                                        <path d="M-101.557114,26.4605049 C-70.3140833,24.044049 -39.1370244,21.0305573 -8.02642431,17.419536 C22.5586785,13.8697491 53.0773226,9.74284405 83.5296699,5.03931468 C81.9237676,1.62467154 80.3178652,-1.789807 78.7119629,-5.20445013 L-33.5716944,-7.07308824 L-77.907468,5.18071357 L-96.9683571,15.3932027 C-98.4978887,19.0824132 -100.027582,22.7714591 -101.557114,26.4605049" id="Path" fill="#FF8825" mask="url(#mask-11)"></path>
                                    </g>
                                </g>
                                <path d="M106.003252,30.7409735 L114.745938,31.1569396 L112.11764,22.4200031 L111.492698,8.93756175 L117.603187,9.31846632 L116.681048,1.16572598 L95.808705,2.26399532 L96.8757859,11.2294089 L103.535008,9.93344447 L106.003252,30.7409735 Z M116.081617,32.2092831 L105.133598,31.6884612 L102.691677,11.1033186 L96.0331056,12.3989538 L94.7156254,1.33263922 L117.54534,0.131160222 L118.704066,10.3765711 L112.517531,9.99105753 L113.085926,22.2502915 L116.081617,32.2092831 Z" id="Fill-28" fill="#FFFFFF" fill-rule="nonzero"></path>
                                <path d="M44.5829392,45.1543592 C45.4064456,48.4664513 46.230277,51.7787077 47.0537833,55.0909642 L54.2997615,54.4399368 C55.5138971,61.5166299 56.7281952,68.5936523 57.9426557,75.6703454 L67.7533979,74.9207174 C66.2659519,70.8048411 64.7786681,66.6889649 63.291222,62.5730886 C62.982326,59.3258526 62.6735923,56.0784519 62.3648587,52.8312159 C65.2970157,52.3663608 68.2290101,51.9016703 71.1610047,51.4369801 C69.8763477,48.3380564 68.5915285,45.2392974 67.3067091,42.140209 L44.5829392,45.1543592 Z" id="Fill-30" fill="#FFFFFF"></path>
                            </g>
                            <g id="Group-35" transform="translate(22.098828, 12.340551)">
                                <g id="Fill-33-Clipped">
                                    <mask id="mask-13" fill="white">
                                        <use xlink:href="#path-12"></use>
                                    </mask>
                                    <g id="path-14"></g>
                                    <polygon id="Fill-33" fill="#FE7400" mask="url(#mask-13)" points="-2.03034607 2.12124664 28.561419 -4.8792327 36.9573487 32.772706 6.36558365 39.7731852"></polygon>
                                </g>
                                <g id="Fill-85-Clipped">
                                    <mask id="mask-15" fill="white">
                                        <use xlink:href="#path-14"></use>
                                    </mask>
                                    <g id="path-14"></g>
                                    <path d="M-28.4359918,15.4317212 C2.80703863,13.0152653 33.9840975,10.0017735 65.0946976,6.3907522 C95.6798005,2.84096532 126.198445,-1.28593973 156.650792,-5.9894691 C155.04489,-9.40411223 153.438987,-12.8185908 151.833085,-16.2332339 L39.5494275,-18.101872 L-4.78634615,-5.84807021 L-23.8472352,4.36441895 C-25.3767667,8.05362942 -26.9064605,11.7426753 -28.4359918,15.4317212" id="Fill-85" fill="#FF8825" mask="url(#mask-15)"></path>
                                </g>
                            </g>
                            <g id="Group-50" transform="translate(21.448862, 1.476375)">
                                <path d="M1.3151565,14.7085128 L8.34908345,42.3270564 L15.6109858,41.2618734 L14.3354285,32.5560479 L23.0449665,39.4743874 L31.6591221,37.5351322 L21.2395249,28.8296358 L25.4257902,26.9787754 L24.9578152,18.2569828 L17.4260145,11.4848157 L1.3151565,14.7085128 Z M7.62355943,43.4314164 L0.113370237,13.9424238 L17.7116744,10.4209496 L25.9092022,17.791634 L26.4359992,27.6097206 L23.0851019,29.0913637 L33.820095,38.0603986 L22.8062667,40.5398996 L15.6587583,34.8625452 L16.718852,42.097098 L7.62355943,43.4314164 Z" id="Fill-36" fill="#FFFFFF" fill-rule="nonzero"></path>
                                <path d="M11.6925549,22.5807928 L12.5173611,26.2800444 L15.3521858,25.6311568 L13.6999734,21.6094367 L11.6925549,22.5807928 Z M11.7811127,27.4607828 L10.5700644,22.0293535 L14.2059716,20.2700156 L16.6976144,26.3358467 L11.7811127,27.4607828 Z" id="Fill-38" fill="#FFFFFF" fill-rule="nonzero"></path>
                                <g id="Fill-85" transform="translate(25.836129, 4.938261)">
                                    <g id="Mask" fill="#FF7400">
                                        <path d="M19.6798675,8.0299587 C18.8899969,5.37909999 18.0999638,2.72840589 17.3100932,0.0777117734 C11.5642354,1.35013712 5.81821518,2.62239786 0.0723574124,3.89498783 C1.42574813,7.32263505 2.77913885,10.7504469 4.13252959,14.1782587 L8.42928919,32.088839 L28.654104,29.261849 C27.5490002,26.9648989 26.4437337,24.667949 25.3384674,22.3711636 L14.4806308,24.8157676 L12.4038284,19.9323209 L22.8010019,18.6271384 L20.0856086,11.7494572 L11.9144044,13.2207298 L9.71735839,8.58419624 L19.6798675,8.0299587 Z" id="path-16"></path>
                                    </g>
                                    <g id="Clipped">
                                        <mask id="mask-17" fill="white">
                                            <use xlink:href="#path-16"></use>
                                        </mask>
                                        <g id="path-16"></g>
                                        <path d="M-53.6221561,21.3576349 C-22.3791256,18.9411789 8.79793339,15.9276872 39.9085334,12.3166659 C70.4936364,8.76687899 101.01228,4.63997393 131.464628,-0.0635554241 C129.858725,-3.47819856 128.252823,-6.8926771 126.646921,-10.3073202 L14.3632632,-12.1759584 L-29.9725103,0.0778434604 L-49.0333994,10.2903326 C-50.5629308,13.9795431 -52.0926248,17.668589 -53.6221561,21.3576349" id="Path" fill="#FF8825" mask="url(#mask-17)"></path>
                                    </g>
                                </g>
                                <path d="M26.5747993,9.19122378 L30.4424192,18.9999278 L34.6350219,36.4769287 L53.7573328,33.8040123 L50.9049589,27.8761234 L40.0287608,30.3246781 L37.5351681,24.4614803 L47.9497281,23.1539933 L45.6165143,17.2442112 L37.4713089,18.7108749 L34.7983257,13.0698989 L44.8701915,12.5095708 L42.8098008,5.59600489 L26.5747993,9.19122378 Z M33.895686,37.5773379 L29.503219,19.2672523 L25.2422076,8.47517589 L43.4826777,4.43600728 L46.1618356,13.4267706 L36.308683,13.9750822 L38.0297919,17.6071734 L46.2269946,16.1311271 L49.3245678,23.9767077 L38.9446183,25.2795855 L40.6047928,29.1832813 L51.4442679,26.7427923 L55.2231675,34.596274 L33.895686,37.5773379 Z" id="Fill-42" fill="#FFFFFF" fill-rule="nonzero"></path>
                                <g id="Fill-85" transform="translate(132.592968, 0.493826)">
                                    <g id="Mask" fill="#FF7400">
                                        <path d="M21.3285863,9.00297726 L21.0377268,1.48957716 C15.4673597,1.01912546 9.89683012,0.54883837 4.32646304,0.0783866691 C3.96670712,4.50389192 3.60695119,8.92923255 3.24735778,13.3547378 C2.19360116,18.9515987 1.14016953,24.5482949 0.0864129171,30.1451557 C7.01650788,30.8521501 13.9464403,31.5593092 20.8765352,32.2663036 C21.0637253,29.6001363 21.2507529,26.933969 21.4381055,24.2674725 C18.2834978,24.1201476 15.1288901,23.9726581 11.9744449,23.8253334 L11.2312093,18.561476 L21.6033592,20.058263 L20.7593789,12.7002536 L12.4927924,11.9540823 L11.5701664,6.89680877 L21.3285863,9.00297726 Z" id="path-18"></path>
                                    </g>
                                    <g id="Clipped">
                                        <mask id="mask-19" fill="white">
                                            <use xlink:href="#path-18"></use>
                                        </mask>
                                        <g id="path-18"></g>
                                        <path d="M-160.378994,25.80207 C-129.135964,23.3856141 -97.9589046,20.3721224 -66.8483047,16.7611011 C-36.2632017,13.2113142 -5.74455783,9.0844092 24.7077895,4.38087982 C23.1018872,0.966236684 21.4959849,-2.44824185 19.8900826,-5.86288498 L-92.3935748,-7.7315231 L-136.729348,4.5222787 L-155.790237,14.7347679 C-157.319769,18.4239783 -158.849463,22.1130242 -160.378994,25.80207" id="Path" fill="#FF8825" mask="url(#mask-19)"></path>
                                    </g>
                                </g>
                                <path d="M133.258013,30.2018141 L153.018752,32.2177769 L153.509313,25.231454 L144.141848,24.7937593 L143.249608,18.4736079 L153.639307,19.9728639 L152.913945,13.6502434 L144.673682,12.9065412 L143.551354,6.75363212 L153.409869,8.88152894 L153.160444,2.43940237 L137.365145,1.10541335 L136.319188,13.9409424 L133.258013,30.2018141 Z M153.920092,33.3025483 L132.100911,31.0762155 L135.356589,13.7817657 L136.473717,0.0390781085 L154.100945,1.5276347 L154.433077,10.1121437 L144.775077,8.02770355 L145.497838,11.9891768 L153.790749,12.7378173 L154.75351,21.1312155 L144.398909,19.6370623 L144.992815,23.8446256 L154.552833,24.2913735 L153.920092,33.3025483 Z" id="Fill-46" fill="#FFFFFF" fill-rule="nonzero"></path>
                                <path d="M116.010592,34.4920933 C120.790926,34.8456727 125.571423,35.1992523 130.351757,35.5528318 L135.481122,40.7322449 L136.447296,50.5272863 L132.135587,68.2039577 L117.640218,68.2039577 L113.477352,59.9848799 C113.305273,55.3962474 113.133032,50.807615 112.960954,46.2189825 C113.9775,42.3100195 114.994046,38.4010563 116.010592,34.4920933 M121.576897,44.398904 C121.331698,47.1723962 121.086498,49.9462176 120.841299,52.7198744 C121.471603,55.3636551 122.102069,58.0072709 122.732536,60.6510514 C123.426374,60.6915452 124.119887,60.7322035 124.813725,60.7726973 L127.713059,49.9643246 C127.243621,47.9358514 126.774346,45.9073782 126.305071,43.8785759 C124.728905,44.0520735 123.152901,44.2254065 121.576897,44.398904" id="Fill-48" fill="#FFFFFF" fill-rule="nonzero"></path>
                            </g>
                            <g id="Group-53" transform="translate(134.380373, 35.879597)">
                                <g id="Fill-51-Clipped">
                                    <mask id="mask-21" fill="white">
                                        <use xlink:href="#path-20"></use>
                                    </mask>
                                    <g id="path-20"></g>
                                    <polygon id="Fill-51" fill="#FFFFFF" mask="url(#mask-21)" points="-0.628841649 35.5800087 24.6905654 35.5800087 24.6905654 -0.629463718 -0.628841649 -0.629463718"></polygon>
                                </g>
                            </g>
                            <g id="Group-56" transform="translate(71.658700, 3.287071)">
                                <g id="Fill-54-Clipped">
                                    <mask id="mask-23" fill="white">
                                        <use xlink:href="#path-22"></use>
                                    </mask>
                                    <g id="path-22"></g>
                                    <path d="M-0.497158632,2.27604466 C5.93327533,1.24065587 12.3637093,0.205431673 18.7941432,-0.82995713 C23.0952902,10.1708432 27.396437,21.1716434 31.6975838,32.1724437 C23.0081948,33.5861034 14.3188056,34.9997629 5.62941644,36.4135873 C3.58722474,25.0343514 1.54503306,13.6552804 -0.497158632,2.27604466" id="Fill-54" fill="#FE7400" mask="url(#mask-23)"></path>
                                </g>
                                <g id="Fill-85-Clipped">
                                    <mask id="mask-25" fill="white">
                                        <use xlink:href="#path-24"></use>
                                    </mask>
                                    <g id="path-22"></g>
                                    <path d="M-77.9958634,24.4852004 C-46.7528329,22.0687445 -15.5757739,19.0552528 15.5348261,15.4442314 C46.1199291,11.8944445 76.6385729,7.76753948 107.09092,3.06401012 C105.485018,-0.35063302 103.879116,-3.76511155 102.273213,-7.1797547 L-10.0104441,-9.0483928 L-54.3462177,3.20540901 L-73.4071067,13.4178982 C-74.9366381,17.1071086 -76.4663321,20.7961546 -77.9958634,24.4852004" id="Fill-85" fill="#FF8825" mask="url(#mask-25)"></path>
                                </g>
                            </g>
                            <g id="Group-81" transform="translate(22.586301, 0.159505)">
                                <path d="M49.1582417,5.81289332 L55.1146881,34.5514347 L61.9948982,33.5702022 L59.3355643,22.3516245 L66.9997954,21.9078395 L70.6201033,33.1308616 L79.0155457,32.3718507 L68.6159347,8.36136542 L63.0597043,3.66063439 L49.1582417,5.81289332 Z M54.3478913,35.6580992 L47.9922034,4.9942942 L63.3471517,2.61701517 L69.4166921,7.75214857 L80.4535944,33.2334127 L69.9342273,34.1843573 L66.3059572,22.9373024 L60.5560371,23.2701412 L63.1935973,34.3967025 L54.3478913,35.6580992 Z" id="Fill-57" fill="#FFFFFF" fill-rule="nonzero"></path>
                                <path d="M58.0609981,11.6814079 L59.1847886,19.0000759 L64.2400581,18.2469911 L60.8629995,11.3502152 L58.0609981,11.6814079 Z M58.3700568,20.119909 L56.9419201,10.8191875 L61.4313945,10.2886536 L65.7101176,19.0262487 L58.3700568,20.119909 Z" id="Fill-59" fill="#FFFFFF" fill-rule="nonzero"></path>
                                <g id="Fill-85" transform="translate(97.657321, 7.572002)">
                                    <g id="Mask" fill="#FF7400">
                                        <polygon id="path-24" points="0.0585618941 0.000625513108 8.87891911 0.000625513108 10.266433 23.3930052 2.13991401 23.3930052"></polygon>
                                    </g>
                                    <g id="Clipped">
                                        <mask id="mask-27" fill="white">
                                            <use xlink:href="#path-26"></use>
                                        </mask>
                                        <g id="path-24"></g>
                                        <path d="M-126.580787,20.0407651 C-95.3377562,17.6243092 -64.1606972,14.6108175 -33.0500971,10.9997962 C-2.46499428,7.45000927 28.0536496,3.32310424 58.5059971,-1.38042513 C56.9000948,-4.79506827 55.2941925,-8.2095468 53.6882902,-11.6241899 L-58.5953674,-13.492828 L-102.931141,-1.23902624 L-121.99203,8.97346291 C-123.521561,12.6626734 -125.051255,16.3517193 -126.580787,20.0407651" id="Path" fill="#FF8825" mask="url(#mask-27)"></path>
                                    </g>
                                </g>
                                <path d="M100.242737,30.4712456 L107.40617,30.4712456 L106.077153,8.06651828 L98.2491305,8.06651828 L100.242737,30.4712456 Z M108.441403,31.4588979 L99.3516346,31.4588979 L97.1825372,7.078866 L106.995392,7.078866 L108.441403,31.4588979 Z" id="Fill-63" fill="#FFFFFF" fill-rule="nonzero"></path>
                                <g id="Fill-85" transform="translate(96.844864, 0.493826)">
                                    <g id="Mask" fill="#FF7400">
                                        <polygon id="path-26" points="0.730886238 5.0224752 9.55124344 5.0224752 9.55124344 0.00256789592 0.0372105265 0.00256789592"></polygon>
                                    </g>
                                    <g id="Clipped">
                                        <mask id="mask-29" fill="white">
                                            <use xlink:href="#path-28"></use>
                                        </mask>
                                        <g id="path-26"></g>
                                        <path d="M-125.76833,27.1189398 C-94.5252993,24.7024839 -63.3482402,21.6889922 -32.2376403,18.0779708 C-1.65253736,14.5281839 28.8661066,10.4012789 59.3184541,5.69774953 C57.7125518,2.28310638 56.1066492,-1.13137215 54.5007469,-4.54601529 L-57.7829104,-6.41465339 L-102.118684,5.83914842 L-121.179573,16.0516376 C-122.709104,19.740848 -124.238798,23.429894 -125.76833,27.1189398" id="Path" fill="#FF8825" mask="url(#mask-29)"></path>
                                    </g>
                                </g>
                                <path d="M97.999755,5.0224752 L105.908698,5.0224752 L105.908698,0.990220173 L97.442572,0.990220173 L97.999755,5.0224752 Z M106.883646,6.01012748 L97.1517124,6.01012748 L96.3217065,0.00256789592 L106.883646,0.00256789592 L106.883646,6.01012748 Z" id="Fill-67" fill="#FFFFFF" fill-rule="nonzero"></path>
                                <polygon id="Fill-69" fill="#FFFFFF" points="99.3215898 45.1260795 108.141785 45.1260795 109.529299 69.9819952 101.402779 69.9819952"></polygon>
                                <polygon id="Fill-71" fill="#FFFFFF" points="98.6535391 42.7987262 107.473896 42.7987262 107.473896 36.0515798 97.9597009 36.0515798"></polygon>
                                <g id="Fill-85" transform="translate(108.706735, 0.658436)">
                                    <g id="Mask" fill="#FF7400">
                                        <path d="M19.2104786,31.6149799 C14.4806795,31.371359 9.75055537,31.1277381 5.02075622,30.8841172 C4.08545583,28.3665916 3.15015543,25.8489013 2.21485502,23.3313756 C1.47763163,15.6072763 0.74024574,7.8830125 0.0030223397,0.158913252 C2.82728505,0.192164211 5.65138527,0.225415171 8.47564799,0.258666131 C8.74018395,8.13897905 9.00488241,16.0194566 9.26958088,23.8997694 C11.0194506,23.4452849 12.7691578,22.9909649 14.51919,22.5366448 C14.9605166,15.3027502 15.4020056,8.06918495 15.8433322,0.835455061 C19.0567618,0.839241062 22.2698664,0.843191672 25.4832959,0.846977671 C23.3921943,11.1030881 21.3014178,21.3588694 19.2104786,31.6149799" id="path-28"></path>
                                    </g>
                                    <g id="Clipped">
                                        <mask id="mask-31" fill="white">
                                            <use xlink:href="#path-30"></use>
                                        </mask>
                                        <g id="path-28"></g>
                                        <path d="M-137.630201,26.954331 C-106.38717,24.5378751 -75.2101112,21.5243834 -44.0995111,17.9133621 C-13.5144083,14.3635752 17.0042357,10.2366702 47.4565831,5.53314081 C45.8506808,2.11849768 44.2447785,-1.29598086 42.6388762,-4.71062399 L-69.6447814,-6.57926212 L-113.980555,5.67453971 L-133.041444,15.8870289 C-134.570975,19.5762393 -136.100669,23.2652852 -137.630201,26.954331" id="Path" fill="#FF8825" mask="url(#mask-31)"></path>
                                    </g>
                                </g>
                                <path d="M114.071176,31.065697 L127.524325,31.7586996 L133.591754,1.9985967 L125.008471,1.98822634 L123.690504,23.5842311 L117.509819,25.1891661 L116.711011,1.40534689 L109.247295,1.31761044 L111.400631,23.8770699 L114.071176,31.065697 Z M128.310134,32.7881627 L113.383838,32.0192752 L110.442581,24.1024193 L108.172252,0.317118686 L117.653624,0.428723393 L118.442845,23.9272756 L122.761215,22.8057965 L124.091857,0.99958641 L134.788178,1.01226128 L128.310134,32.7881627 Z" id="Fill-75" fill="#FFFFFF" fill-rule="nonzero"></path>
                                <path d="M48.0131811,41.0987792 C50.9794613,41.0484089 53.9457414,40.9980385 56.9121841,40.9476683 C56.9339579,46.7079857 56.9560567,52.4684675 56.9781555,58.2289495 C57.7152166,59.9616208 58.4524399,61.6941275 59.1895009,63.4267988 C61.0386528,62.9614501 62.8878046,62.4961012 64.7367942,62.0309169 C63.813843,54.6120023 62.8910545,47.1930876 61.9681036,39.7741728 C64.6873968,39.6940085 67.407015,39.613844 70.1263083,39.5335148 C70.8076346,46.9014008 71.4889611,54.2694515 72.1702874,61.6373375 C70.8552446,65.1281945 69.5402019,68.6192161 68.2254841,72.1102377 C64.5291301,72.3507309 60.8329386,72.5915535 57.1364223,72.8322115 C55.0893557,71.277976 53.0421269,69.7235758 50.9950603,68.1690112 C50.0009381,59.1456554 49.0071409,50.122135 48.0131811,41.0987792" id="Fill-77" fill="#FFFFFF"></path>
                                <polygon id="Fill-79" fill="#FFFFFF" points="20.7998557 49.657642 19.3479951 57.0046228 11.5804196 57.032277 10.6283826 60.4296363 21.7244315 61.6404981 27.6241687 66.4597472 27.6071071 73.7087858 23.7277879 79.4518191 9.66822099 82.7981497 2.73552617 75.7206334 10.5321877 71.4750455 13.7662536 74.8478781 19.0647726 73.156359 18.699817 67.0121741 5.57165076 66.4324223 0.037031786 57.5145807 7.34589416 49.9787938"></polygon>
                            </g>
                            <g id="Group-84" transform="translate(94.245001, 37.525683)">
                                <g id="Fill-82-Clipped">
                                    <mask id="mask-33" fill="white">
                                        <use xlink:href="#path-32"></use>
                                    </mask>
                                    <g id="path-30"></g>
                                    <polygon id="Fill-82" fill="#FFFFFF" mask="url(#mask-33)" points="-1.84611334 0.872541405 23.6310729 -3.14638032 29.0124625 31.8627653 3.53527624 35.8816871"></polygon>
                                </g>
                            </g>
                        </g>
                        <g id="Group-7" transform="translate(109.908083, 6.991705)">
                            <polygon id="Fill-1" fill="#DBEEE1" points="4.92235714 4.01826316 5.55967858 4.3052807 7.11932142 1.75438596e-05"></polygon>
                            <polygon id="Fill-2" fill="#DBEEE1" points="2.72539286 9.87664912 4.92235714 5.8584035 4.28485714 5.57138596"></polygon>
                            <polygon id="Fill-3" fill="#DBEEE1" points="3.91966072 4.67654386 4.25751786 4.07268422 1.78571429e-05 2.23198246"></polygon>
                            <polygon id="Fill-4" fill="#DBEEE1" points="5.72094642 5.65375438 9.97844642 7.49445614 6.058625 5.04989474"></polygon>
                            <path d="M6.22369642,4.8745965 C6.22369642,5.58073684 5.64101786,6.15319298 4.92244642,6.15319298 C4.20351786,6.15319298 3.62101786,5.58073684 3.62101786,4.8745965 C3.62101786,4.16845614 4.20351786,3.596 4.92244642,3.596 C5.64101786,3.596 6.22369642,4.16845614 6.22369642,4.8745965" id="Fill-5" fill="#D8EEDF"></path>
                        </g>
                        <g id="Group-7-Copy-2" transform="translate(43.259588, 28.693734)">
                            <polygon id="Fill-1" fill="#DBEEE1" points="4.92235714 4.01826316 5.55967858 4.3052807 7.11932142 1.75438596e-05"></polygon>
                            <polygon id="Fill-2" fill="#DBEEE1" points="2.72539286 9.87664912 4.92235714 5.8584035 4.28485714 5.57138596"></polygon>
                            <polygon id="Fill-3" fill="#DBEEE1" points="3.91966072 4.67654386 4.25751786 4.07268422 1.78571429e-05 2.23198246"></polygon>
                            <polygon id="Fill-4" fill="#DBEEE1" points="5.72094642 5.65375438 9.97844642 7.49445614 6.058625 5.04989474"></polygon>
                            <path d="M6.22369642,4.8745965 C6.22369642,5.58073684 5.64101786,6.15319298 4.92244642,6.15319298 C4.20351786,6.15319298 3.62101786,5.58073684 3.62101786,4.8745965 C3.62101786,4.16845614 4.20351786,3.596 4.92244642,3.596 C5.64101786,3.596 6.22369642,4.16845614 6.22369642,4.8745965" id="Fill-5" fill="#D8EEDF"></path>
                        </g>
                        <g id="Group-7-Copy" transform="translate(167.327286, 10.996098)">
                            <polygon id="Fill-1" fill="#DBEEE1" points="4.92235714 4.01826316 5.55967858 4.3052807 7.11932142 1.75438596e-05"></polygon>
                            <polygon id="Fill-2" fill="#DBEEE1" points="2.72539286 9.87664912 4.92235714 5.8584035 4.28485714 5.57138596"></polygon>
                            <polygon id="Fill-3" fill="#DBEEE1" points="3.91966072 4.67654386 4.25751786 4.07268422 1.78571429e-05 2.23198246"></polygon>
                            <polygon id="Fill-4" fill="#DBEEE1" points="5.72094642 5.65375438 9.97844642 7.49445614 6.058625 5.04989474"></polygon>
                            <path d="M6.22369642,4.8745965 C6.22369642,5.58073684 5.64101786,6.15319298 4.92244642,6.15319298 C4.20351786,6.15319298 3.62101786,5.58073684 3.62101786,4.8745965 C3.62101786,4.16845614 4.20351786,3.596 4.92244642,3.596 C5.64101786,3.596 6.22369642,4.16845614 6.22369642,4.8745965" id="Fill-5" fill="#D8EEDF"></path>
                        </g>
                    </g>
                </g>
            </g>
        </g>
    </g>
</svg>