<svg width="131" height="131" viewBox="0 0 131 131" fill="none" xmlns="http://www.w3.org/2000/svg">
<path d="M27.9126 96.1143L11.6968 116.964L30.4108 114.625L35.0895 131L51.4645 109.946L51.5394 109.85C48.2972 106.578 44.7461 103.628 40.9379 101.036C36.7643 98.9799 32.4017 97.333 27.9126 96.1143Z" fill="#EB445C"/>
<path d="M103.088 96.1143C98.5985 97.3307 94.2356 98.9753 90.0626 101.027C86.2541 103.616 82.7056 106.568 79.4633 109.841L95.9107 131L100.589 114.625L119.304 116.964L103.088 96.1143Z" fill="#EB445C"/>
<path d="M114.625 58.482C114.625 48.6803 120.733 37.1477 116.153 29.2409C111.43 21.0746 98.2268 20.6583 90.0626 15.9352C82.1488 11.3479 75.3018 0 65.5001 0C55.6983 0 48.8513 11.3502 40.9376 15.9283C32.771 20.6537 19.5705 21.0746 14.8476 29.2342C10.2672 37.148 16.3751 48.6806 16.3751 58.482C16.3751 68.2835 10.2672 79.8164 14.8476 87.7232C19.5705 95.8897 32.7736 96.306 40.9376 101.029C48.8513 105.616 55.6983 116.964 65.5001 116.964C75.3018 116.964 82.1488 105.614 90.0626 101.036C98.2291 96.3106 111.43 95.8897 116.153 87.7301C120.733 79.8164 114.625 68.2837 114.625 58.482Z" fill="#F3EB88"/>
<path d="M65.5 98.2501C87.4632 98.2501 105.268 80.4454 105.268 58.4821C105.268 36.5189 87.4632 18.7141 65.5 18.7141C43.5368 18.7141 25.732 36.5189 25.732 58.4821C25.732 80.4454 43.5368 98.2501 65.5 98.2501Z" fill="#FFDC13"/>
<path d="M88.7102 49.1249H72.6791L67.7244 33.8798C67.3219 32.6517 65.9981 31.9849 64.7723 32.3874C64.0659 32.6189 63.5114 33.1734 63.2799 33.8798L58.3208 49.1249H42.2897C40.9984 49.1249 39.9504 50.1729 39.9504 51.4643C39.9504 52.2129 40.3083 52.917 40.9142 53.3568L53.8832 62.7819L48.9285 78.0294C48.5286 79.2575 49.2022 80.5769 50.4304 80.9769C51.1439 81.2084 51.9228 81.0846 52.5287 80.6447L65.5 71.2194L78.469 80.6419C79.5147 81.4021 80.9766 81.1705 81.7371 80.1248C82.1769 79.519 82.3007 78.7376 82.0692 78.0265L77.1144 62.7791L90.0834 53.354C91.1268 52.5939 91.3561 51.1293 90.5957 50.0859C90.1561 49.4829 89.4566 49.1272 88.7102 49.1249Z" fill="#82BA68"/>
<path d="M116.153 29.2412C116.052 29.0657 115.919 28.916 115.818 28.7499C112.375 35.3046 108.293 41.5015 103.631 47.2537C109.839 68.3073 97.8034 90.4087 76.7497 96.6174C62.9151 100.695 47.9556 96.959 37.6626 86.8533C30.6472 88.2055 23.5192 88.8884 16.3751 88.8933C16.1226 88.8933 15.8769 88.8769 15.6242 88.8746C20.8805 95.9345 33.1687 96.545 40.9376 101.039C48.8513 105.614 55.6984 116.965 65.5001 116.965C75.3018 116.965 82.1489 105.615 90.0626 101.037C98.2291 96.3111 111.43 95.8903 116.153 87.7306C120.733 79.8169 114.625 68.2841 114.625 58.4826C114.625 48.6811 120.733 37.148 116.153 29.2412Z" fill="#E0D97A"/>
<path d="M79.33 69.5914L82.0715 78.0268C82.4714 79.255 81.7978 80.5744 80.5696 80.9743C79.856 81.2059 79.0772 81.0821 78.4713 80.6422L70.6113 74.9297C60.3232 80.6187 49.1997 84.6446 37.6554 86.8601C53.2981 102.255 78.4573 102.054 93.8498 86.4111C103.988 76.1089 107.733 61.114 103.63 47.2538C96.6686 55.8505 88.4811 63.3758 79.33 69.5914Z" fill="#E5AF17"/>
<path d="M82.0717 78.0269L79.3301 69.5915C76.5136 71.5028 73.6083 73.2828 70.6117 74.9297L78.4717 80.6423C79.5174 81.4025 80.9794 81.1709 81.7398 80.1252C82.1794 79.5194 82.3032 78.7405 82.0717 78.0269Z" fill="#82BA68"/>
<path d="M99.4196 109.946C105.483 109.951 111.472 111.31 116.943 113.923L103.088 96.1095C98.5985 97.3259 94.2356 98.9705 90.0625 101.022C86.2541 103.612 82.7055 106.564 79.4633 109.836L82.4318 113.656C87.7606 111.21 93.555 109.944 99.4196 109.946Z" fill="#BF384B"/>
<path d="M40.9375 101.036C36.7642 98.9846 32.4016 97.34 27.9125 96.1236L27.1897 97.0593C35.0848 102.76 39.7634 111.904 39.768 121.643C39.7634 122.864 39.6838 124.08 39.5342 125.292L51.4646 109.946L51.5396 109.85C48.2968 106.578 44.746 103.628 40.9375 101.036Z" fill="#BF384B"/>
</svg>
