<svg width="132" height="131" viewBox="0 0 132 131" fill="none" xmlns="http://www.w3.org/2000/svg">
<g clip-path="url(#clip0)">
<path d="M36.4153 29.0349C36.2324 30.4331 36.1394 31.8213 36.1394 33.1866C36.1394 51.4855 51.0272 66.3723 69.3262 66.3723C87.6251 66.3723 102.513 51.4855 102.513 33.1866C102.513 31.8213 102.42 30.4331 102.237 29.0349C107.743 26.7391 111.543 21.3161 111.543 15.1255C111.543 6.78509 104.758 -0.000183105 96.4173 -0.000183105C92.4125 -0.000183105 88.6056 1.62692 85.8081 4.40839C80.7929 1.51398 75.162 -0.000183105 69.3262 -0.000183105C63.4904 -0.000183105 57.8595 1.51398 52.8442 4.40839C50.0468 1.62692 46.2399 -0.000183105 42.2351 -0.000183105C33.8946 -0.000183105 27.1094 6.78509 27.1094 15.1255C27.1094 21.3161 30.9093 26.7391 36.4153 29.0349ZM80.8398 25.5858C82.9597 25.5858 84.6777 27.3038 84.6777 29.4236C84.6777 31.5435 82.9597 33.2615 80.8398 33.2615C78.72 33.2615 77.002 31.5435 77.002 29.4236C77.002 27.3038 78.72 25.5858 80.8398 25.5858ZM74.4434 38.3787C76.5632 38.3787 78.2812 40.0968 78.2812 42.2166C78.2812 44.3364 76.5632 46.0545 74.4434 46.0545H73.1641V52.451C73.1641 54.5708 71.446 56.2889 69.3262 56.2889C67.2063 56.2889 65.4883 54.5708 65.4883 52.451V46.0545H64.209C62.0891 46.0545 60.3711 44.3364 60.3711 42.2166C60.3711 40.0968 62.0891 38.3787 64.209 38.3787H74.4434ZM57.8125 25.5858C59.9323 25.5858 61.6504 27.3038 61.6504 29.4236C61.6504 31.5435 59.9323 33.2615 57.8125 33.2615C55.6927 33.2615 53.9746 31.5435 53.9746 29.4236C53.9746 27.3038 55.6927 25.5858 57.8125 25.5858Z" fill="#FFDC13"/>
<path opacity="0.05" d="M69.3262 66.3723C58.4064 66.4887 51.1553 60.9225 49.5039 59.7812C81.4411 61.437 88.7507 51.7852 102.237 29.0348C102.42 30.4331 102.513 31.8213 102.513 33.1866C102.513 51.4855 87.6251 66.3723 69.3262 66.3723Z" fill="black"/>
<path d="M116.128 54.5099L104.764 53.5154C97.7016 65.7767 84.4619 74.0481 69.3262 74.0481C54.1905 74.0481 40.9508 65.7767 33.8886 53.5154L22.5239 54.5099C21.9932 54.5568 21.4745 54.6418 20.9688 54.7567V50.5121C25.4363 48.9269 28.6445 44.6613 28.6445 39.658C28.6445 33.3095 23.4794 28.1443 17.1309 28.1443C10.7823 28.1443 5.61719 33.3095 5.61719 39.658C5.61719 44.6613 8.82542 48.9269 13.293 50.5121V60.7194C12.3285 62.5874 11.8618 64.7392 12.0576 66.984C12.5824 72.9687 17.6196 77.4952 23.5193 77.4942C23.8542 77.4942 24.192 77.4802 24.5318 77.4502L33.4779 76.6677C32.6533 79.8329 32.2266 82.9672 32.2266 85.9366C32.2266 89.6625 32.9002 93.0667 34.2145 96.098L26.3878 103.925C21.8992 108.414 21.8992 115.718 26.3878 120.208C28.5626 122.383 31.454 123.58 34.5293 123.58C37.6046 123.58 40.496 122.383 42.6708 120.208L52.5524 110.326C56.3793 111.377 60.6959 112.018 65.4883 112.236V85.4568C65.4883 83.337 67.2063 81.619 69.3262 81.619C71.446 81.619 73.1641 83.337 73.1641 85.4568V112.236C74.9351 112.155 76.6402 112.015 78.2812 111.819V119.486C78.2812 125.835 83.4464 131 89.7949 131C96.1434 131 101.309 125.835 101.309 119.486V101.23C104.678 97.1134 106.426 91.9413 106.426 85.9366C106.426 82.9672 105.999 79.8329 105.174 76.6667L114.121 77.4502C120.447 78.0049 126.041 73.3085 126.595 66.984C127.147 60.6585 122.453 55.0636 116.128 54.5099Z" fill="#FFDC13"/>
<path opacity="0.2" d="M73.1641 112.236C92.7173 94.1377 103.444 83.0945 116.128 54.5099C122.453 55.0636 127.147 60.6585 126.595 66.984C126.041 73.3085 120.447 78.0049 114.121 77.4502L105.174 76.6667C105.999 79.8329 106.426 82.9672 106.426 85.9366C106.426 91.9413 104.678 97.1134 101.309 101.23V119.486C101.309 125.835 96.1434 131 89.7949 131C83.4464 131 78.2812 125.835 78.2812 119.486V111.819C76.6402 112.015 74.9351 112.155 73.1641 112.236Z" fill="#C4C4C4"/>
</g>
<defs>
<clipPath id="clip0">
<rect width="131" height="131" fill="white" transform="translate(0.5 -0.000183105)"/>
</clipPath>
</defs>
</svg>
