<svg width="138" height="137" viewBox="0 0 138 137" fill="none" xmlns="http://www.w3.org/2000/svg">
<g clip-path="url(#clip0)">
<path d="M47.1683 137C46.0592 137 45.1601 136.101 45.1601 134.992C45.1601 129.428 42.8667 126.767 40.2107 123.684C37.4343 120.462 34.2876 116.81 34.2876 109.755C34.2876 102.7 37.4346 99.0481 40.2107 95.826C42.8664 92.7437 45.1601 90.0816 45.1601 84.5184C45.1601 83.4093 46.0592 82.5102 47.1683 82.5102C48.2774 82.5102 49.1764 83.4093 49.1764 84.5184C49.1764 91.5733 46.0295 95.2255 43.2531 98.4477C40.5974 101.53 38.3039 104.192 38.3039 109.755C38.3039 115.318 40.5974 117.98 43.2531 121.062C46.0297 124.284 49.1764 127.937 49.1764 134.992C49.1764 136.101 48.2774 137 47.1683 137Z" fill="#A06047"/>
<path d="M83.1471 136.954C82.3818 136.954 81.6505 136.514 81.3153 135.772C80.1981 133.295 79.6547 130.575 79.6547 127.454C79.6547 120.474 82.3896 116.837 84.8029 113.628C87.1324 110.531 89.1443 107.855 89.1443 102.217C89.1443 101.108 90.0434 100.209 91.1525 100.209C92.2616 100.209 93.1607 101.108 93.1607 102.217C93.1607 109.197 90.4258 112.834 88.0125 116.043C85.6829 119.14 83.671 121.816 83.671 127.454C83.671 130.029 84.0855 132.147 84.9763 134.12C85.4325 135.131 84.9827 136.32 83.9715 136.776C83.7037 136.897 83.423 136.954 83.1471 136.954Z" fill="#A06047"/>
<path d="M83.796 62.064C98.5123 62.064 110.442 48.1705 110.442 31.0319C110.442 13.8934 98.5123 -0.000183105 83.796 -0.000183105C69.0797 -0.000183105 57.1497 13.8934 57.1497 31.0319C57.1497 48.1705 69.0797 62.064 83.796 62.064Z" fill="#FFDC13"/>
<path d="M110.443 31.0309C110.443 48.1692 98.512 62.0616 83.796 62.0616C81.898 62.0616 80.0477 61.8315 78.2635 61.3927C90.3273 58.4271 99.3803 45.9601 99.3803 31.0306C99.3803 16.1011 90.3273 3.6346 78.2635 0.66903C80.048 0.230202 81.8983 -0.000183105 83.7962 -0.000183105C98.5125 -0.000183105 110.443 13.8927 110.443 31.0309Z" fill="#ECCC14"/>
<path d="M50.5959 82.8827L48.8513 79.4052H46.5946H44.3384L42.5937 82.8827C42.198 83.6715 42.7714 84.6008 43.6542 84.6008H49.5361C50.4183 84.6008 50.9917 83.6715 50.5959 82.8827Z" fill="#CE1D4C"/>
<path d="M95.2721 100.581L93.5275 97.1034H91.2708H89.0146L87.27 100.581C86.8742 101.37 87.4476 102.299 88.3304 102.299H94.2123C95.0942 102.299 95.6679 101.37 95.2721 100.581Z" fill="#F7D443"/>
<path d="M46.5943 79.4053C61.3106 79.4053 73.2405 65.5117 73.2405 48.3731C73.2405 31.2346 61.3106 17.341 46.5943 17.341C31.878 17.341 19.9481 31.2346 19.9481 48.3731C19.9481 65.5117 31.878 79.4053 46.5943 79.4053Z" fill="#8A568A"/>
<path d="M73.2408 48.3737C73.2408 65.5121 61.31 79.4044 46.5938 79.4044C44.6959 79.4044 42.8456 79.1743 41.0613 78.7355C53.1251 75.7699 62.1781 63.3029 62.1781 48.3734C62.1781 33.4439 53.1248 20.9769 41.0613 18.0113C42.8456 17.5725 44.6959 17.3424 46.5938 17.3424C61.31 17.3424 73.2408 31.2353 73.2408 48.3737Z" fill="#633963"/>
<path d="M91.2724 97.105C105.989 97.105 117.919 83.2114 117.919 66.0729C117.919 48.9343 105.989 35.0408 91.2724 35.0408C76.556 35.0408 64.6261 48.9343 64.6261 66.0729C64.6261 83.2114 76.556 97.105 91.2724 97.105Z" fill="#82BA68"/>
<path d="M117.916 66.0715C117.916 83.2099 105.988 97.1023 91.2716 97.1023C89.2455 97.1023 87.2715 96.8387 85.3739 96.3408C97.2549 93.2138 106.125 80.8491 106.125 66.0715C106.125 51.294 97.2549 38.9289 85.3739 35.8044C87.2718 35.3041 89.2457 35.0405 91.2716 35.0405C105.988 35.0405 117.916 48.9334 117.916 66.0715Z" fill="#6B9B54"/>
</g>
<defs>
<clipPath id="clip0">
<rect width="137" height="137" fill="white" transform="translate(0.43335 -0.000183105)"/>
</clipPath>
</defs>
</svg>
