<svg width="132" height="131" viewBox="0 0 132 131" fill="none" xmlns="http://www.w3.org/2000/svg">
<g clip-path="url(#clip0)">
<path d="M68.5719 10.2095H62.851V38.242H68.5719V10.2095Z" fill="#59595A"/>
<path opacity="0.4" d="M68.5719 10.2095H65.7114V38.242H68.5719V10.2095Z" fill="#5B5B5F"/>
<path d="M65.7114 127.119C65.7114 127.119 53.2275 141.093 26.957 116.009C1.21512 91.4298 -5.0081 28.5509 37.6886 27.1326C60.0237 26.3907 65.7114 38.2423 65.7114 38.2423C65.7114 38.2423 71.3992 26.3907 93.7342 27.1326C136.431 28.5509 130.208 91.4298 104.466 116.009C78.1953 141.093 65.7114 127.119 65.7114 127.119Z" fill="#EB445C"/>
<path d="M91.2737 20.1043C83.817 27.537 71.1166 26.9285 71.1166 26.9285C71.1166 26.9285 70.5061 14.2692 77.9628 6.83619C85.4194 -0.596779 98.1199 0.0119668 98.1199 0.0119668C98.1199 0.0119668 98.7303 12.6716 91.2737 20.1043Z" fill="#ABCB57"/>
<path opacity="0.3" d="M98.1199 0.0119629L71.1166 26.9285C71.1166 26.9285 83.8167 27.5369 91.2737 20.104C98.7306 12.671 98.1199 0.0119629 98.1199 0.0119629Z" fill="#5B5B5F"/>
<path opacity="0.3" d="M93.7342 27.1326C71.3992 26.3907 65.7114 38.2423 65.7114 38.2423C72.4362 73.3081 71.3496 92.7526 65.7114 127.119C65.7114 127.119 78.1953 141.093 104.466 116.009C130.208 91.4298 136.431 28.5509 93.7342 27.1326Z" fill="#2F2F2F"/>
</g>
<defs>
<clipPath id="clip0">
<rect width="131.423" height="131" fill="white"/>
</clipPath>
</defs>
</svg>
