<svg width="135" height="128" viewBox="0 0 135 128" fill="none" xmlns="http://www.w3.org/2000/svg">
<path d="M7.30409 2.36061H120.614C123.221 2.36061 125.335 4.47452 125.335 7.08188V120.392C125.335 122.999 123.221 125.113 120.614 125.113H7.30409C4.69673 125.113 2.58282 122.999 2.58282 120.392V7.08188C2.58282 4.47425 4.69646 2.36061 7.30409 2.36061Z" fill="#82BA68"/>
<path d="M124.975 120.031L125.336 6.99609C95.8094 83.6216 63.5825 92.6743 1.46104 108.407C1.46104 111.014 4.33614 124.752 6.9435 124.752H120.253C122.861 124.752 124.975 122.638 124.975 120.031Z" fill="#679B4F"/>
<path d="M132.417 8.17924C131.113 8.17924 130.057 9.23606 130.057 10.5399V19.9824H75.7622C74.4584 19.9824 73.4016 21.0392 73.4016 22.343V89.7038H28.5498V63.7368C28.5498 62.433 27.493 61.3762 26.1892 61.3762H2.58286C1.27905 61.3762 0.222229 62.433 0.222229 63.7368C0.222229 65.0406 1.27905 66.0974 2.58286 66.0974H23.8286V92.0644C23.8286 93.3682 24.8854 94.425 26.1892 94.425H75.7622C77.066 94.425 78.1229 93.3682 78.1229 92.0644V24.7034H132.417C133.721 24.7034 134.778 23.6466 134.778 22.3428V10.5396C134.778 9.23606 133.721 8.17924 132.417 8.17924Z" fill="#EB445C"/>
<path d="M2.58286 56.6549H21.4679C22.7717 56.6549 23.8286 55.5981 23.8286 54.2943V35.4092H61.5984V44.8518H35.6315C34.3276 44.8518 33.2708 45.9086 33.2708 47.2124V77.9006C33.2708 79.2044 34.3276 80.2613 35.6315 80.2613H63.959C65.2629 80.2613 66.3197 79.2044 66.3197 77.9006C66.3197 76.5968 65.2629 75.54 63.959 75.54H37.9921V49.573H45.074V63.7368C45.074 65.0406 46.1308 66.0975 47.4346 66.0975H63.959C65.2629 66.0975 66.3197 65.0406 66.3197 63.7368C66.3197 62.433 65.2629 61.3762 63.959 61.3762H49.7953V49.573H63.959C65.2629 49.573 66.3197 48.5162 66.3197 47.2124V33.0486C66.3197 31.7448 65.2629 30.688 63.959 30.688H37.9921V16.5242C37.9921 15.2203 36.9353 14.1635 35.6315 14.1635C34.3276 14.1635 33.2708 15.2203 33.2708 16.5242V30.688H21.4677C20.1638 30.688 19.107 31.7448 19.107 33.0486V51.9337H4.9435V7.0819C4.9435 5.77808 6.00031 4.72127 7.30413 4.72127H82.8441V11.8032H49.7953C48.4914 11.8032 47.4346 12.86 47.4346 14.1638C47.4346 15.4676 48.4914 16.5244 49.7953 16.5244H85.2045C86.5083 16.5244 87.5651 15.4676 87.5651 14.1638V4.72127H119.314C120.618 4.72127 121.674 3.66445 121.674 2.36063C121.674 1.05682 120.618 0 119.314 0H7.30413C3.39295 0 0.222229 3.17072 0.222229 7.0819V54.2943C0.222229 55.5981 1.27905 56.6549 2.58286 56.6549Z" fill="#7D4D7C"/>
<path d="M125.335 30.7848C124.031 30.7848 122.975 31.8416 122.975 33.1454V54.2943H101.729V37.7698C101.729 36.466 100.672 35.4092 99.3683 35.4092C98.0645 35.4092 97.0077 36.466 97.0077 37.7698V54.2943H85.2045C83.9007 54.2943 82.8438 55.3511 82.8438 56.6549C82.8438 57.9587 83.9007 59.0155 85.2045 59.0155H122.974V96.7854H101.729C100.425 96.7854 99.368 97.8422 99.368 99.146V122.752H54.5165V106.228H85.2048C86.5086 106.228 87.5654 105.171 87.5654 103.867V84.9822H113.532C114.836 84.9822 115.893 83.9254 115.893 82.6216C115.893 81.3178 114.836 80.261 113.532 80.261H85.2048C83.9009 80.261 82.8441 81.3178 82.8441 82.6216V101.507H19.1073V73.1793C19.1073 71.8755 18.0505 70.8187 16.7467 70.8187H2.58286C1.27905 70.8187 0.222229 71.8755 0.222229 73.1793V120.392C0.222229 124.303 3.39295 127.474 7.30413 127.474H120.614C124.525 127.474 127.696 124.303 127.696 120.392V33.1454C127.696 31.8419 126.639 30.7848 125.335 30.7848ZM4.9435 120.392V75.54H14.386V103.867C14.386 105.171 15.4428 106.228 16.7467 106.228H49.7955V122.752H7.30413C6.00031 122.752 4.9435 121.696 4.9435 120.392ZM120.614 122.752H104.09V101.507H122.975V120.392C122.975 121.696 121.918 122.752 120.614 122.752Z" fill="#7D4D7C"/>
</svg>
