<svg width="136" height="131" viewBox="0 0 136 131" fill="none" xmlns="http://www.w3.org/2000/svg">
<path d="M136 100.433V131H0V100.433H22.6667V69.8667H45.3333V39.3H90.6667V69.8667H113.333V100.433H136Z" fill="#679B4F"/>
<path d="M0 101.955C11.6299 113.066 28.6366 120.083 47.6 120.083C81.3466 120.083 108.927 97.8833 110.937 69.8667H90.6667V39.3H45.3333V69.8667H22.6667V100.433H0V101.955Z" fill="#82BA68"/>
<path d="M58.9333 106.983V126.633L68 117.9L77.0667 126.633V106.983" fill="#EB445C"/>
<path d="M88.4 89.5167C88.4 100.369 79.2669 109.167 68 109.167C56.7331 109.167 47.6 100.369 47.6 89.5167C47.6 78.664 56.7331 69.8667 68 69.8667C79.2669 69.8667 88.4 78.664 88.4 89.5167Z" fill="#F5B953"/>
<path d="M79.3333 89.5167C79.3333 95.5453 74.2588 100.433 68 100.433C61.7412 100.433 56.6667 95.5453 56.6667 89.5167C56.6667 83.488 61.7412 78.6 68 78.6C74.2588 78.6 79.3333 83.488 79.3333 89.5167Z" fill="#F9D18B"/>
<path d="M43.0667 17.4667H70.2666V0H43.0667L52.1333 8.73333L43.0667 17.4667Z" fill="#EB445C"/>
<path d="M65.7333 17.4667H70.2667V39.3H65.7333V17.4667Z" fill="#A8B0BC"/>
</svg>
