<?xml version="1.0" encoding="UTF-8"?> <svg xmlns="http://www.w3.org/2000/svg" width="297" height="377" viewBox="0 0 297 377" fill="none"> <mask id="mask0" maskUnits="userSpaceOnUse" x="-283" y="-219" width="827" height="827"> <g clip-path="url(#clip0)"> <path d="M130.265 -219L-283 194.266L-282.656 194.61L130.61 -218.656L130.265 -219Z" fill="#747474"></path> <path d="M143.697 -205.569L-269.569 207.697L-268.88 208.385L144.385 -204.88L143.697 -205.569Z" fill="#747474"></path> <path d="M157.472 -191.793L-255.793 221.472L-255.104 222.161L158.161 -191.105L157.472 -191.793Z" fill="#747474"></path> <path d="M171.248 -178.018L-242.018 235.248L-241.329 235.936L171.936 -177.329L171.248 -178.018Z" fill="#747474"></path> <path d="M185.023 -164.242L-228.242 249.023L-227.553 249.712L185.712 -163.554L185.023 -164.242Z" fill="#747474"></path> <path d="M198.799 -150.467L-214.467 262.799L-213.778 263.487L199.487 -149.778L198.799 -150.467Z" fill="#747474"></path> <path d="M212.574 -136.691L-200.691 276.574L-200.002 277.263L213.263 -136.002L212.574 -136.691Z" fill="#747474"></path> <path d="M226.35 -122.916L-186.916 290.35L-186.227 291.039L227.038 -122.227L226.35 -122.916Z" fill="#747474"></path> <path d="M240.125 -109.14L-173.14 304.125L-172.451 304.814L240.814 -108.452L240.125 -109.14Z" fill="#747474"></path> <path d="M253.901 -95.3647L-159.365 317.901L-158.676 318.59L254.59 -94.676L253.901 -95.3647Z" fill="#747474"></path> <path d="M267.676 -81.5892L-145.589 331.676L-144.9 332.365L268.365 -80.9005L267.676 -81.5892Z" fill="#747474"></path> <path d="M281.452 -67.8137L-131.813 345.452L-131.125 346.141L282.141 -67.1249L281.452 -67.8137Z" fill="#747474"></path> <path d="M295.227 -54.0382L-118.038 359.227L-117.349 359.916L295.916 -53.3495L295.227 -54.0382Z" fill="#747474"></path> <path d="M309.003 -40.2627L-104.263 373.003L-103.574 373.692L309.692 -39.5739L309.003 -40.2627Z" fill="#747474"></path> <path d="M322.778 -26.4871L-90.4871 386.778L-89.7983 387.467L323.467 -25.7983L322.778 -26.4871Z" fill="#747474"></path> <path d="M336.554 -12.7116L-76.7117 400.554L-76.0229 401.243L337.243 -12.0228L336.554 -12.7116Z" fill="#747474"></path> <path d="M350.329 1.06379L-62.9363 414.329L-62.2475 415.018L351.018 1.7526L350.329 1.06379Z" fill="#747474"></path> <path d="M364.105 14.8394L-49.1604 428.105L-48.4716 428.794L364.794 15.5282L364.105 14.8394Z" fill="#747474"></path> <path d="M377.88 28.6149L-35.385 441.88L-34.6962 442.569L378.569 29.3036L377.88 28.6149Z" fill="#747474"></path> <path d="M391.656 42.3904L-21.6094 455.656L-20.9206 456.345L392.345 43.0791L391.656 42.3904Z" fill="#747474"></path> <path d="M405.432 56.1659L-7.83398 469.431L-7.14528 470.12L406.12 56.8546L405.432 56.1659Z" fill="#747474"></path> <path d="M419.207 69.9414L5.94141 483.207L6.63017 483.896L419.896 70.6302L419.207 69.9414Z" fill="#747474"></path> <path d="M432.982 83.717L19.7168 496.982L20.4056 497.671L433.671 84.4058L432.982 83.717Z" fill="#747474"></path> <path d="M446.758 97.4924L33.4927 510.758L34.1815 511.447L447.447 98.1813L446.758 97.4924Z" fill="#747474"></path> <path d="M460.534 111.268L47.2681 524.533L47.9569 525.222L461.222 111.957L460.534 111.268Z" fill="#747474"></path> <path d="M474.309 125.044L61.0439 538.309L61.7327 538.998L474.998 125.732L474.309 125.044Z" fill="#747474"></path> <path d="M488.085 138.819L74.8193 552.084L75.5081 552.773L488.774 139.508L488.085 138.819Z" fill="#747474"></path> <path d="M501.86 152.594L88.5947 565.86L89.2835 566.549L502.549 153.283L501.86 152.594Z" fill="#747474"></path> <path d="M515.636 166.37L102.37 579.635L103.059 580.324L516.324 167.059L515.636 166.37Z" fill="#747474"></path> <path d="M529.411 180.146L116.146 593.411L116.834 594.1L530.1 180.834L529.411 180.146Z" fill="#747474"></path> <path d="M543.187 193.921L129.921 607.187L130.266 607.531L543.531 194.266L543.187 193.921Z" fill="#747474"></path> <path d="M136.809 -212.457L-276.457 200.809L-275.768 201.498L137.498 -211.768L136.809 -212.457Z" fill="#747474"></path> <path d="M150.584 -198.681L-262.681 214.584L-261.992 215.273L151.273 -197.992L150.584 -198.681Z" fill="#747474"></path> <path d="M164.36 -184.906L-248.906 228.36L-248.217 229.049L165.049 -184.217L164.36 -184.906Z" fill="#747474"></path> <path d="M178.136 -171.13L-235.13 242.135L-234.441 242.824L178.824 -170.441L178.136 -171.13Z" fill="#747474"></path> <path d="M191.911 -157.355L-221.354 255.911L-220.666 256.6L192.6 -156.666L191.911 -157.355Z" fill="#747474"></path> <path d="M205.687 -143.579L-207.579 269.686L-206.89 270.375L206.375 -142.89L205.687 -143.579Z" fill="#747474"></path> <path d="M219.462 -129.804L-193.803 283.462L-193.115 284.151L220.151 -129.115L219.462 -129.804Z" fill="#747474"></path> <path d="M233.238 -116.028L-180.028 297.237L-179.339 297.926L233.927 -115.339L233.238 -116.028Z" fill="#747474"></path> <path d="M247.013 -102.253L-166.252 311.013L-165.564 311.702L247.702 -101.564L247.013 -102.253Z" fill="#747474"></path> <path d="M260.789 -88.477L-152.477 324.789L-151.788 325.477L261.477 -87.7882L260.789 -88.477Z" fill="#747474"></path> <path d="M274.564 -74.7015L-138.701 338.564L-138.013 339.253L275.253 -74.0127L274.564 -74.7015Z" fill="#747474"></path> <path d="M288.34 -60.926L-124.926 352.34L-124.237 353.028L289.028 -60.2372L288.34 -60.926Z" fill="#747474"></path> <path d="M302.115 -47.1504L-111.15 366.115L-110.462 366.804L302.804 -46.4617L302.115 -47.1504Z" fill="#747474"></path> <path d="M315.89 -33.375L-97.375 379.891L-96.6862 380.579L316.579 -32.6862L315.89 -33.375Z" fill="#747474"></path> <path d="M329.666 -19.5994L-83.5994 393.666L-82.9106 394.355L330.355 -18.9107L329.666 -19.5994Z" fill="#747474"></path> <path d="M343.442 -5.82391L-69.824 407.442L-69.1352 408.13L344.13 -5.13512L343.442 -5.82391Z" fill="#747474"></path> <path d="M357.217 7.95162L-56.0483 421.217L-55.3596 421.906L357.906 8.64039L357.217 7.95162Z" fill="#747474"></path> <path d="M370.993 21.7272L-42.2727 434.993L-41.5839 435.681L371.682 22.416L370.993 21.7272Z" fill="#747474"></path> <path d="M384.768 35.5027L-28.4971 448.768L-27.8083 449.457L385.457 36.1915L384.768 35.5027Z" fill="#747474"></path> <path d="M398.544 49.2782L-14.7217 462.544L-14.0329 463.233L399.233 49.967L398.544 49.2782Z" fill="#747474"></path> <path d="M412.319 63.0537L-0.946289 476.319L-0.257525 477.008L413.008 63.7425L412.319 63.0537Z" fill="#747474"></path> <path d="M426.095 76.8294L12.8293 490.095L13.5181 490.784L426.784 77.5181L426.095 76.8294Z" fill="#747474"></path> <path d="M439.87 90.6047L26.605 503.87L27.2937 504.559L440.559 91.2934L439.87 90.6047Z" fill="#747474"></path> <path d="M453.646 104.38L40.3804 517.646L41.0692 518.334L454.335 105.069L453.646 104.38Z" fill="#747474"></path> <path d="M467.421 118.156L54.1558 531.421L54.8445 532.11L468.11 118.845L467.421 118.156Z" fill="#747474"></path> <path d="M481.197 131.931L67.9316 545.197L68.6204 545.886L481.886 132.62L481.197 131.931Z" fill="#747474"></path> <path d="M494.973 145.707L81.707 558.972L82.3958 559.661L495.661 146.396L494.973 145.707Z" fill="#747474"></path> <path d="M508.748 159.482L95.4824 572.748L96.1711 573.437L509.437 160.171L508.748 159.482Z" fill="#747474"></path> <path d="M522.523 173.258L109.258 586.523L109.947 587.212L523.212 173.947L522.523 173.258Z" fill="#747474"></path> <path d="M536.299 187.033L123.033 600.299L123.722 600.988L536.988 187.722L536.299 187.033Z" fill="#747474"></path> </g> </mask> <g mask="url(#mask0)"> <rect x="15" width="282" height="377" fill="#C4C4C4"></rect> </g> <defs> <clipPath id="clip0"> <rect x="-283" y="194.266" width="584.446" height="584.446" transform="rotate(-45 -283 194.266)" fill="white"></rect> </clipPath> </defs> </svg> 