<svg version="1" xmlns="http://www.w3.org/2000/svg" width="580" height="580" viewBox="0 0 435.000000 435.000000"><path d="M262.8.5c-.2.2-2.3.5-4.8.8-11.1 1.5-20.4 4.4-32.5 10.3-22.1 10.8-38.6 26.7-50.7 48.9-4.8 8.9-11.3 29.3-12.4 39-.3 2.2-.7 4.7-.9 5.5-1 3.8-1.9 18.9-1.9 33.2l-.1 15.8H105v22h4.3c2.3 0 14.5.2 27.1.3l23 .2-.1 97c0 111.7-.2 118.3-4.6 128.7-2.3 5.3-10 13.2-16 16.1-7.4 3.6-12.6 4.6-22.9 4.7H107v11h167v-10.8l-17.7-.4c-16-.4-18.4-.7-23.3-2.8-15.4-6.7-20.9-17.1-22.5-42.5-.5-8.3-.8-94.4-.5-180.8V176h26.8c14.7.1 30.9.1 36 0h9.2v-22h-72.7l.3-2.8c.2-1.5.6-18.9.8-38.7.3-19.8.7-37.8 1-40 .3-2.2.8-6.7 1.1-10 2.4-25.4 17.1-40.3 39.6-40.3 16.5 0 26.7 7.1 42.6 29.5 12.2 17.2 20.7 24.1 31.3 25.1 8.9.8 20.7-7 24.6-16.4 4.5-10.8.6-24-10.2-34.7C328 13.7 308.2 3.8 291 1.2c-5.6-.9-27.4-1.4-28.2-.7z"/></svg>