<svg version="1" xmlns="http://www.w3.org/2000/svg" width="2038.667" height="2038.667" viewBox="0 0 1529.000000 1529.000000"><path d="M691.5 184.4c-.5.2-8.4.9-17.5 1.6-84.1 5.8-174.9 37-252.8 86.8-37.3 23.8-68.4 49.4-101.7 83.3C265.5 411.2 225 473 195.3 546c-10.1 24.8-26.9 78.8-25 80.6.3.3 14.2-9.3 30.9-21.3 16.7-12.1 67-48.5 111.8-80.9 100.8-72.9 123.5-88.1 163.5-110.1 111.7-61.4 225.5-79.9 329.2-53.4 22.3 5.7 54.2 18.1 80.4 31.2 54.5 27.2 101.2 62.6 155.1 117.8 31.5 32.1 52.3 57.7 90.6 111.2 1.1 1.6-.5 3.1-14.5 14.2-74.9 58.9-120.2 88.5-152.2 99.5-10 3.4-11.4 3.6-23.1 3.6-10.8 0-13.3-.3-18.3-2.3-10.6-4.2-22.6-13.4-45.2-34.6-31-29.2-49.4-43.7-74-58.6-15.9-9.5-41.5-22.3-59.5-29.6l-14.5-5.8H709c-18.5.1-23 .4-32 2.3-16.1 3.5-35.9 10.5-52.9 18.8-26.8 13-33.9 17.6-101.7 66.5-141.8 102.3-191.7 135.5-241.9 161-42 21.2-68.5 29.2-97.9 29.3l-14.9.1-1.3-5.5c-.7-3-1.5-6.9-1.8-8.5-1.3-7.3-2.5-14.3-3.1-17.5-.3-1.9-.8-4.9-1-6.5-.5-4.7-1.5-12.7-2-16-.2-1.7-.7-5.9-1.1-9.5-.3-3.6-.7-8.1-1-10-2.4-21-2.3-77.3.1-101.5.2-2.2.7-6.7 1-10 .3-3.3 1-9.2 1.6-13 .5-3.9 1.2-8.9 1.5-11.1.3-2.3.7-5.3.9-6.5.3-1.3.8-3.8 1-5.4 1.7-9.2 5.6-28.5 6.5-31.4.5-1.9.8-3.6.6-3.9-.4-.3-5.5 2.6-6.6 3.8-.3.3-7.7 5.7-16.5 12s-16.4 11.8-17 12.3c-1.3 1.1-29.3 21.3-32.5 23.5-1.4.9-5.3 3.7-8.6 6.2-3.4 2.5-9.7 7.1-14 10.2-4.4 3.1-18.2 13.2-30.9 22.3-12.6 9.1-23.7 17.2-24.5 17.8-.9.7-3.8 2.8-6.5 4.7-5.6 3.8-5.8 4-9.9 7.3l-2.9 2.4 10 12.9c30.7 39.5 56.7 67.8 78.3 85.2 3.6 2.9 7.1 5.7 7.8 6.3 4.8 4 21.4 14.3 28.9 17.9 13 6.3 29.5 11.4 39.7 12.5 1.7.1 2.7 3.2 7.2 20.8 16.1 63 41.8 121.3 77.1 175.2 92.7 141.3 242.1 235.5 408.3 257.4 27.4 3.6 41.8 4.5 74 4.5 32 0 48.2-.9 75.9-4.5 100.9-13 197.7-53.3 278.1-115.9 34.7-27 68.1-59.9 95.6-94 38.7-48 69.9-102.8 92-161.2 2.6-7 4.5-13.1 4.1-13.4-.3-.3-32 22.3-70.4 50.2-38.4 28-79.3 57.2-90.8 64.9-98.1 65.6-180.1 96.7-273.5 103.5-35.5 2.6-72.1-.3-109.3-8.6-26.8-6-57.7-17.2-87.4-31.8-54.9-27-97.9-59.1-152.3-113.5-33.5-33.5-58-62.9-88.3-105.6-3.1-4.4-6.6-9.2-7.7-10.7l-2.1-2.7 14.3-11.3c97.8-77.8 151-106.5 184.9-99.9 15.6 3.1 23.8 9 53.4 38.1 31.3 30.7 43.2 40.6 64.4 53.4 22.5 13.6 49.2 24.8 78.6 32.9 7.1 1.9 10.4 2.2 29 2.1 18 0 22.5-.3 31.5-2.2 29.9-6.5 63-21.5 96-43.5 5.8-3.9 35-24.8 65-46.6 163.2-118.3 209-148.7 256-170.1 10.5-4.8 26-11 27.5-11 1 0 7.4 30.4 8 38 .1 1.4.5 4.7.9 7.5.4 2.7.9 6.8 1.1 9 .2 2.2.7 6.5 1.1 9.5 1.9 15.9 2.8 34.7 2.8 59 0 20.9-.9 47.9-1.9 52.5-.2 1.1-.7 4.9-1 8.5-.5 5.8-1.4 12.6-3.1 24.2-.2 2.1-.7 5-.9 6.5-1.6 11.5-6.2 33.4-10.5 50.8-3.7 14.8-7.6 28.1-11 38.2-1.6 4.6-2.6 8.3-2.4 8.3.6 0 12.5-8.1 14.5-9.9.8-.6 7-5.3 13.9-10.2 6.9-4.9 13.9-10 15.5-11.2 3.7-2.7 29.6-21.5 38.9-28.2 20-14.4 35.2-25.5 36.1-26.2.6-.5 4.2-3.1 8-5.8 3.9-2.8 12.2-8.7 18.5-13.3 6.3-4.6 12.6-9.1 13.8-10 1.3-1 4.2-3.1 6.5-4.8 6.8-5 18.5-13.5 29.2-21.2 35.1-25.2 54.8-39.8 54.8-40.5-.2-1.1-21.9-29-31.7-40.7-44.4-53-78.3-81.1-111.6-92.8-16.3-5.7-36-7.8-54.4-5.9-7.4.8-26.2 4.8-31 6.6-1.6.7-2.9 1-3 .9-.1-.2-2.3-8.9-4.9-19.5-15.6-63-43.6-126.3-80-180.8-24-36-56.1-73.9-86.2-101.8-86.2-79.9-189.9-131-303-149.2-32.6-5.3-39.7-5.8-86-6.1-24.2-.2-44.4-.2-45 0z"/></svg>