<svg width="149" height="111" viewBox="0 0 149 111" xmlns="http://www.w3.org/2000/svg" xmlns:xlink="http://www.w3.org/1999/xlink"><title>Group 5</title><defs><filter x="-82.2%" y="-56.4%" width="264.4%" height="212.8%" filterUnits="objectBoundingBox" id="a"><feOffset dy="9" in="SourceAlpha" result="shadowOffsetOuter1"/><feGaussianBlur stdDeviation="8" in="shadowOffsetOuter1" result="shadowBlurOuter1"/><feColorMatrix values="0 0 0 0 0.450980392 0 0 0 0 0.211764706 0 0 0 0 0.494117647 0 0 0 0.397276947 0" in="shadowBlurOuter1" result="shadowMatrixOuter1"/><feMerge><feMergeNode in="shadowMatrixOuter1"/><feMergeNode in="SourceGraphic"/></feMerge></filter><path id="b" d="M0 0h58.057v85.644H0z"/><linearGradient x1="87.527%" y1="-24.359%" x2="58.316%" y2="70.511%" id="c"><stop stop-color="#D67FE6" offset="0%"/><stop stop-color="#73367E" offset="100%"/></linearGradient><filter x="-191.7%" y="-230%" width="483.3%" height="560%" filterUnits="objectBoundingBox" id="e"><feOffset dy="6" in="SourceAlpha" result="shadowOffsetOuter1"/><feGaussianBlur stdDeviation="9" in="shadowOffsetOuter1" result="shadowBlurOuter1"/><feColorMatrix values="0 0 0 0 0.450980392 0 0 0 0 0.211764706 0 0 0 0 0.494117647 0 0 0 0.397276947 0" in="shadowBlurOuter1" result="shadowMatrixOuter1"/><feMerge><feMergeNode in="shadowMatrixOuter1"/><feMergeNode in="SourceGraphic"/></feMerge></filter><path id="f" d="M0 0h23.899v19.538H0z"/></defs><g fill="none" fill-rule="evenodd"><g filter="url(#a)" transform="rotate(44 60.696 115.306)"><mask id="d" fill="#fff"><use xlink:href="#b"/></mask><path d="M56.915 8.064s2.355 9.422 0 34.862c0 0-.733 15.075 1.047 24.497 0 0 3.664 29.21-34.495 13.662 0 0-40.515-23.555-15.076-65.955 0 0 15.547-20.728 39.573-13.662 0 0 8.345 2.418 8.951 6.596" fill="url(#c)" mask="url(#d)"/></g><g filter="url(#e)" transform="rotate(44 -28.807 51.793)"><mask id="g" fill="#fff"><use xlink:href="#f"/></mask><path d="M20.759 4.555s7.066 6.595 0 11.306c0 0-21.671 11.944-20.73-7.22 0 0 8.48-16.335 20.73-4.086z" fill="url(#c)" mask="url(#g)"/></g></g></svg>