<svg width="764" height="323" fill="none" xmlns="http://www.w3.org/2000/svg"><path fill-rule="evenodd" clip-rule="evenodd" d="M80.078 254.627c22.361 50.013 98.258 77.327 341.922 65.11 350.069-17.552 347.773-45.778 338.702-157.3a3703.53 3703.53 0 0 1-.702-8.699C748.752 12.012 679.472-4.168 389 .738c-266.5 4.5-316 21.5-316 137.999 0 11.473-.451 22.634-.887 33.414-.883 21.828-1.702 42.095 1.416 60.23C57.45 247.6 36.123 258.929 0 244.738c27.746 22.823 52.287 22.415 80.078 9.889z" fill="#F8F8F8"/><path fill-rule="evenodd" clip-rule="evenodd" d="M80.078 254.627c22.361 50.013 98.258 77.327 341.922 65.11 350.069-17.552 347.773-45.778 338.702-157.3a3703.53 3703.53 0 0 1-.702-8.699C748.752 12.012 679.472-4.168 389 .738c-266.5 4.5-316 21.5-316 137.999 0 11.473-.451 22.634-.887 33.414-.883 21.828-1.702 42.095 1.416 60.23C57.45 247.6 36.123 258.929 0 244.738c27.746 22.823 52.287 22.415 80.078 9.889z" fill="url(#paint0_linear)"/><defs><linearGradient id="paint0_linear" x1="0" y1="264.5" x2="729" y2="127.5" gradientUnits="userSpaceOnUse"><stop stop-color="#EBEBEB"/><stop offset="1" stop-color="#fff" stop-opacity="0"/></linearGradient></defs></svg>