<svg version="1" xmlns="http://www.w3.org/2000/svg" width="1412" height="1412" viewBox="0 0 1059.000000 1059.000000"><path d="M155.6 392.6c-.3.9-.6 9-.6 18V427H48.4l-5 2.5c-2.8 1.4-6 3.9-7.3 5.5-1.2 1.7-7.8 17.6-14.7 35.2L9 502.4v54.4l-2.7.7C.5 558.9 0 560.2 0 573.7 0 591-1.4 590 23.9 590h19.9l3.2-5.7c4.4-7.8 12.6-15.5 20.7-19.5 6.4-3.1 7.4-3.3 17.3-3.3 9.7 0 11 .2 17.1 3.1 4 1.9 9.7 6 14.5 10.3 8.7 8 16.8 12.4 25.8 14 3.9.7 28.8 1.1 71.8 1.1H280l2.4-4.9c6.9-13.5 21-23.1 35.5-23.9 13.6-.8 22.6 2.9 35.1 14.4 7.9 7.2 16.3 11.8 24.9 13.4 3.5.6 59.4 1 161.1 1 130 0 155.9-.2 156.9-1.4.8-1 1-27.7.9-99.2l-.3-97.9-270.1-.3c-245.7-.2-270.2-.1-270.8 1.4zM690 490v92l-156.2-.2-156.3-.3-6.8-3.2c-4.2-2-9.2-5.6-13-9.2-11.5-11-23.3-16.1-37.4-16.1-16.5 0-34.6 10.4-42.9 24.7l-2.6 4.3H163V398h527v92zm-535-23v32H87c-37.4 0-68-.2-68-.5 0-.8 20.2-52.9 21.6-55.6.7-1.5 2.7-3.8 4.4-5.3l3.2-2.6H155v32zm0 77.1v38.2l-6.2-.6c-9.8-.8-16.8-4-24.6-11.1-8.9-8.1-14.3-11.8-21.7-14.6-7.4-2.7-19.9-3.7-27.7-2.1-12.2 2.6-24.8 11.4-32.3 22.6l-3.6 5.5H7v-17h3.8c2.1 0 4.3-.5 5-1.2.9-.9 1.2-8.8 1.2-29.5V506h138v38.1z"/><path d="M353.5 461.1c-5.1 1.2-11.3 6.2-13.1 10.5-1.7 4-1.8 12.7-.3 15.7 2.9 5.6 6.3 7.7 17.5 11.3 11.8 3.6 13.8 4.9 13.2 8.6-.9 6.7-14 5.8-24.4-1.7-2-1.5-2.3-1.3-6.3 3.7l-4.1 5.3 3.2 2.8c5.6 4.8 13.2 7.1 23.3 7.1 7.4 0 9.8-.4 13.2-2.2 7.3-3.8 11.2-11.4 9.9-19.5-1.5-9-5.8-12.6-20.8-17.1-10.6-3.2-13.4-5.5-11-9.3 2.4-3.8 10.7-3.5 18 .8 1.8 1 3.9 1.9 4.5 1.9.7 0 2.7-2.3 4.5-5.1 3.9-6 3.7-6.5-4.6-10.2-6.5-2.9-16.6-4.1-22.7-2.6zm239.5.2c-9.8 2.8-17.4 9.9-21.1 19.6-2.9 7.9-2.3 19.5 1.4 26.8 5.5 10.7 14.3 16.3 26.8 17.1 10 .6 17.2-1.5 23-6.6l4.3-3.9-3.2-4c-5.1-6.5-5.4-6.6-9.3-3.7-4.6 3.5-7.6 4.6-12.5 4.6-15.4 0-23-20.3-12.1-32 6.5-7 17.7-7 25.3-.1 2.1 1.9 2.1 1.9 6.2-2.5 2.3-2.5 4.2-5.2 4.2-5.9 0-1.5-6.8-6.5-11.5-8.6-4.3-1.9-16.2-2.3-21.5-.8zm-399.6 3.5c-.8 2.1-3.1 7.5-5.1 12.2-1.9 4.7-4.1 9.8-4.8 11.5-2.1 4.6-14.5 34.4-14.5 34.8 0 .1 3 .3 6.7.3l6.7-.1 2.6-6.2c1.5-3.5 2.9-6.5 3.2-6.8.3-.3 6.2-.7 13.1-.8l12.5-.2 2.9 7 2.8 6.9 6.8.1c8.2.1 8.2 1.6-.2-18.2-3.2-7.6-8.4-19.9-11.5-27.3-3.1-7.4-6-14.2-6.5-15-.6-1.1-2.7-1.5-7-1.7l-6.2-.1-1.5 3.6zm9.4 16.9c.6 1.6 2.2 5.8 3.6 9.4l2.5 6.7-7.7-.3c-4.2-.1-7.8-.3-7.9-.4-.2-.1 1.8-5 4.2-10.6.7-1.7 1.6-4 2-5.3.9-3 2.1-2.8 3.3.5zm19.2-19.1c0 .9 11.4 30.4 13.9 35.9.5 1.1 2.9 7.2 5.4 13.5l4.5 11.5h12.4l12.3-30.8c6.7-16.9 11.7-30.8 11.1-30.8-2.8-.3-13 .1-13.4.6-.3.3-1.1 2-1.7 3.8-7.2 20.4-14 37.6-14.6 37-.4-.5-2.1-4.9-3.9-9.8-1.8-5-3.6-9.9-4.1-11-.5-1.1-2.2-5.8-3.9-10.5-1.7-4.7-3.6-8.9-4.1-9.5-1.3-1.3-13.9-1.3-13.9.1zm62.3 29.9v31H298V505h7.4c17.6 0 27.6-8.3 27.6-22.9 0-3.7-3.1-10.9-6-14-4.9-5-9.8-6.2-26.9-6.4l-15.8-.2v31zm29.4-17.5c3.2 1.2 5.3 4.5 5.3 8.6 0 6.3-4.8 9.4-14.4 9.4-3.5 0-6.6-.4-6.8-1-.1-.5-.2-4.8 0-9.5l.3-8.5h6.3c3.5 0 7.7.5 9.3 1zm75.3 17.5V524h47v-13h-33v-12h29v-13h-29v-12h33v-13h-47v31.5zm50-.1V524h15v-20.1l4.8.3 4.7.3 6.5 9.7 6.5 9.7 8.3.1c4.5 0 8.2-.4 8.2-.8 0-.5-3.1-5.4-6.9-11l-7-10 4-2.6c5.3-3.6 8.2-9.4 8.1-17.1 0-9.7-2.8-14.6-10.7-18.8-3.6-1.9-6-2.2-22.7-2.5l-18.8-.4v31.6zm35.5-14.9c3.3 3.3 3.2 7-.4 10.6-2.8 2.8-3.4 2.9-11.5 2.9H454v-16h9c8.3 0 9.3.2 11.5 2.5zm13.5-15.8c0 .3 5.5 14.5 12.2 31.5l12.2 30.8h13.3l11.8-29.6c6.5-16.3 12-30.5 12.3-31.6.4-1.8-.1-1.9-7.3-1.6l-7.8.3-7.6 20.7c-6.6 18-7.7 20.4-8.7 18.5-.6-1.2-4.1-10.6-7.9-21l-6.8-18.7h-7.8c-4.4 0-7.9.3-7.9.7zm64 30.8V524h14v-63h-14v31.5zm77 0V524h48v-13h-33v-12h29v-13h-29v-12h32v-13h-47v31.5zm74.7-100.8c-.4.3-.7 44.6-.7 98.3 0 74.6.3 97.9 1.2 98.8 1.8 1.8 21.4 1.5 29.8-.4 8.4-1.9 16.5-6.7 24.7-14.5 12.2-11.7 27-15.6 42-11.1 11.2 3.5 19.9 10.7 26.7 22.4l2.8 4.8h97.6l2.8-4.7c6.8-11.8 15.5-19 26.7-22.5 15-4.5 29.8-.6 42 11.1 13.5 12.9 23.4 16.4 45.7 15.9l13.5-.3.3-99.3.2-99.2H881.7c-97.6 0-177.7.3-178 .7zm348.3 98.4v92.1l-13.3-.4c-12.6-.3-13.7-.5-19.8-3.6-3.5-1.7-9.5-6.1-13.3-9.6-10.2-9.5-23.1-15.6-33.4-15.6h-3.3l2.4-3.3c5.7-7.5 5.4-13.8-1.4-27.1-8-15.8-8.5-16.4-18.3-22.8-8.6-5.6-9.4-5.9-14.3-5.5-5 .3-5.1.3-3.8-1.7.7-1.2 2.5-5.5 4.1-9.6 1.5-4.1 2.8-7.6 2.9-7.7.3-.5 16.5 5.7 20.9 7.8 2.2 1.1 7.5 3.4 11.6 5 4.1 1.7 9.9 4.6 12.7 6.6 5.4 3.6 8.3 3.8 8.3.5 0-1.1-2.2-3-6.2-5.4-10.6-6.1-14.6-7.9-34.8-15.4l-19.5-7.3-.7-12.8c-.8-15.4-3.3-32.4-5.3-36.3-3.3-6.4-15.8-14.1-25.9-15.9-8.7-1.6-28.1-1.4-34.9.4-7.9 2-16.9 6.8-20 10.5-5.3 6.2-9.2 24-8.5 38.6l.4 9.4h-3.7c-4.1 0-15.6 3.3-20.9 6-4 2.1-7.6 5.7-11.5 11.7-3.6 5.5-9.5 9.3-17.2 10.9-4 .8-8 2.5-10.6 4.4-2.2 1.6-4.9 3-5.9 3-.9 0-3.8 1-6.3 2.2-3.7 1.8-4.5 2.7-4.5 5 0 3.1.9 3.4 4.8 1.4 1.5-.7 4.8-1.8 7.4-2.5 2.6-.6 7.6-2.7 11.1-4.6 3.6-2 7.8-3.5 9.6-3.5 4 0 14.3-7.6 16.7-12.3 2.1-4.2 5.2-7.6 8.7-9.3 2.4-1.3 2.7-1.3 2.7.1 0 .8 4.5 8 10 15.9s10 15.1 10 15.9c0 .9.9 2.2 2.1 3.1 1.1.8 2.8 2.5 3.7 3.8 1.5 2.2 1.5 2.3-.4.6-2.3-2-14.4-7.8-16.2-7.8-.8 0-2.8.6-4.5 1.4-1.8.8-4.4 1.7-6 2-1.5.4-3.6 1.5-4.6 2.5-1 1-3 2.1-4.5 2.5-1.5.4-3.4 1.5-4.4 2.6-.9 1.1-2.4 2-3.2 2-2 0-6 3.6-6 5.3 0 1 2.8 11.8 4.6 18 .7 2.3 8.1 7.7 10.6 7.7 1 0 2.6-.9 3.5-2 1.1-1.2 3-2 4.9-2 3.2 0 6-2.2 5-3.9-.4-.5.6-.5 2.2.1 4.5 1.7 6.5.4 6-3.7-.2-1.9-.3-3.5-.2-3.5.1 0 1.2 1.6 2.4 3.6 3.1 4.9 6.3 6.9 8.9 5.4 2.7-1.4 2.6-4.3-.3-10.7-1.6-3.4-2-5-1.1-4.7.7.3 1.6 1.6 1.9 2.9.7 2.7 4.1 4.2 6 2.6.9-.8 1.1-2.3.6-5.1-.4-2.2-.3-4 .1-4 2.5 0-1.1-6.2-4.1-7.2-.9-.3-1-.7-.3-1.1.6-.4 3.5 2.5 6.8 6.9 3.2 4.2 7.8 9.8 10.4 12.5 2.6 2.7 4.5 5.5 4.3 6.4-.2 1 .1 2.2.7 2.8.6.6 1.1 2 1.1 3.2 0 1.2.5 2.6 1.2 3.3 2.3 2.3.1 2.1-5.2-.4-9.7-4.7-11-4.9-6.6-.9 4.8 4.2 4.2 4.4-3.2.6-9.4-4.7-11.1-4.6-3.9.2 3.8 2.5 7.2 4.8 7.5 5.2.7.7-13.2-4.2-16.3-5.7-5.2-2.6 1.7 2.4 10.5 7.6 5.2 3.1 9.2 5.6 8.8 5.6-1 0-37.8-9.8-41-10.9-1.6-.5-2.8-.6-2.8-.3 0 .6 25.3 9.6 29.5 10.6 3.8.9 12.2 4 13 4.9.7.7.7.8 0 .5-.5-.3-8.9-.8-18.5-1.2l-17.5-.5 7.5 2c13.5 3.6 18.2 5 17.9 5.4-.2.2-4.5.6-9.5 1l-9 .7-7-6.9c-16.4-16.4-39.3-19.9-59.6-9.1-3.2 1.7-9.2 6.2-13.4 10.1-10.6 9.6-16 11.9-29.6 12.5l-10.8.5V398h341v92.1zm-145.1-80.8c6.4 2.3 12.5 7.5 15.3 13.1 2.6 5 4.7 21.7 4.8 37.3v11.1l3.8 1.2c2 .7 4.1 1.6 4.6 2.1s-.5 4.5-2.4 9.6c-1.8 4.8-3.3 9.4-3.3 10.1 0 .7-1 1.5-2.1 1.8-2.9.8-9.6 9.1-9.6 11.9 0 1.2.7 2.6 1.6 2.9 1.8.7 6.2-1.7 8.2-4.6 1.8-2.5 10.1-2.5 13.3.1l2.3 1.8-4.8 2.2c-2.7 1.1-5.2 1.8-5.7 1.5-.5-.3-2.5-.2-4.5.2-2.9.5-3.9 1.4-5 4-1.3 3.1-3.2 5-2.1 2.1 2.1-5.5 2-5.7-1.7-5.7-6.1 0-7.2 5.7-1.5 7.5 1.8.6 1.6 1.1-2 5.1-4.4 4.7-4.9 6.5-2.6 8.4 1.9 1.6 2.7 1.2 10-4.2 4.9-3.7 13.8-7.9 16.4-7.8.3 0-3 2-7.4 4.3-14.6 7.9-16.6 9.4-15.6 11.9.6 1.6 1.7 2.3 3.3 2.3 1.9 0 2.4.4 2 1.7-.7 2.8 2.3 3.2 10.6 1.5 12.5-2.6 15.2-2.5 21.8 1 3.3 1.7 7.2 4.5 8.7 6.1l2.8 2.9-6.4 1.3c-7.1 1.3-22.1 8.2-21 9.6.4.5.2.4-.5-.2-.9-.8-4.4-1-10-.7l-8.7.5 16-8c8.8-4.4 15.7-8.1 15.4-8.1-.4-.1-5.8 2-12 4.5-17.8 7.3-18.4 7.3-11.9 1.4 3.2-2.8 4.8-4.9 3.9-5-.8 0-1.9.4-2.5.8-1.4 1.2-14.4 5.5-15 5-.2-.3.5-3.4 1.6-6.9 2.4-7.7 2.4-7.4.5-5.9-1.8 1.5-1.9.7-.4-2.3 1-2.1 1-2.1-.5-.3-.9 1.1-1.6 2.3-1.6 2.8 0 1.1-6.9 11.8-7.6 11.8-.4 0-.3-.8.1-1.8.4-.9.8-2.4 1-3.3.2-.9.8-3.3 1.3-5.3.6-2 .9-3.6.7-3.6-.2 0-2 2.9-4 6.5s-3.9 6.5-4.1 6.5c-.3 0-.3-.3-.1-.8.3-.4.8-3.2 1.2-6.2.3-3 1.1-7.5 1.6-9.9 1.5-6.6.4-6-2.2 1.5-1.3 3.6-2.5 6.2-2.6 5.7-.2-.4.3-5.4 1-11.1.8-5.6 1-9.9.7-9.5-.4.4-1.9 5.2-3.2 10.7-2.6 10.3-2.9 10.3-4.3.3-1.2-7.8-2-6.1-2.3 4.6-.1 5.6-.4 11.1-.7 12.2-.2 1.1-.4 3.3-.5 5-.1 2.4-.5 1.9-1.9-2.9-1.9-6.6-3.3-7.4-8-4.5-3.9 2.4-4.2 6-.5 8.4 3.9 2.5 2.4 2.7-2.4.4-3.7-1.8-4.1-2.4-3-3.8 3.6-4.8 6.5-7.1 9.5-7.7 1.8-.3 3.3-.9 3.3-1.3-.1-1.8-3.1-4.1-5.4-4.1-1.6 0-2.5-.4-2.1-1 .9-1.5-5.5-9.2-7.1-8.6-.8.3-1.1 0-.8-.8.5-1.3-17-22.5-19.9-24.3-.8-.4-1.6-1.6-2-2.6-.3-.9-1.2-1.7-1.9-1.7-.7-.1-3.8-3.5-7-7.8-3.1-4.2-8.3-10.9-11.6-14.8l-6-7.1 4.2-1.3c2.2-.7 7.8-1.5 12.2-1.9l8.1-.6.6 6.5c.3 3.6 1.7 10.1 3 14.5 2.8 9.2 9.6 24.5 10.8 24.5 1.2 0 1.2-.1-1.7-7.7-1.4-3.8-3.9-12.7-5.5-19.8-2.7-12.2-2.9-14.4-2.9-35 0-12.9-.4-21.5-.9-21-1.8 1.9-4.1 15.6-4.2 24.7l-.2 9.3-1-7.5c-1.2-8.9.3-22.2 3.4-30.4 2.5-6.8 7.7-11.6 15.5-14.6 11.2-4.2 32.9-4.6 43.3-.7zm-68.6 111.4c-.5 1.2-.9 1-1.9-.8-1.9-3.5-1.7-4.5.5-2.5 1.1 1 1.7 2.5 1.4 3.3zm30 10.8c-.3.9-.8 1.4-1 1.1-.3-.3-.2-.9.2-1.5.9-1.6 1.5-1.3.8.4zm66.7 35c-2 2.1-3.2 2.5-7.9 2.4l-5.6-.1 7-2.3c9-3 9.3-3 6.5 0zm-5.7 6.1c-.3.8-1.2 1.3-2 1-.8-.3-2.2-.6-3.1-.7-1.4 0-1.3-.2.3-.9 3.3-1.4 5.5-1.2 4.8.6z"/><path d="M766.6 521.8c-2.5.3-1.8.8 5.2 3.9 7.6 3.2 8.3 3.4 9.8 1.8 1.8-1.8 1.9-1.7-1.6-3.5-3-1.6-9.4-2.6-13.4-2.2zm20.6 4.5c-1.8.7-4.8 2.5-6.7 4-3.3 2.7-3.5 3.1-3.5 9.2 0 3.5.4 6.6.9 6.9 1.3.8 7.1-1.4 7.2-2.7.2-3.5 1.3-6.8 3.9-12.5 1.6-3.4 2.6-6.2 2.2-6.1-.4 0-2.2.6-4 1.2zM871 412c-2.5.4-6.4 1.3-8.7 1.9-5.1 1.4-5.1.6-2 21.1 2 13.4 2.4 14.5 4.2 14.1 1.1-.2 11.2-.6 22.5-.8l20.5-.5 5.3-11.6c2.9-6.5 5.2-12.4 5.2-13.3 0-2.3-5.5-7.1-7.7-6.7-1.4.3-1.9 1.5-2.3 6.3l-.4 6-.6-7.5-.5-7.5-5.5-1.2c-6.2-1.3-23.2-1.5-30-.3zm35.7 24.2c-.2 1.3-.4.5-.4-1.7-.1-2.2.1-3.2.4-2.3.2 1 .2 2.8 0 4zm-24.2 16.7c-.3.6-.3 1.5 0 2.1.4.6-2.8 1-8.9 1-11.6 0-11.6 0-11.6 13 0 12.9.1 13 11.4 13 8.3 0 9.4.2 9.2 1.7 0 1 .6 1.8 1.4 1.8.8 0 1.4-.8 1.4-1.8-.2-1.5.8-1.7 8.2-1.7 10.2 0 10.4-.2 10.4-13s-.2-13-10.4-13c-7.2 0-8.4-.2-8.2-1.6.1-2-1.9-3-2.9-1.5zm-22 1.1c.3.5 1 1 1.6 1 .5 0 .9-.5.9-1 0-.6-.7-1-1.6-1-.8 0-1.2.4-.9 1zm-4.3 19.6l.3 14.9 2.5.3c2.3.3 2.4.3.7-1-1.6-1.2-1.9-3.4-2.4-14.8-.3-7.4-.7-13.7-.9-13.9-.3-.3-.3 6.2-.2 14.5zm-26.3-2.6c-.6.5 1 1.5 4.1 2.5 2.8.9 6.8 3.1 8.7 4.8 3.5 3.1 3.6 3.1 2.9.7-1.2-4.3-2.8-8-3.5-8.1-2.5-.6-11.2-.4-12.2.1z"/><path d="M921.8 477.2c-2.5 7.4-13.1 26.7-18 33-2.9 3.6-5.4 6.5-5.5 6.4-.1-.1 1.6-5.9 3.9-12.7 2.3-6.9 3.9-13.3 3.5-14.2-.6-1.5-2.9-1.7-20.9-1.6-15.6.1-19.5.3-16.8 1.1 2 .6 10.2.9 19.5.6 8.8-.2 14-.1 11.5.3s-12.7.8-22.8.8l-18.2.1.6 2.7c.3 1.6 2.4 8.4 4.7 15.2 3.8 11.8 4.2 12.4 7.6 13.9 6 2.6 15.1 2.7 20.5.4 2.5-1.2 4.9-2.8 5.2-3.6.3-.8 1.1-1.3 1.7-1 1.4.5 16.6-12.2 19.4-16.3 3.2-4.4 5.4-12.2 6-20.6.6-8.2-.1-9.8-1.9-4.5zM860 484c0 .5.7 1 1.5 1s1.5-.5 1.5-1c0-.6-.7-1-1.5-1s-1.5.4-1.5 1zm-546.7 90.4c-8.1 2-15.7 6.2-21.7 12.2-3.1 3-5.6 5.8-5.6 6.2 0 .4 8.3 3.2 18.5 6.2 10.2 2.9 19.2 5.8 20 6.4 2 1.6 7.3 15.6 6.7 17.8-.7 2.7-13.6 12.8-16.3 12.8-1.2 0-9.8-2.3-19.2-5-9.3-2.8-17.2-4.9-17.5-4.6-1.2 1.2 3.3 14 6.7 19.4 9.7 14.9 23.5 21.8 42.1 21 8.8-.3 10.4-.7 17.2-4 4.6-2.3 10-6.2 14.3-10.2 7.5-7 14.1-10.8 22.3-12.5 7.5-1.6 341.9-1.6 349.4 0 8.2 1.7 14.8 5.4 22.4 12.5 4.1 3.9 9.8 8 14.3 10.2 6.5 3.2 8.3 3.7 16.8 4 11.7.5 19.9-1.4 28.1-6.7 5.4-3.6 13.2-11.2 13.2-13 0-.4-7.5-2.7-16.7-5.1-11.6-3-17.5-5-18.9-6.4-2.8-2.7-7.7-16-7-18.4.6-1.8 11.2-10.7 14.1-11.8 1-.4 23.1 4.8 34.9 8.3 5.3 1.5-3.7-18.9-11.9-27.2-10.1-10-25.3-15-39.4-12.8-10 1.6-18.3 5.8-26.8 13.6-8.1 7.4-12.6 10-21 12.2-8.6 2.3-345 2.3-353.6 0-8.4-2.2-12.9-4.8-21-12.2-13.4-12.3-28.6-16.7-44.4-12.9zm-237.2 1.2c-17.2 4.6-30.5 20-33.4 38.5-3.4 22.2 10.3 44.4 31.5 51.1 8.5 2.6 21.5 2.4 29.7-.3 21.3-7.2 34.5-30.6 30.2-53.1-5.2-26.7-31.7-43.3-58-36.2zm29.2 10.2c7.7 3.8 14.3 10.6 18.4 19 2.5 5.1 2.8 6.8 2.8 15.7 0 9.3-.2 10.5-3.3 16.7-7.8 15.8-24.6 24.9-40.8 21.9-23.1-4.3-37.8-28.4-30.4-50 2.6-7.9 6.6-13.9 12.3-18.4 8.5-6.9 14.3-8.8 25.8-8.4 7.4.3 9.6.8 15.2 3.5zM958 575.4c-15.9 4.5-28.3 17.1-32.6 33.1-1.6 5.9-1.8 17.2-.3 23.4 2.9 12.9 13.3 25.5 25.6 31.4 6.5 3.1 7.3 3.2 19.3 3.2s12.8-.1 19.3-3.2c30.5-14.4 36.5-55.3 11.5-77.8-5.4-4.8-13.1-8.9-19.9-10.4-5.9-1.4-17.4-1.2-22.9.3zm24.5 8.5c7.5 2.6 14.5 8 18.8 14.3 5.4 7.9 7 13.1 7.1 22.8.1 7.5-.3 9.2-3.1 15.2-8.2 17.4-26.3 26.7-43.4 22.3-8.5-2.1-16.3-6.9-21.1-12.9-5.3-6.6-6.7-9.6-8.3-17.4-4.9-23.4 13.4-46.1 37.3-46.2 4.7 0 9.2.7 12.7 1.9z"/></svg>