<?xml version="1.0" encoding="UTF-8"?>
<svg width="118px" height="100px" viewBox="0 0 118 100" version="1.1" xmlns="http://www.w3.org/2000/svg" xmlns:xlink="http://www.w3.org/1999/xlink">
    <!-- Generator: Sketch 52.5 (67469) - http://www.bohemiancoding.com/sketch -->
    <title>logo_creative studio</title>
    <desc>Created with Sketch.</desc>
    <defs>
        <path d="M0.0241258391,1.38990368 C0.95916735,6.34370994 1.89437411,11.2975162 2.82949824,16.2514057 L6.82752985,15.6842358 C6.37864052,13.8001922 5.92966857,11.9161487 5.48086186,10.0321051 C6.61766809,9.9667361 7.75439171,9.90120053 8.89128056,9.83574823 L10.6781625,15.3466485 C12.2262647,15.157453 13.7743669,14.968091 15.3223865,14.7788956 C13.5792946,10.7086953 11.8362028,6.6384951 10.0930283,2.56837813 C9.10775213,1.73906588 8.12264124,0.909670352 7.13736511,0.0804413731 C4.76625781,0.516873295 2.39515051,0.95338849 0.0241258391,1.38990368 M4.44700356,4.37972466 C4.98248151,4.31552145 5.51795947,4.25131824 6.05343743,4.18703176 C6.65270013,5.42054942 7.2517976,6.65415036 7.85106031,7.88766802 C6.93948365,8.01615771 6.027907,8.14473067 5.11641297,8.27322036 C4.89324896,6.97541621 4.67008495,5.67761207 4.44700356,4.37972466" id="path-1"></path>
        <path d="M0.00619670525,1.72282771 C1.23884531,6.5377352 2.47132868,11.3526427 3.70389466,16.1677167 L7.86246224,15.5607424 L7.26873526,11.5286811 C8.61242883,12.5906571 9.95628764,13.6526331 11.3000638,14.7146924 C12.9635074,14.3421306 14.6268683,13.9695688 16.2903119,13.597007 C14.4975637,12.106843 12.704733,10.6165958 10.9119848,9.12643186 C11.5507412,8.84538669 12.1894976,8.56442479 12.828254,8.28346289 C12.7439788,6.72026884 12.6597036,5.15715805 12.5753458,3.593964 C11.2423932,2.40158302 9.90935792,1.2090355 8.57640531,0.016571256 C5.71964157,0.585323408 2.86287783,1.15399229 0.00619670525,1.72282771 Z M5.30289249,5.75955235 L6.73780155,5.06880578 L7.79132407,7.62036283 L5.82060655,8.06911911 L5.30289249,5.75955235 Z" id="path-3"></path>
        <path d="M6.72173143,6.07084215 L9.83603024,3.52711272 L7.96371641,0.0752951238 L0.0242497732,2.63284781 L0.014582913,10.067013 L4.13522666,16.0768829 L9.67871655,14.7401072 L12.4264183,12.4400335 C11.9589388,10.4239196 11.4914594,8.40788887 11.0238973,6.39177491 C9.98475117,7.23366133 8.94568763,8.07546448 7.9066241,8.91743418 C8.03865523,9.80020746 8.17076899,10.6831473 8.30288274,11.5659206 L6.92415714,12.040991 L4.67904951,9.15800884 L4.34897168,4.88254153 L5.24584149,4.58725674 L6.72173143,6.07084215 Z" id="path-5"></path>
        <polygon id="path-7" points="0 0.00258145193 94.1119239 0.00258145193 94.1119239 16.9666261 0 16.9666261"></polygon>
        <path d="M0.021465387,0.659910714 C0.223477978,2.34884646 0.425573192,4.03778221 0.627668406,5.72680122 L4.01354815,5.07127898 C4.42971888,8.56123545 4.84580698,12.0511919 5.26197771,15.5411484 C6.9306265,15.6201741 8.59935791,15.6991999 10.2680893,15.7781423 L8.83822024,11.0491722 C8.73709001,8.87875403 8.63595978,6.70841914 8.53482955,4.53800097 C9.57686751,4.60270382 10.6190707,4.66732339 11.6611913,4.73185968 C11.4847917,3.18065689 11.3083922,1.6294541 11.1321579,0.0782513026 C7.42851111,0.272110016 3.72494694,0.466052001 0.021465387,0.659910714" id="path-9"></path>
        <path d="M0.0327186037,1.75097386 C1.26520197,6.56596463 2.49776795,11.3809554 3.73033394,16.1958629 L7.88898414,15.5888886 L7.29517453,11.5569105 C8.63903335,12.6188865 9.98272691,13.6809458 11.3265857,14.7429218 C12.9900293,14.37036 14.6533902,13.9977982 16.3168338,13.6252364 L10.9385067,9.15466128 C11.5771805,8.87361611 12.2159369,8.59257094 12.8546932,8.31160904 C12.7705007,6.74849826 12.6861429,5.18538748 12.6018677,3.62219343 C11.2687498,2.42981245 9.93587982,1.2373482 8.60284459,0.0448839546 C5.74616347,0.613552834 2.88939972,1.18230499 0.0327186037,1.75097386 Z M5.32941438,5.78778178 L6.76424083,5.09703521 L7.81776334,7.64859226 L5.84704583,8.09726526 L5.32941438,5.78778178 Z" id="path-11"></path>
        <path d="M0.0327186037,1.75097386 C1.26520197,6.56596463 2.49776795,11.3809554 3.73033394,16.1958629 L7.88898414,15.5888886 L7.29517453,11.5569105 C8.63903335,12.6188865 9.98272691,13.6809458 11.3265857,14.7429218 C12.9900293,14.37036 14.6533902,13.9977982 16.3168338,13.6252364 L10.9385067,9.15466128 C11.5771805,8.87361611 12.2159369,8.59257094 12.8546932,8.31160904 C12.7705007,6.74849826 12.6861429,5.18538748 12.6018677,3.62219343 C11.2687498,2.42981245 9.93587982,1.2373482 8.60284459,0.0448839546 C5.74616347,0.613552834 2.88939972,1.18230499 0.0327186037,1.75097386 Z M5.32941438,5.78778178 L6.76424083,5.09703521 L7.81776334,7.64859226 L5.84704583,8.09726526 L5.32941438,5.78778178 Z" id="path-13"></path>
        <path d="M10.0067123,4.0622144 C9.60508317,2.72119176 9.20337142,1.38025239 8.8017423,0.0393130148 C5.88011971,0.683010545 2.9584145,1.3266248 0.0367919046,1.97040561 C0.724956678,3.70439185 1.41312145,5.43846137 2.10128623,7.17253089 L4.28607925,16.2331774 L14.5698834,14.803053 C14.0079662,13.6410665 13.4459663,12.4790801 12.8839665,11.3171769 L7.36303259,12.5538589 L6.30703139,10.0834094 L11.5937298,9.42314061 L10.2130213,5.94384304 L6.05817171,6.68813392 L4.94102969,4.34259339 L10.0067123,4.0622144 Z" id="path-15"></path>
        <path d="M10.8450439,4.55444732 L10.6971492,0.753550801 C7.86475916,0.515557587 5.0322865,0.277647646 2.19989646,0.0396544326 C2.01696972,2.27843944 1.83404298,4.51714117 1.65119887,6.75592618 C1.11539042,9.58727932 0.579747219,12.4185492 0.0439387714,15.2499023 C3.56771587,15.6075583 7.09141034,15.9652976 10.6151874,16.3229536 C10.7103688,14.9741866 10.8054676,13.6254196 10.9007316,12.2764861 C9.29669381,12.201957 7.692656,12.1273447 6.08870081,12.0528157 L5.71078441,9.38992315 L10.9847589,10.1471213 L10.5556164,6.42483415 L6.35226734,6.04735926 L5.88313544,3.48897385 L10.8450439,4.55444732 Z" id="path-17"></path>
        <path d="M0.0150373381,5.97739359 C0.102452193,8.29870178 0.190032294,10.62001 0.277529772,12.9413182 L2.39432429,17.0991212 L9.76476813,17.0991212 L11.9572451,8.15688847 L11.4658877,3.20174985 L8.85773573,0.581659411 C6.42705744,0.402706502 3.99629653,0.223836864 1.56561824,0.0449672272 C1.0487304,2.02244268 0.531842556,3.99991813 0.0150373381,5.97739359 Z M4.98363823,13.2782393 C4.66306201,11.9408806 4.34248579,10.603522 4.0219922,9.26608008 C4.14658729,7.86285277 4.27134762,6.45979201 4.3959427,5.05664797 C5.19730063,4.96887861 5.99874117,4.88119252 6.8000991,4.79342315 C7.03871356,5.8196752 7.27732802,6.84592725 7.51602511,7.87209603 L6.04178762,13.339861 C5.68898853,13.319376 5.33627207,13.2988076 4.98363823,13.2782393 Z" id="path-19"></path>
        <path d="M0.0720470264,1.31512485 C1.00717116,6.26893111 1.94237792,11.2227374 2.87741943,16.1766269 L6.87545103,15.6094569 C6.4265617,13.7254967 5.97767238,11.8414531 5.52878305,9.95749283 C6.66558928,9.89195726 7.80247814,9.82650497 8.93920175,9.76105267 L10.7260837,15.2718696 C12.2741033,15.0826742 13.8222055,14.8933122 15.3703903,14.7041168 C13.6272985,10.6339165 11.884124,6.56379954 10.1409495,2.49359929 C9.15575594,1.66428704 8.17056243,0.835058064 7.18528629,0.00566253972 C4.814179,0.442177734 2.4430717,0.878609656 0.0720470264,1.31512485 M4.49492474,4.30511237 C5.03048532,4.24074262 5.56596328,4.17653941 6.10135861,4.1123362 C6.70062132,5.34585386 7.29988403,6.5794548 7.89898149,7.81297246 C6.98740484,7.94146215 6.07591081,8.07003511 5.16433416,8.19852479 C4.94125277,6.90072065 4.71808876,5.60283324 4.49492474,4.30511237" id="path-21"></path>
        <path d="M0.0720470264,1.31512485 C1.00717116,6.26893111 1.94237792,11.2227374 2.87741943,16.1766269 L6.87545103,15.6094569 C6.4265617,13.7254967 5.97767238,11.8414531 5.52878305,9.95749283 C6.66558928,9.89195726 7.80247814,9.82650497 8.93920175,9.76105267 L10.7260837,15.2718696 C12.2741033,15.0826742 13.8222055,14.8933122 15.3703903,14.7041168 C13.6272985,10.6339165 11.884124,6.56379954 10.1409495,2.49359929 C9.15575594,1.66428704 8.17056243,0.835058064 7.18528629,0.00566253972 C4.814179,0.442177734 2.4430717,0.878609656 0.0720470264,1.31512485 M4.49492474,4.30511237 C5.03048532,4.24074262 5.56596328,4.17653941 6.10135861,4.1123362 C6.70062132,5.34585386 7.29988403,6.5794548 7.89898149,7.81297246 C6.98740484,7.94146215 6.07591081,8.07003511 5.16433416,8.19852479 C4.94125277,6.90072065 4.71808876,5.60283324 4.49492474,4.30511237" id="path-23"></path>
        <polygon id="path-25" points="0.0297772343 0.000316436043 4.51470463 0.000316436043 5.22022017 11.8341085 1.08809187 11.8341085"></polygon>
        <polygon id="path-27" points="0.37163707 2.54078157 4.85656446 2.54078157 4.85656446 0.00129905323 0.0189206067 0.00129905323"></polygon>
        <path d="M9.76803999,15.9934604 C7.36305738,15.8702169 4.95790951,15.7469734 2.55292689,15.6237299 C2.07735042,14.3501581 1.60177395,13.076503 1.12619747,11.8029312 C0.751338118,7.89544568 0.376396139,3.98787691 0.0015367829,0.0803914096 C1.43760257,0.0972124834 2.87358573,0.114033557 4.30965152,0.130854631 C4.44416133,4.11736587 4.57875377,8.10396038 4.71334621,12.0904716 C5.60311046,11.8605559 6.49279209,11.6307234 7.38263896,11.4008909 C7.60704232,7.74139129 7.83152829,4.08205827 8.05593164,0.422641972 C9.68987889,0.424557243 11.3236609,0.426555787 12.9576081,0.428471057 C11.8943361,5.61685635 10.8312294,10.8050751 9.76803999,15.9934604" id="path-29"></path>
        <path d="M0.0654372074,1.29014306 C0.728236801,6.47936108 1.39087115,11.6686624 2.05358812,16.8578804 L11.1833179,16.6517806 C12.0143374,14.8195326 12.8454395,12.9872014 13.676459,11.1548702 C13.4879139,9.26857826 13.2993688,7.38228635 13.1109063,5.49599444 C11.6170873,3.68298245 10.1233508,1.86997047 8.62969698,0.0571250331 C5.77491618,0.468075526 2.92021801,0.879192565 0.0654372074,1.29014306 Z M4.43386654,8.47415724 L4.43386654,5.67319862 C5.36709035,5.56111365 6.30039679,5.44886212 7.2336206,5.33677715 C7.99606321,6.08040185 8.75850582,6.82394328 9.52086582,7.56765125 C9.39792318,8.65827306 9.27498055,9.74889486 9.15203792,10.8395167 C8.57467023,11.2969333 7.9974678,11.7543499 7.42018274,12.2117666 C6.58651932,12.3441701 5.75285591,12.4764903 4.91910987,12.6088938 C4.75733455,11.230565 4.59564186,9.85240276 4.43386654,8.47415724 Z" id="path-31"></path>
    </defs>
    <g id="Page-1" stroke="none" stroke-width="1" fill="none" fill-rule="evenodd">
        <g id="Главная-страница" transform="translate(-530.000000, -909.000000)">
            <g id="logo_creative-studio" transform="translate(530.000000, 909.000000)">
                <g id="Group-14-Copy-3" fill="#FFFFFF">
                    <g id="Group-3">
                        <g id="Fill-1">
                            <g id="path-1-link">
                                <path d="M57.0549963,6.98264656 C57.0549963,6.98264656 71.3210562,20.3505774 99.4457771,30.0423425 C99.4457771,30.0423425 121.252266,38.8985737 117.584181,61.6239336 C117.584181,61.6239336 113.304065,78.5008621 96.1850914,84.1821255 L63.7806272,95.3777905 C63.7806272,95.3777905 34.0255636,109.580949 13.4416451,88.1926272 C13.4416451,88.1926272 6.91990034,82.6782256 5.0856713,67.3051971 L2.23238463,43.4102733 C2.23238463,43.4102733 -5.30804433,21.6873092 7.32767276,10.4916442 C7.32767276,10.4916442 28.5452815,-10.564791 57.0549963,6.98264656" id="path-1"></path>
                            </g>
                        </g>
                    </g>
                </g>
                <g id="Group-20" transform="translate(55.500000, 55.000000) rotate(4.000000) translate(-55.500000, -55.000000) translate(9.000000, 33.000000)">
                    <polygon id="Path-35" fill="#34305C" points="1.21731392 10.1938754 9.58378621 7.49068218 11.4890225 8.51932458 11.862192 7.00037523 21.86502 4.96326604 23.8400698 5.7776788 24.6803391 6.76276698 24.8214511 4.86829869 25.4883672 3.95569081 34.4575241 2.22286679 35.6459829 2.64470544 36.6951691 4.08470244 37.0424243 2.63909193 37.6895002 1.75062214 45.5347661 1.07317073 48.5997114 3.00821313 48.7354554 0.742964353 60.942329 1.4146844e-16 61.8649438 0.742964353 62.1848743 0 67.4864013 0 67.9002601 0.660412758 68.4280105 0 73.7819646 0.198123827 74.6931646 2.04727955 75.8528736 0.198123827 81.9827642 0.264165103 90.8895615 0.990619137 92.4201455 2.22286679 92.4853518 6.47204503 91.7574546 7.34709193 92.4292048 8.25260038 93 12.3001876 92.3373091 13.2033023 93 14.1988743 92.8343273 18.3982244 91.7574546 19.9880525 82.7241496 20.0574784 83.556655 21.7110694 84.0209945 26.0390762 81.2493891 36.9005629 79.9095192 38.1388368 72.4651337 38.0562852 71.2140375 36.9005629 70.8826921 36.3227017 69.2259649 37.8045606 65.0841469 37.9737336 63.8416015 36.5677974 61.9363653 38.0562852 51.8303294 38.6551186 50.4737432 37.3133208 49.9373861 36.9005629 48.4906845 39.2120075 41.80713 39.6247655 39.1890107 37.5961096 38.4936756 36.9005629 37.6895002 38.6551186 37.0854575 40.0654759 30.6178836 40.945591 29.2408705 39.6247655 28.5125776 38.6551186 27.3757779 40.945591 25.993156 42.2664165 17.7845858 44 13.4770951 41.1932458 12.9300438 37.9737336 14.8024768 35.9353696 11.4890225 31.1219512 11.862192 29.3138778 13.2363478 26.9943715 12.5658951 26.8085611 7.59571358 28.4803002 4.71390628 28.1709546 0 21.0506567 0 13.6210131"></polygon>
                    <g id="Group-88" transform="translate(2.000000, 1.000000)">
                        <g id="Group-11" transform="translate(47.838565, 1.329781)" fill="#000000">
                            <path d="M40.4616596,5.22014548 L40.3137649,1.41924896 L31.8165122,0.705435868 C31.6335854,2.9441376 31.4506587,5.18292261 31.2678146,7.42162434 C30.7320061,10.2529775 30.1963629,13.0842473 29.6605545,15.9156005 C33.1843316,16.2733398 36.708026,16.6309958 40.2318031,16.988735 C40.3269845,15.6398848 40.4220833,14.2911178 40.5173473,12.9422675 C38.9133095,12.8677385 37.3092717,12.7931262 35.7053165,12.7185972 L35.3274001,10.0556213 L40.6013746,10.8128195 L40.1722321,7.09061559 L35.968883,6.7131407 L35.4997511,4.15467201 L40.4616596,5.22014548 Z" id="Fill-1"></path>
                            <path d="M28.0028119,15.9713432 C25.5978293,15.8480997 23.1926814,15.7247729 20.7876988,15.6016126 C20.3121223,14.3279576 19.8365458,13.0543858 19.3609694,11.7807307 C18.98611,7.8732452 18.611168,3.9657597 18.2363087,0.0582741956 C19.6723745,0.0750119968 21.1083576,0.0919163434 22.5444234,0.108654145 C22.6789332,4.09524866 22.8135257,8.08175989 22.9481181,12.0683544 C23.8378823,11.8384386 24.727564,11.6085229 25.6174108,11.3787736 C25.8418142,7.71927408 26.0663002,4.05985778 26.2907035,0.400441486 C27.9246508,0.402356756 29.5584328,0.4043553 31.19238,0.406353843 C30.129108,5.59465587 29.0660013,10.7829579 28.0028119,15.9713432" id="Fill-3"></path>
                            <polygon id="Fill-5" points="12.7154326 3.71789867 17.20036 3.71789867 17.9057929 15.5516074 13.7736646 15.5516074"></polygon>
                            <polygon id="Fill-7" points="12.644187 2.67756522 17.1291144 2.67756522 17.1291144 0.138165969 12.2913879 0.138165969"></polygon>
                            <path d="M0.0733442033,0.996332192 C0.275439417,2.68526794 0.477534631,4.37420368 0.679547222,6.0632227 C1.80817381,5.84471529 2.93680039,5.62620787 4.06550959,5.40770046 C4.4815977,8.8977402 4.89776842,12.3876967 5.31385652,15.8776531 C6.98258793,15.9565956 8.65123672,16.0356213 10.3200508,16.1146471 C9.84340019,14.5382127 9.36674962,12.9618615 8.89018168,11.3855937 C8.78896883,9.21517551 8.68792122,7.04484062 8.58670837,4.87442245 C9.62882895,4.93912529 10.6710321,5.00374486 11.7130701,5.06836443 C11.5367532,3.51707837 11.3603536,1.96587557 11.1840367,0.41467278 C7.48047255,0.608531493 3.77690837,0.802473479 0.0733442033,0.996332192" id="Fill-9"></path>
                        </g>
                        <g id="Group-14" transform="translate(35.940890, 2.911961)">
                            <g id="Fill-12-Clipped">
                                <mask id="mask-2" fill="white">
                                    <use xlink:href="#path-1"></use>
                                </mask>
                                <g id="path-4"></g>
                                <path d="M-0.300713712,1.22614803 C2.96899847,0.702363107 6.23862803,0.178578183 9.50842283,-0.345123469 C11.695364,5.21998726 13.8824705,10.785098 16.0694944,16.3502087 C11.6510783,17.0653542 7.23282742,17.7804996 2.81441133,18.4957284 C1.7760914,12.7391738 0.737688842,6.98270257 -0.300713712,1.22614803" id="Fill-12" fill="#000000" mask="url(#mask-2)"></path>
                            </g>
                        </g>
                        <path d="M33.4156504,8.51732578 C33.0140213,7.17638641 32.6123096,5.83544704 32.2107631,4.4944244 C29.2890579,5.1382052 26.3673526,5.78181946 23.4457301,6.42551699 C24.1338948,8.15958651 24.8220596,9.89357275 25.510307,11.6276423 L27.6951,20.6882887 C31.1230347,20.2116361 34.5509695,19.7349002 37.9789042,19.2581644 C37.416987,18.0962612 36.8549045,16.9342747 36.2929046,15.7722883 L30.7720534,17.0089703 L29.7159695,14.5386041 L35.002668,13.878252 L33.6219594,10.3989544 L29.4671099,11.1432453 L28.3499678,8.79778804 L33.4156504,8.51732578 Z" id="Fill-15" fill="#000000"></path>
                        <g id="Group-19" transform="translate(10.493088, 7.325411)">
                            <g id="Fill-17-Clipped">
                                <mask id="mask-4" fill="white">
                                    <use xlink:href="#path-3"></use>
                                </mask>
                                <g id="path-6"></g>
                                <polygon id="Fill-17" fill="#000000" mask="url(#mask-4)" points="-1.05884342 1.04488014 14.4962913 -2.49653882 18.7654081 16.5509125 3.21027338 20.0923314"></polygon>
                            </g>
                        </g>
                        <g id="Group-32" transform="translate(0.000000, 0.413782)">
                            <path d="M6.72173143,16.1492718 L9.83603024,13.6055424 L7.96371641,10.1538081 L0.0242497732,12.7112775 L0.014582913,20.1454427 L4.13522666,26.1553126 L9.67871655,24.8185369 L12.4264183,22.5184632 C11.9589388,20.5023493 11.4914594,18.4863186 11.0238973,16.4702046 C9.98475117,17.312091 8.94568763,18.1539774 7.9066241,18.9958639 C8.03865523,19.8786372 8.17076899,20.761577 8.30288274,21.6443503 L6.92415714,22.1194207 L4.67904951,19.2364385 L4.34897168,14.9609712 L5.24584149,14.6656864 L6.72173143,16.1492718 Z" id="Fill-20" fill="#000000"></path>
                            <g id="Group-87" transform="translate(0.660982, 8.493810)">
                                <g id="Mask" fill="#FF7400">
                                    <path d="M6.72173143,6.07084215 L9.83603024,3.52711272 L7.96371641,0.0752951238 L0.0242497732,2.63284781 L0.014582913,10.067013 L4.13522666,16.0768829 L9.67871655,14.7401072 L12.4264183,12.4400335 C11.9589388,10.4239196 11.4914594,8.40788887 11.0238973,6.39177491 C9.98475117,7.23366133 8.94568763,8.07546448 7.9066241,8.91743418 C8.03865523,9.80020746 8.17076899,10.6831473 8.30288274,11.5659206 L6.92415714,12.040991 L4.67904951,9.15800884 L4.34897168,4.88254153 L5.24584149,4.58725674 L6.72173143,6.07084215 Z" id="path-8"></path>
                                </g>
                                <g id="Clipped">
                                    <mask id="mask-6" fill="white">
                                        <use xlink:href="#path-5"></use>
                                    </mask>
                                    <g id="path-8"></g>
                                    <g id="Group" mask="url(#mask-6)">
                                        <g transform="translate(-3.883269, -11.824715)" id="Fill-85-Clipped">
                                            <g>
                                                <mask id="mask-8" fill="white">
                                                    <use xlink:href="#path-7"></use>
                                                </mask>
                                                <g id="path-10"></g>
                                                <path d="M0,16.9666261 C15.8862867,15.7441837 31.7390286,14.2197115 47.5579777,12.3929595 C63.109725,10.5971849 78.6276795,8.50945652 94.1119239,6.13002402 C93.2953634,4.40261631 92.4788029,2.67529187 91.6622424,0.947884168 L34.5688573,0.00257312467 L12.0252436,6.20155522 L2.33326608,11.3678733 C1.55553826,13.2341797 0.77772782,15.1004029 0,16.9666261" id="Fill-85" fill="#FF8825" mask="url(#mask-8)"></path>
                                            </g>
                                        </g>
                                    </g>
                                </g>
                            </g>
                            <path d="M0.923532164,18.4831042 L4.90363463,24.2879569 L10.2257782,23.0045589 L12.8111263,20.8403862 L11.5332004,15.3290696 L8.8339156,17.5159758 L9.23975848,20.2286654 L7.49881479,20.8285615 L5.09870692,17.7465577 L4.74772553,13.1999547 L5.97426006,12.7959991 L7.39991538,14.229038 L10.1804183,11.9580265 L8.50540759,8.86986052 L0.932868533,11.309166 L0.923532164,18.4831042 Z M4.68881552,24.8534614 L0.427630498,18.6385743 L0.437627849,10.9441821 L8.74402206,8.26838221 L10.813639,12.0838514 L7.36554432,14.9002988 L5.83933713,13.3660836 L5.27221466,13.5528641 L5.58138894,17.5571125 L7.67149631,20.241073 L8.68792122,19.8908283 L8.30124681,17.3064618 L11.8365911,14.442216 L13.3636245,21.0274166 L10.4536517,23.4633912 L4.68881552,24.8534614 Z" id="Fill-24" fill="#FFFFFF" fill-rule="nonzero"></path>
                            <g id="Fill-85" transform="translate(48.416924, 0.249818)">
                                <g id="Mask" fill="#FF7400">
                                    <path d="M0.021465387,0.659910714 C0.223477978,2.34884646 0.425573192,4.03778221 0.627668406,5.72680122 L4.01354815,5.07127898 C4.42971888,8.56123545 4.84580698,12.0511919 5.26197771,15.5411484 C6.9306265,15.6201741 8.59935791,15.6991999 10.2680893,15.7781423 L8.83822024,11.0491722 C8.73709001,8.87875403 8.63595978,6.70841914 8.53482955,4.53800097 C9.57686751,4.60270382 10.6190707,4.66732339 11.6611913,4.73185968 C11.4847917,3.18065689 11.3083922,1.6294541 11.1321579,0.0782513026 C7.42851111,0.272110016 3.72494694,0.466052001 0.021465387,0.659910714" id="path-12"></path>
                                </g>
                                <g id="Clipped">
                                    <mask id="mask-10" fill="white">
                                        <use xlink:href="#path-9"></use>
                                    </mask>
                                    <g id="path-12"></g>
                                    <path d="M-51.6392104,13.3859025 C-35.7529237,12.1634601 -19.9001819,10.6389878 -4.0812327,8.81223585 C11.4705145,7.0164613 26.9884691,4.92873287 42.4727135,2.54930037 C41.656153,0.821892659 40.8395925,-0.905431775 40.023032,-2.63283948 L-17.0703531,-3.57815052 L-39.6139668,2.62083157 L-49.3059443,7.78714961 C-50.0836722,9.65345609 -50.8614826,11.5196793 -51.6392104,13.3859025" id="Path" fill="#FF8825" mask="url(#mask-10)"></path>
                                </g>
                            </g>
                            <path d="M53.8999585,15.551316 L58.3453923,15.7617459 L57.0089695,11.3418839 L56.6912024,4.52135477 L59.7982305,4.71404767 L59.3293464,0.589720203 L48.7162907,1.14531528 L49.2588742,5.68075978 L52.6449192,5.02515426 L53.8999585,15.551316 Z M59.0245511,16.2941079 L53.4577616,16.0306333 L52.2161072,5.61697293 L48.8303927,6.27241191 L48.1604875,0.674158663 L59.7688168,0.0663516419 L60.3579995,5.24932422 L57.212304,5.05429969 L57.5013184,11.2560298 L59.0245511,16.2941079 Z" id="Fill-28" fill="#FFFFFF" fill-rule="nonzero"></path>
                            <path d="M22.6692911,22.8427935 C23.0880232,24.5183224 23.5069205,26.1939345 23.9256525,27.8695466 L27.6100482,27.5402033 C28.2274053,31.1201775 28.844845,34.7003182 29.4623673,38.2802924 L34.4508803,37.9010688 C33.6945518,35.8189196 32.9383058,33.7367705 32.1819773,31.6546213 C32.0249115,30.0119019 31.8679283,28.3690992 31.7109451,26.7263798 C33.2018724,26.4912178 34.692717,26.2561391 36.1835617,26.0210605 C35.5303463,24.4533697 34.8770484,22.8857622 34.2237504,21.3179881 L22.6692911,22.8427935 Z" id="Fill-30" fill="#FFFFFF"></path>
                        </g>
                        <g id="Group-35" transform="translate(11.236692, 6.242867)">
                            <g id="Fill-33-Clipped">
                                <mask id="mask-12" fill="white">
                                    <use xlink:href="#path-11"></use>
                                </mask>
                                <g id="path-14"></g>
                                <polygon id="Fill-33" fill="#FE7400" mask="url(#mask-12)" points="-1.03237936 1.07310124 14.5227554 -2.46831772 18.7918722 16.5791336 3.23673745 20.1205525"></polygon>
                            </g>
                            <g id="Fill-85-Clipped">
                                <mask id="mask-14" fill="white">
                                    <use xlink:href="#path-13"></use>
                                </mask>
                                <g id="path-14"></g>
                                <path d="M-14.4589789,7.80663541 C1.42730778,6.58419301 17.2800496,5.05972073 33.0989988,3.23296876 C48.650746,1.43719422 64.1687006,-0.650534214 79.652945,-3.02996672 C78.8363845,-4.75737442 78.019824,-6.48469886 77.2032635,-8.21210656 L20.1098784,-9.15741761 L-2.43373533,-2.95843552 L-12.1257128,2.20788253 C-12.9034407,4.074189 -13.6812511,5.94041221 -14.4589789,7.80663541" id="Fill-85" fill="#FF8825" mask="url(#mask-14)"></path>
                            </g>
                        </g>
                        <g id="Group-50" transform="translate(10.906201, 0.746872)">
                            <path d="M0.668723644,7.44077705 L4.24529667,21.4125109 L7.93778939,20.8736536 L7.28920091,16.4695301 L11.7177796,19.969396 L16.0978587,18.988361 L10.7997584,14.584404 L12.9283679,13.6480864 L12.6904145,9.23588542 L8.86068536,5.80996561 L0.668723644,7.44077705 Z M3.87638615,21.9711871 L0.0576458834,7.05322617 L9.00593613,5.27177452 L13.1741706,9.00047366 L13.4420335,13.9672704 L11.7381874,14.7168075 L17.1966585,19.254084 L11.5964068,20.5084198 L7.96208048,17.6363464 L8.50111121,21.296179 L3.87638615,21.9711871 Z" id="Fill-36" fill="#FFFFFF" fill-rule="nonzero"></path>
                            <path d="M5.94536689,11.4232246 L6.3647599,13.2946107 L7.80619616,12.9663499 L6.96608817,10.9318327 L5.94536689,11.4232246 Z M5.99039628,13.8919254 L5.37460902,11.1442612 L7.22337538,10.2542432 L8.49031242,13.3228401 L5.99039628,13.8919254 Z" id="Fill-38" fill="#FFFFFF" fill-rule="nonzero"></path>
                            <g id="Fill-85" transform="translate(13.137015, 2.498179)">
                                <g id="Mask" fill="#FF7400">
                                    <path d="M10.0067123,4.0622144 C9.60508317,2.72119176 9.20337142,1.38025239 8.8017423,0.0393130148 C5.88011971,0.683010545 2.9584145,1.3266248 0.0367919046,1.97040561 C0.724956678,3.70439185 1.41312145,5.43846137 2.10128623,7.17253089 L4.28607925,16.2331774 L14.5698834,14.803053 C14.0079662,13.6410665 13.4459663,12.4790801 12.8839665,11.3171769 L7.36303259,12.5538589 L6.30703139,10.0834094 L11.5937298,9.42314061 L10.2130213,5.94384304 L6.05817171,6.68813392 L4.94102969,4.34259339 L10.0067123,4.0622144 Z" id="path-16"></path>
                                </g>
                                <g id="Clipped">
                                    <mask id="mask-16" fill="white">
                                        <use xlink:href="#path-15"></use>
                                    </mask>
                                    <g id="path-16"></g>
                                    <path d="M-27.2655031,10.8044506 C-11.3792164,9.58200816 4.47352545,8.05753588 20.2924746,6.23078391 C35.8442219,4.43500937 51.3621764,2.34728093 66.8464208,-0.0321515675 C66.0298603,-1.75955927 65.2132998,-3.48688371 64.3967393,-5.21429141 L7.30335419,-6.15960246 L-15.2402595,0.0393796329 L-24.932237,5.20569768 C-25.7099648,7.07200415 -26.4877753,8.93822736 -27.2655031,10.8044506" id="Path" fill="#FF8825" mask="url(#mask-16)"></path>
                                </g>
                            </g>
                            <path d="M13.5126098,4.64967791 L15.4791962,9.61172816 L17.6110281,18.4530345 L27.334237,17.1008533 L25.8838774,14.1020389 L20.3536072,15.3407195 L19.0856787,12.3746312 L24.3812177,11.7131966 L23.1948378,8.72354215 L19.0532079,9.4655014 L17.6940639,6.6118312 L22.8153516,6.32837112 L21.7676953,2.83092012 L13.5126098,4.64967791 Z M17.2350946,19.0097121 L15.0016368,9.74696294 L12.8350208,4.28744192 L22.1098361,2.2440978 L23.4721198,6.79236629 L18.4620422,7.06974746 L19.3371823,8.90715833 L23.5052515,8.16045254 L25.0802887,12.1293933 L19.8023483,12.7884962 L20.6465048,14.763307 L26.1581023,13.5287067 L28.0795767,17.5016445 L17.2350946,19.0097121 Z" id="Fill-42" fill="#FFFFFF" fill-rule="nonzero"></path>
                            <g id="Fill-85" transform="translate(67.420153, 0.249818)">
                                <g id="Mask" fill="#FF7400">
                                    <path d="M10.8450439,4.55444732 L10.6971492,0.753550801 C7.86475916,0.515557587 5.0322865,0.277647646 2.19989646,0.0396544326 C2.01696972,2.27843944 1.83404298,4.51714117 1.65119887,6.75592618 C1.11539042,9.58727932 0.579747219,12.4185492 0.0439387714,15.2499023 C3.56771587,15.6075583 7.09141034,15.9652976 10.6151874,16.3229536 C10.7103688,14.9741866 10.8054676,13.6254196 10.9007316,12.2764861 C9.29669381,12.201957 7.692656,12.1273447 6.08870081,12.0528157 L5.71078441,9.38992315 L10.9847589,10.1471213 L10.5556164,6.42483415 L6.35226734,6.04735926 L5.88313544,3.48897385 L10.8450439,4.55444732 Z" id="path-18"></path>
                                </g>
                                <g id="Clipped">
                                    <mask id="mask-18" fill="white">
                                        <use xlink:href="#path-17"></use>
                                    </mask>
                                    <g id="path-18"></g>
                                    <path d="M-81.5486411,13.0528119 C-65.6623544,11.8303695 -49.8096125,10.3058972 -33.9906634,8.47914527 C-18.4389161,6.68337073 -2.92096161,4.5956423 12.5632828,2.21620979 C11.7467223,0.488802087 10.9301618,-1.23852235 10.1136013,-2.96593005 L-46.9797838,-3.9112411 L-69.5233975,2.28774099 L-79.215375,7.45405904 C-79.9931028,9.32036551 -80.7709133,11.1865887 -81.5486411,13.0528119" id="Path" fill="#FF8825" mask="url(#mask-18)"></path>
                                </g>
                            </g>
                            <path d="M67.7583115,15.2785648 L77.8061451,16.2984048 L78.0555831,12.7641473 L73.292465,12.5427253 L72.8387835,9.34547222 L78.1216813,10.1039194 L77.7528534,6.90541723 L73.5628892,6.52919143 L72.992214,3.41654331 L78.005018,4.49300876 L77.8781921,1.23405061 L69.8466838,0.559209107 L69.3148412,7.05247672 L67.7583115,15.2785648 Z M78.2644534,16.8471715 L67.169955,15.720909 L68.8253841,6.97195207 L69.3934154,0.0197689255 L78.3564125,0.772803436 L78.5252934,5.11555504 L73.6144458,4.06107356 L73.9819517,6.06511299 L78.1986857,6.44383697 L78.6882254,10.689909 L73.4231742,9.93404326 L73.7251603,12.0625753 L78.5861863,12.2885772 L78.2644534,16.8471715 Z" id="Fill-46" fill="#FFFFFF" fill-rule="nonzero"></path>
                            <path d="M58.9884368,17.4489413 C61.419115,17.6278109 63.849876,17.8066806 66.2805542,17.9855502 L68.8887062,20.6057239 L69.379981,25.5608625 L67.1875866,34.5031786 L59.8170602,34.5031786 L57.7003483,30.3452922 C57.6128508,28.023984 57.5252707,25.7026758 57.4377732,23.3813676 C57.9546611,21.4038922 58.4715489,19.4264167 58.9884368,17.4489413 M61.8187612,22.460622 C61.6940835,23.8636828 61.5694058,25.2669101 61.4447281,26.6700541 C61.7652217,28.0074961 62.0857979,29.3448547 62.4063741,30.6822966 C62.7591732,30.7027817 63.111807,30.72335 63.4646061,30.7438351 L64.9388436,25.2760701 C64.7001465,24.2499013 64.4615321,23.2237325 64.2229176,22.1973972 C63.4214771,22.2851666 62.6201191,22.3728527 61.8187612,22.460622" id="Fill-48" fill="#FFFFFF" fill-rule="nonzero"></path>
                        </g>
                        <g id="Group-53" transform="translate(68.329003, 18.150855)">
                            <g id="Fill-51-Clipped">
                                <mask id="mask-20" fill="white">
                                    <use xlink:href="#path-19"></use>
                                </mask>
                                <g id="path-20"></g>
                                <polygon id="Fill-51" fill="#FFFFFF" mask="url(#mask-20)" points="-0.319749991 17.9992985 12.5545248 17.9992985 12.5545248 -0.318434587 -0.319749991 -0.318434587"></polygon>
                            </g>
                        </g>
                        <g id="Group-56" transform="translate(36.436627, 1.662871)">
                            <g id="Fill-54-Clipped">
                                <mask id="mask-22" fill="white">
                                    <use xlink:href="#path-21"></use>
                                </mask>
                                <g id="path-22"></g>
                                <path d="M-0.252792525,1.15141083 C3.01691966,0.62762591 6.28663184,0.103924258 9.55634402,-0.419860666 C11.7433679,5.14525007 13.9303917,10.7103608 16.1174155,16.2754715 C11.6990821,16.990617 7.2807486,17.7057624 2.86241514,18.4209912 C1.82401258,12.6644366 0.785610029,6.90796537 -0.252792525,1.15141083" id="Fill-54" fill="#FE7400" mask="url(#mask-22)"></path>
                            </g>
                            <g id="Fill-85-Clipped">
                                <mask id="mask-24" fill="white">
                                    <use xlink:href="#path-23"></use>
                                </mask>
                                <g id="path-22"></g>
                                <path d="M-39.6589136,12.3866308 C-23.7726269,11.1641884 -7.91988505,9.6397161 7.89906412,7.81296413 C23.4508114,6.01718958 38.9687659,3.92946115 54.4530103,1.55002865 C53.6364498,-0.177379057 52.8198893,-1.90470349 52.0033288,-3.6321112 L-5.09005632,-4.57742224 L-27.63367,1.62155985 L-37.3256475,6.78787789 C-38.1033753,8.65418437 -38.8811858,10.5204076 -39.6589136,12.3866308" id="Fill-85" fill="#FF8825" mask="url(#mask-24)"></path>
                            </g>
                        </g>
                        <g id="Group-81" transform="translate(11.484560, 0.080691)">
                            <path d="M24.9957161,2.94064015 L28.0244177,17.4789611 L31.5228296,16.9825729 L30.1706259,11.3072924 L34.0676926,11.0827894 L35.9085271,16.7603182 L40.1773961,16.376348 L34.8894583,4.22986721 L32.0642564,1.85185034 L24.9957161,2.94064015 Z M27.634521,18.0388031 L24.4028153,2.5265253 L32.2104161,1.32390179 L35.2966231,3.92167516 L40.9086073,16.812197 L35.5597766,17.2932631 L33.7148935,11.6035765 L30.7912053,11.7719538 L32.1323376,17.4006848 L27.634521,18.0388031 Z" id="Fill-57" fill="#FFFFFF" fill-rule="nonzero"></path>
                            <path d="M29.5225414,5.90941813 L30.0939603,9.61180311 L32.6644363,9.23083077 L30.9472879,5.74187357 L29.5225414,5.90941813 Z M29.6796899,10.1783069 L28.9535187,5.47323603 L31.2363023,5.2048483 L33.4119242,9.62504346 L29.6796899,10.1783069 Z" id="Fill-59" fill="#FFFFFF" fill-rule="nonzero"></path>
                            <g id="Fill-85" transform="translate(49.656265, 3.830542)">
                                <g id="Mask" fill="#FF7400">
                                    <polygon id="path-24" points="0.0297772343 0.000316436043 4.51470463 0.000316436043 5.22022017 11.8341085 1.08809187 11.8341085"></polygon>
                                </g>
                                <g id="Clipped">
                                    <mask id="mask-26" fill="white">
                                        <use xlink:href="#path-25"></use>
                                    </mask>
                                    <g id="path-24"></g>
                                    <path d="M-64.3631119,10.1382694 C-48.4768252,8.91582701 -32.6240833,7.39135474 -16.8051341,5.56460277 C-1.25338692,3.76882822 14.2645676,1.68109979 29.7488121,-0.698332712 C28.9322516,-2.42574042 28.1156911,-4.15306485 27.2991306,-5.88047256 L-29.7942546,-6.8257836 L-52.3378683,-0.626801511 L-62.0298458,4.53951653 C-62.8075736,6.40582301 -63.585384,8.27204621 -64.3631119,10.1382694" id="Path" fill="#FF8825" mask="url(#mask-26)"></path>
                                </g>
                            </g>
                            <path d="M50.9708834,15.4148654 L54.6133067,15.4148654 L53.9375353,4.08070925 L49.957185,4.08070925 L50.9708834,15.4148654 Z M55.1396962,15.9145013 L50.5177803,15.9145013 L49.4148494,3.58107339 L54.4044364,3.58107339 L55.1396962,15.9145013 Z" id="Fill-63" fill="#FFFFFF" fill-rule="nonzero"></path>
                            <g id="Fill-85" transform="translate(49.243151, 0.249818)">
                                <g id="Mask" fill="#FF7400">
                                    <polygon id="path-26" points="0.37163707 2.54078157 4.85656446 2.54078157 4.85656446 0.00129905323 0.0189206067 0.00129905323"></polygon>
                                </g>
                                <g id="Clipped">
                                    <mask id="mask-28" fill="white">
                                        <use xlink:href="#path-27"></use>
                                    </mask>
                                    <g id="path-26"></g>
                                    <path d="M-63.9499982,13.7189931 C-48.0637115,12.4965507 -32.2109696,10.9720784 -16.3920205,9.14532642 C-0.840273232,7.34955187 14.6776813,5.26182344 30.1619258,2.88239094 C29.3453653,1.15498323 28.5288047,-0.572341203 27.7122442,-2.29974891 L-29.3811409,-3.24505995 L-51.9247546,2.95392214 L-61.6167321,8.12024018 C-62.3944599,9.98654666 -63.1722704,11.8527699 -63.9499982,13.7189931" id="Path" fill="#FF8825" mask="url(#mask-28)"></path>
                                </g>
                            </g>
                            <path d="M49.8303839,2.54078157 L53.8518804,2.54078157 L53.8518804,0.500934911 L49.5470705,0.500934911 L49.8303839,2.54078157 Z M54.3476168,3.04041743 L49.3991758,3.04041743 L48.9771389,0.00129905323 L54.3476168,0.00129905323 L54.3476168,3.04041743 Z" id="Fill-67" fill="#FFFFFF" fill-rule="nonzero"></path>
                            <polygon id="Fill-69" fill="#FFFFFF" points="50.5025033 22.8284873 54.9873481 22.8284873 55.6928637 35.4026564 51.5607353 35.4026564"></polygon>
                            <polygon id="Fill-71" fill="#FFFFFF" points="50.1628165 21.6511203 54.6477439 21.6511203 54.6477439 18.237858 49.8100174 18.237858"></polygon>
                            <g id="Fill-85" transform="translate(55.274611, 0.333091)">
                                <g id="Mask" fill="#FF7400">
                                    <path d="M9.76803999,15.9934604 C7.36305738,15.8702169 4.95790951,15.7469734 2.55292689,15.6237299 C2.07735042,14.3501581 1.60177395,13.076503 1.12619747,11.8029312 C0.751338118,7.89544568 0.376396139,3.98787691 0.0015367829,0.0803914096 C1.43760257,0.0972124834 2.87358573,0.114033557 4.30965152,0.130854631 C4.44416133,4.11736587 4.57875377,8.10396038 4.71334621,12.0904716 C5.60311046,11.8605559 6.49279209,11.6307234 7.38263896,11.4008909 C7.60704232,7.74139129 7.83152829,4.08205827 8.05593164,0.422641972 C9.68987889,0.424557243 11.3236609,0.426555787 12.9576081,0.428471057 C11.8943361,5.61685635 10.8312294,10.8050751 9.76803999,15.9934604" id="path-28"></path>
                                </g>
                                <g id="Clipped">
                                    <mask id="mask-30" fill="white">
                                        <use xlink:href="#path-29"></use>
                                    </mask>
                                    <g id="path-28"></g>
                                    <path d="M-69.981458,13.6357204 C-54.0951713,12.413278 -38.2424294,10.8888057 -22.4234802,9.06205378 C-6.87173301,7.26627923 8.64622152,5.1785508 24.130466,2.79911829 C23.3139055,1.07171059 22.497345,-0.655613846 21.6807845,-2.38302155 L-35.4126007,-3.3283326 L-57.9562144,2.8706495 L-67.6481919,8.03696754 C-68.4259197,9.90327402 -69.2037301,11.7694972 -69.981458,13.6357204" id="Path" fill="#FF8825" mask="url(#mask-30)"></path>
                                </g>
                            </g>
                            <path d="M58.0022931,15.7155879 L64.8428773,16.0661657 L67.9280103,1.0110548 L63.5636295,1.00580862 L62.8934765,11.9308463 L59.7507554,12.7427546 L59.3445821,0.71094019 L55.5494719,0.666555871 L56.6443884,12.0789883 L58.0022931,15.7155879 Z M65.2424409,16.5869529 L57.6527989,16.1979863 L56.1572447,12.1929886 L55.0028399,0.160424747 L59.8238766,0.216883599 L60.2251752,12.1043865 L62.420957,11.53705 L63.0975546,0.505673125 L68.5363615,0.512085118 L65.2424409,16.5869529 Z" id="Fill-75" fill="#FFFFFF" fill-rule="nonzero"></path>
                            <path d="M24.4134819,20.7911471 C25.92176,20.7656657 27.430038,20.7401842 28.9383987,20.7147028 C28.9494701,23.6287457 28.9607068,26.5428718 28.9719435,29.456998 C29.3467203,30.3335258 29.7215796,31.2099704 30.0963564,32.0864982 C31.0366031,31.8510865 31.9768498,31.6156747 32.917014,31.3803462 C32.4477168,27.6272482 31.9785023,23.8741502 31.5092052,20.1210521 C32.8918967,20.0804984 34.2747534,20.0399446 35.6574449,19.9993075 C36.003882,23.726591 36.3503192,27.4539578 36.6967563,31.1812413 C36.0280905,32.9472043 35.3594247,34.7132505 34.6909241,36.4792967 C32.8114221,36.600958 30.9320027,36.7227859 29.0524181,36.8445305 C28.0115368,36.0582702 26.970573,35.2719266 25.9296917,34.4854998 C25.4242058,29.9207433 24.9188852,25.3559036 24.4134819,20.7911471" id="Fill-77" fill="#FFFFFF"></path>
                            <polygon id="Fill-79" fill="#FFFFFF" points="10.5761978 25.1209248 9.83796362 28.8376327 5.88834894 28.8516225 5.40426232 30.5702866 11.0463211 31.1828402 14.0461875 33.6208133 14.0375121 37.287974 12.0649769 40.1932732 4.91604457 41.8861228 1.39094551 38.3057322 5.35534966 36.1579642 6.99978999 37.8642207 9.69395219 37.008511 9.50838152 33.9002763 2.83304276 33.6069901 0.0188297217 29.0956114 3.73520042 25.2833898"></polygon>
                        </g>
                        <g id="Group-84" transform="translate(47.921187, 18.983581)">
                            <g id="Fill-82-Clipped">
                                <mask id="mask-32" fill="white">
                                    <use xlink:href="#path-31"></use>
                                </mask>
                                <g id="path-30"></g>
                                <polygon id="Fill-82" fill="#FFFFFF" mask="url(#mask-32)" points="-0.938701698 0.441403299 12.0157998 -1.59169828 14.7520996 16.1188107 1.79759809 18.1519123"></polygon>
                            </g>
                        </g>
                    </g>
                    <g id="Group-7" transform="translate(56.000000, 3.000000)">
                        <polygon id="Fill-1" fill="#DBEEE1" points="2.46117857 2.00913158 2.77983929 2.15264035 3.55966071 8.77192982e-06"></polygon>
                        <polygon id="Fill-2" fill="#DBEEE1" points="1.36269643 4.93832456 2.46117857 2.92920175 2.14242857 2.78569298"></polygon>
                        <polygon id="Fill-3" fill="#DBEEE1" points="1.95983036 2.33827193 2.12875893 2.03634211 8.92857143e-06 1.11599123"></polygon>
                        <polygon id="Fill-4" fill="#DBEEE1" points="2.86047321 2.82687719 4.98922321 3.74722807 3.0293125 2.52494737"></polygon>
                        <path d="M3.11184821,2.43729825 C3.11184821,2.79036842 2.82050893,3.07659649 2.46122321,3.07659649 C2.10175893,3.07659649 1.81050893,2.79036842 1.81050893,2.43729825 C1.81050893,2.08422807 2.10175893,1.798 2.46122321,1.798 C2.82050893,1.798 3.11184821,2.08422807 3.11184821,2.43729825" id="Fill-5" fill="#D8EEDF"></path>
                    </g>
                    <g id="Group-7-Copy-2" transform="translate(22.000000, 14.000000)">
                        <polygon id="Fill-1" fill="#DBEEE1" points="2.46117857 2.00913158 2.77983929 2.15264035 3.55966071 8.77192982e-06"></polygon>
                        <polygon id="Fill-2" fill="#DBEEE1" points="1.36269643 4.93832456 2.46117857 2.92920175 2.14242857 2.78569298"></polygon>
                        <polygon id="Fill-3" fill="#DBEEE1" points="1.95983036 2.33827193 2.12875893 2.03634211 8.92857143e-06 1.11599123"></polygon>
                        <polygon id="Fill-4" fill="#DBEEE1" points="2.86047321 2.82687719 4.98922321 3.74722807 3.0293125 2.52494737"></polygon>
                        <path d="M3.11184821,2.43729825 C3.11184821,2.79036842 2.82050893,3.07659649 2.46122321,3.07659649 C2.10175893,3.07659649 1.81050893,2.79036842 1.81050893,2.43729825 C1.81050893,2.08422807 2.10175893,1.798 2.46122321,1.798 C2.82050893,1.798 3.11184821,2.08422807 3.11184821,2.43729825" id="Fill-5" fill="#D8EEDF"></path>
                    </g>
                    <g id="Group-7-Copy" transform="translate(85.000000, 5.000000)">
                        <polygon id="Fill-1" fill="#DBEEE1" points="2.46117857 2.00913158 2.77983929 2.15264035 3.55966071 8.77192982e-06"></polygon>
                        <polygon id="Fill-2" fill="#DBEEE1" points="1.36269643 4.93832456 2.46117857 2.92920175 2.14242857 2.78569298"></polygon>
                        <polygon id="Fill-3" fill="#DBEEE1" points="1.95983036 2.33827193 2.12875893 2.03634211 8.92857143e-06 1.11599123"></polygon>
                        <polygon id="Fill-4" fill="#DBEEE1" points="2.86047321 2.82687719 4.98922321 3.74722807 3.0293125 2.52494737"></polygon>
                        <path d="M3.11184821,2.43729825 C3.11184821,2.79036842 2.82050893,3.07659649 2.46122321,3.07659649 C2.10175893,3.07659649 1.81050893,2.79036842 1.81050893,2.43729825 C1.81050893,2.08422807 2.10175893,1.798 2.46122321,1.798 C2.82050893,1.798 3.11184821,2.08422807 3.11184821,2.43729825" id="Fill-5" fill="#D8EEDF"></path>
                    </g>
                </g>
            </g>
        </g>
    </g>
</svg>