<svg width="128" height="93" fill="none" xmlns="http://www.w3.org/2000/svg"><path d="M25.374 69.43V42.81L1.6 1.37h16.91l14.921 27.107h.199L47.954 1.37h16.413L40.593 42.713V69.43h-15.22zm70.487 1.17c-4.575 0-8.753-.747-12.533-2.242-3.78-1.496-6.997-3.706-9.65-6.63-2.652-2.991-4.708-6.664-6.166-11.02-1.46-4.42-2.189-9.522-2.189-15.308 0-5.785.73-10.856 2.189-15.21 1.458-4.421 3.514-8.094 6.167-11.02 2.652-2.99 5.869-5.232 9.649-6.727C87.108.948 91.286.2 95.86.2c4.576 0 8.754.748 12.534 2.243 3.78 1.495 6.996 3.738 9.649 6.728 2.652 2.925 4.708 6.598 6.167 11.018 1.459 4.355 2.189 9.426 2.189 15.211 0 5.786-.73 10.889-2.189 15.309-1.459 4.355-3.515 8.028-6.167 11.018-2.653 2.925-5.869 5.135-9.649 6.63-3.78 1.496-7.958 2.243-12.534 2.243zm0-13.163c4.576 0 8.124-1.463 10.644-4.388 2.586-2.925 3.879-7.118 3.879-12.578V30.33c0-5.46-1.293-9.653-3.879-12.579-2.52-2.925-6.068-4.387-10.644-4.387-4.575 0-8.157 1.462-10.743 4.387-2.52 2.926-3.78 7.118-3.78 12.579v10.14c0 5.46 1.26 9.654 3.78 12.579 2.587 2.925 6.168 4.388 10.743 4.388zM3.07 92.84v-3.63L0 83.56h2.184l1.926 3.696h.026l1.85-3.696h2.12l-3.07 5.637v3.644H3.07zm6.145 0v-9.28h6.102v1.795h-4.15v1.901h3.559v1.782h-3.558v2.008h4.149v1.795H9.215zm7.803 0v-9.28h1.952v7.486h3.417v1.795h-5.37zm6.464 0v-1.608h1.156v-6.063h-1.156v-1.61h4.265v1.61H26.59v6.063h1.156v1.609h-4.265zm9.013-4.041l-1.169 1.462v2.58h-1.952V83.56h1.952v4.414h.077l1.272-1.795 2.017-2.62H36.9l-3.019 3.817 3.289 5.465h-2.3l-2.376-4.042zm5.823-5.239h4.354c.745 0 1.323.217 1.734.651.42.435.63 1.01.63 1.729 0 .354-.048.656-.142.904a1.629 1.629 0 0 1-.36.612c-.145.16-.32.279-.526.359a2.19 2.19 0 0 1-.642.12v.08c.214 0 .436.039.668.119.24.08.458.208.655.385.197.169.36.39.488.665.137.275.205.612.205 1.01 0 .364-.06.71-.18 1.038-.11.319-.27.598-.475.838-.205.239-.45.43-.732.571-.283.133-.59.2-.925.2h-4.752V83.56zm1.952 7.579h2.248c.257 0 .458-.071.604-.213.154-.15.23-.359.23-.625v-.452c0-.266-.076-.47-.23-.612-.146-.15-.347-.226-.604-.226H40.27v2.128zm0-3.776h1.94c.257 0 .458-.076.603-.227.146-.15.219-.358.219-.624v-.4c0-.265-.073-.474-.219-.624-.145-.151-.346-.226-.603-.226h-1.94v2.1zm11.95 5.477l-.642-2.207h-2.993l-.642 2.208h-1.978l2.954-9.281h2.415l2.916 9.28h-2.03zm-2.12-7.445h-.063l-.99 3.523h2.056L50.1 85.395zm6.684 7.445v-3.63l-3.07-5.65h2.183l1.927 3.696h.026l1.85-3.696h2.119l-3.07 5.637v3.644h-1.965zm6.145 0v-9.28h6.101v1.795h-4.149v1.901h3.558v1.782h-3.558v2.008h4.15v1.795h-6.102zm9.883 0l-2.89-9.28H71.9l1.336 4.454.707 2.912h.038l.68-2.912 1.337-4.454h1.914l-2.916 9.28h-2.184zm6.51.147c-.385 0-.672-.098-.86-.293-.18-.204-.27-.46-.27-.77v-.267c0-.31.09-.563.27-.758.188-.204.475-.305.86-.305.386 0 .668.102.848.305.189.195.283.448.283.758v.266c0 .31-.094.567-.283.771-.18.195-.462.293-.848.293zM85.38 93a4.164 4.164 0 0 1-1.62-.306 3.293 3.293 0 0 1-1.245-.904c-.343-.408-.608-.908-.797-1.502-.188-.603-.282-1.299-.282-2.088 0-.789.094-1.48.282-2.074.189-.603.454-1.104.797-1.502a3.233 3.233 0 0 1 1.246-.918 4.159 4.159 0 0 1 1.618-.306c.591 0 1.13.102 1.619.306.488.204.903.51 1.246.918.342.398.608.9.796 1.502.189.594.283 1.285.283 2.074 0 .79-.094 1.485-.283 2.088-.188.594-.454 1.094-.796 1.502-.343.4-.758.7-1.246.904a4.159 4.159 0 0 1-1.619.306zm0-1.795c.59 0 1.048-.2 1.374-.598.334-.399.5-.97.5-1.715v-1.383c0-.745-.166-1.317-.5-1.715-.326-.4-.784-.599-1.375-.599-.59 0-1.053.2-1.387.599-.325.398-.488.97-.488 1.715v1.383c0 .744.163 1.316.488 1.715.334.399.796.598 1.387.598zm8.308-2.752l-.86-1.862h-.039v6.25h-1.837V83.56h2.133l2.453 4.388.86 1.861h.04v-6.25h1.836v9.282h-2.132l-2.454-4.388zm6.56 4.387v-9.28h1.952v7.486h3.417v1.795h-5.369zm6.464 0v-1.608h1.156v-6.063h-1.156v-1.61h4.265v1.61h-1.156v6.063h1.156v1.609h-4.265zm8.627-4.387l-.86-1.862h-.039v6.25h-1.837V83.56h2.133l2.453 4.388.861 1.861h.038v-6.25h1.837v9.282h-2.132l-2.454-4.388zm6.56 4.387v-9.28H128v1.795h-4.149v1.901h3.558v1.782h-3.558v2.008H128v1.795h-6.101z" fill="red"/></svg>