<svg width="120" height="120" fill="none" xmlns="http://www.w3.org/2000/svg"><path d="M53.998 56.498L32 40 10.001 56.498V64.5l21.998 16.498L54 64.5v-8.002z" fill="#CA3030"/><g filter="url(#filter0_i)"><path fill="red" d="M31.999 40l21.999 16.498-22 16.498L10 56.498z"/><path transform="scale(1.1314 .8485) rotate(45 -42.765 57.711)" fill="url(#paint0_linear)" fill-opacity=".5" d="M0 0h27.498v27.498H0z"/></g><g filter="url(#filter1_d)" clip-path="url(#clip0)"><path d="M36.583 59.937l1.834-1.375-9.167-6.875-3.667 2.75 1.834 1.375 1.833-1.375 7.333 5.5z" fill="#fff"/></g><path d="M109.998 56.498L87.999 40 66.001 56.498V64.5l21.998 16.498L109.998 64.5v-8.002z" fill="#CA3030"/><g filter="url(#filter2_i)"><path fill="red" d="M87.999 40l21.999 16.498-22 16.498L66 56.498z"/><path transform="matrix(.80002 .59998 -.80002 .59998 88 40)" fill="url(#paint1_linear)" fill-opacity=".5" d="M0 0h27.498v27.498H0z"/></g><g filter="url(#filter3_d)" clip-path="url(#clip1)"><path d="M93.5 59.249l1.833-1.375L86.167 51l-1.834 1.375L88 55.124 86.167 56.5 82.5 53.75l-1.833 1.375 5.5 4.125 3.666-2.75 3.667 2.75z" fill="#fff"/></g><path d="M81.998 35.498L60 19 38.001 35.498V43.5l21.998 16.498L82 43.5v-8.002z" fill="#CA3030"/><g filter="url(#filter4_i)"><path fill="red" d="M59.999 19l21.999 16.498-22 16.498L38 35.498z"/><path transform="scale(1.1314 .8485) rotate(45 -.515 75.21)" fill="url(#paint2_linear)" fill-opacity=".5" d="M0 0h27.498v27.498H0z"/></g><g filter="url(#filter5_d)" clip-path="url(#clip2)"><path d="M65.5 35.5l-3.667 2.75L60 36.873l1.833-1.375c1.009-.756 1.018-1.987 0-2.75L60 31.374c-1.018-.763-2.658-.756-3.667 0l-3.666 2.75L54.5 35.5l3.667-2.75L60 34.124 58.167 35.5c-1.009.756-1.018 1.987 0 2.75L61.833 41l5.5-4.125L65.5 35.5z" fill="#fff"/></g><path d="M81.998 77.498L60 61 38.001 77.498V85.5l21.998 16.498L82 85.5v-8.002z" fill="#CA3030"/><g filter="url(#filter6_i)"><path fill="red" d="M59.999 61l21.999 16.498-22 16.498L38 77.498z"/><path transform="matrix(.80002 .59998 -.80002 .59998 60 61)" fill="url(#paint3_linear)" fill-opacity=".5" d="M0 0h27.498v27.498H0z"/></g><g filter="url(#filter7_d)" clip-path="url(#clip3)"><path d="M65.5 77.5l-1.375-1.032c-.76-.57-1.99-.57-2.75 0 .76-.57.76-1.492 0-2.062L60 73.374c-1.018-.763-2.658-.756-3.667 0l-3.666 2.75L54.5 77.5l3.667-2.75L60 76.124 58.167 77.5 60 78.874l1.833-1.375 1.834 1.375L60 81.624l1.833 1.375 3.667-2.75c1.008-.756 1.017-1.987 0-2.75z" fill="#fff"/></g><defs><filter id="filter0_i" x="10" y="40" width="43.998" height="32.996" filterUnits="userSpaceOnUse" color-interpolation-filters="sRGB"><feFlood flood-opacity="0" result="BackgroundImageFix"/><feBlend in="SourceGraphic" in2="BackgroundImageFix" result="shape"/><feColorMatrix in="SourceAlpha" values="0 0 0 0 0 0 0 0 0 0 0 0 0 0 0 0 0 0 127 0" result="hardAlpha"/><feOffset dy="-1"/><feComposite in2="hardAlpha" operator="arithmetic" k2="-1" k3="1"/><feColorMatrix values="0 0 0 0 1 0 0 0 0 1 0 0 0 0 1 0 0 0 0.1 0"/><feBlend in2="shape" result="effect1_innerShadow"/></filter><filter id="filter1_d" x="17.583" y="42.687" width="28.833" height="24.25" filterUnits="userSpaceOnUse" color-interpolation-filters="sRGB"><feFlood flood-opacity="0" result="BackgroundImageFix"/><feColorMatrix in="SourceAlpha" values="0 0 0 0 0 0 0 0 0 0 0 0 0 0 0 0 0 0 127 0"/><feOffset dy="-1"/><feGaussianBlur stdDeviation="4"/><feColorMatrix values="0 0 0 0 1 0 0 0 0 1 0 0 0 0 1 0 0 0 0.75 0"/><feBlend in2="BackgroundImageFix" result="effect1_dropShadow"/><feBlend in="SourceGraphic" in2="effect1_dropShadow" result="shape"/></filter><filter id="filter2_i" x="66" y="40" width="43.998" height="32.996" filterUnits="userSpaceOnUse" color-interpolation-filters="sRGB"><feFlood flood-opacity="0" result="BackgroundImageFix"/><feBlend in="SourceGraphic" in2="BackgroundImageFix" result="shape"/><feColorMatrix in="SourceAlpha" values="0 0 0 0 0 0 0 0 0 0 0 0 0 0 0 0 0 0 127 0" result="hardAlpha"/><feOffset dy="-1"/><feComposite in2="hardAlpha" operator="arithmetic" k2="-1" k3="1"/><feColorMatrix values="0 0 0 0 1 0 0 0 0 1 0 0 0 0 1 0 0 0 0.1 0"/><feBlend in2="shape" result="effect1_innerShadow"/></filter><filter id="filter3_d" x="72.667" y="41.999" width="30.667" height="24.25" filterUnits="userSpaceOnUse" color-interpolation-filters="sRGB"><feFlood flood-opacity="0" result="BackgroundImageFix"/><feColorMatrix in="SourceAlpha" values="0 0 0 0 0 0 0 0 0 0 0 0 0 0 0 0 0 0 127 0"/><feOffset dy="-1"/><feGaussianBlur stdDeviation="4"/><feColorMatrix values="0 0 0 0 1 0 0 0 0 1 0 0 0 0 1 0 0 0 0.75 0"/><feBlend in2="BackgroundImageFix" result="effect1_dropShadow"/><feBlend in="SourceGraphic" in2="effect1_dropShadow" result="shape"/></filter><filter id="filter4_i" x="38" y="19" width="43.998" height="32.996" filterUnits="userSpaceOnUse" color-interpolation-filters="sRGB"><feFlood flood-opacity="0" result="BackgroundImageFix"/><feBlend in="SourceGraphic" in2="BackgroundImageFix" result="shape"/><feColorMatrix in="SourceAlpha" values="0 0 0 0 0 0 0 0 0 0 0 0 0 0 0 0 0 0 127 0" result="hardAlpha"/><feOffset dy="-1"/><feComposite in2="hardAlpha" operator="arithmetic" k2="-1" k3="1"/><feColorMatrix values="0 0 0 0 1 0 0 0 0 1 0 0 0 0 1 0 0 0 0.1 0"/><feBlend in2="shape" result="effect1_innerShadow"/></filter><filter id="filter5_d" x="44.667" y="21.805" width="30.667" height="26.194" filterUnits="userSpaceOnUse" color-interpolation-filters="sRGB"><feFlood flood-opacity="0" result="BackgroundImageFix"/><feColorMatrix in="SourceAlpha" values="0 0 0 0 0 0 0 0 0 0 0 0 0 0 0 0 0 0 127 0"/><feOffset dy="-1"/><feGaussianBlur stdDeviation="4"/><feColorMatrix values="0 0 0 0 1 0 0 0 0 1 0 0 0 0 1 0 0 0 0.75 0"/><feBlend in2="BackgroundImageFix" result="effect1_dropShadow"/><feBlend in="SourceGraphic" in2="effect1_dropShadow" result="shape"/></filter><filter id="filter6_i" x="38" y="61" width="43.998" height="32.996" filterUnits="userSpaceOnUse" color-interpolation-filters="sRGB"><feFlood flood-opacity="0" result="BackgroundImageFix"/><feBlend in="SourceGraphic" in2="BackgroundImageFix" result="shape"/><feColorMatrix in="SourceAlpha" values="0 0 0 0 0 0 0 0 0 0 0 0 0 0 0 0 0 0 127 0" result="hardAlpha"/><feOffset dy="-1"/><feComposite in2="hardAlpha" operator="arithmetic" k2="-1" k3="1"/><feColorMatrix values="0 0 0 0 1 0 0 0 0 1 0 0 0 0 1 0 0 0 0.1 0"/><feBlend in2="shape" result="effect1_innerShadow"/></filter><filter id="filter7_d" x="44.667" y="63.805" width="29.593" height="26.194" filterUnits="userSpaceOnUse" color-interpolation-filters="sRGB"><feFlood flood-opacity="0" result="BackgroundImageFix"/><feColorMatrix in="SourceAlpha" values="0 0 0 0 0 0 0 0 0 0 0 0 0 0 0 0 0 0 127 0"/><feOffset dy="-1"/><feGaussianBlur stdDeviation="4"/><feColorMatrix values="0 0 0 0 1 0 0 0 0 1 0 0 0 0 1 0 0 0 0.75 0"/><feBlend in2="BackgroundImageFix" result="effect1_dropShadow"/><feBlend in="SourceGraphic" in2="effect1_dropShadow" result="shape"/></filter><linearGradient id="paint0_linear" x1="52.92" y1="55.974" x2="10.188" y2="48.844" gradientUnits="userSpaceOnUse"><stop stop-color="#fff"/><stop offset="1" stop-color="#fff" stop-opacity="0"/></linearGradient><linearGradient id="paint1_linear" x1="52.92" y1="55.974" x2="10.188" y2="48.844" gradientUnits="userSpaceOnUse"><stop stop-color="#fff"/><stop offset="1" stop-color="#fff" stop-opacity="0"/></linearGradient><linearGradient id="paint2_linear" x1="52.92" y1="55.974" x2="10.188" y2="48.844" gradientUnits="userSpaceOnUse"><stop stop-color="#fff"/><stop offset="1" stop-color="#fff" stop-opacity="0"/></linearGradient><linearGradient id="paint3_linear" x1="52.92" y1="55.974" x2="10.188" y2="48.844" gradientUnits="userSpaceOnUse"><stop stop-color="#fff"/><stop offset="1" stop-color="#fff" stop-opacity="0"/></linearGradient><clipPath id="clip0"><path fill="#fff" transform="matrix(.80001 -.59998 .80001 .59998 10 56.5)" d="M0 0h27.499v27.499H0z"/></clipPath><clipPath id="clip1"><path fill="#fff" transform="matrix(.80001 -.59998 .80001 .59998 66 56.5)" d="M0 0h27.499v27.499H0z"/></clipPath><clipPath id="clip2"><path fill="#fff" transform="matrix(.80001 -.59998 .80001 .59998 38 35.5)" d="M0 0h27.499v27.499H0z"/></clipPath><clipPath id="clip3"><path fill="#fff" transform="matrix(.80001 -.59998 .80001 .59998 38 77.5)" d="M0 0h27.499v27.499H0z"/></clipPath></defs></svg>