<svg width="120" height="120" fill="none" xmlns="http://www.w3.org/2000/svg"><path d="M109.995 56.12L60.498 19 11.001 56.12v8l49.497 37.121 49.497-37.12v-8z" fill="#CA3030"/><g filter="url(#filter0_i)"><path fill="#EC3434" d="M60.498 19l49.497 37.12-49.498 37.12L11 56.12z"/><path transform="scale(1.1314 .8485) rotate(45 -.295 75.742)" fill="url(#paint0_linear)" fill-opacity=".5" d="M0 0h61.87v61.87H0z"/></g><g filter="url(#filter1_d)"><path d="M63.99 62.928l2.093-10.992-14.656 1.57 12.563 9.422zM46.542 45.655c-7.705 5.779-7.705 15.158 0 20.937 7.705 5.778 20.211 5.778 27.916 0 7.705-5.779 7.705-15.158 0-20.937-7.705-5.778-20.211-5.778-27.916 0zm25.125 18.843c-6.156 4.617-16.178 4.617-22.334 0-6.155-4.617-6.155-12.133 0-16.75 6.156-4.616 16.178-4.616 22.334 0 6.155 4.617 6.155 12.134 0 16.75z" fill="#fff"/></g><defs><filter id="filter0_i" x="11" y="19" width="98.995" height="74.241" filterUnits="userSpaceOnUse" color-interpolation-filters="sRGB"><feFlood flood-opacity="0" result="BackgroundImageFix"/><feBlend in="SourceGraphic" in2="BackgroundImageFix" result="shape"/><feColorMatrix in="SourceAlpha" values="0 0 0 0 0 0 0 0 0 0 0 0 0 0 0 0 0 0 127 0" result="hardAlpha"/><feOffset dy="-1"/><feComposite in2="hardAlpha" operator="arithmetic" k2="-1" k3="1"/><feColorMatrix values="0 0 0 0 1 0 0 0 0 1 0 0 0 0 1 0 0 0 0.1 0"/><feBlend in2="shape" result="effect1_innerShadow"/></filter><filter id="filter1_d" x="32.763" y="32.321" width="55.474" height="45.604" filterUnits="userSpaceOnUse" color-interpolation-filters="sRGB"><feFlood flood-opacity="0" result="BackgroundImageFix"/><feColorMatrix in="SourceAlpha" values="0 0 0 0 0 0 0 0 0 0 0 0 0 0 0 0 0 0 127 0"/><feOffset dy="-1"/><feGaussianBlur stdDeviation="4"/><feColorMatrix values="0 0 0 0 1 0 0 0 0 1 0 0 0 0 1 0 0 0 0.75 0"/><feBlend in2="BackgroundImageFix" result="effect1_dropShadow"/><feBlend in="SourceGraphic" in2="effect1_dropShadow" result="shape"/></filter><linearGradient id="paint0_linear" x1="119.07" y1="125.941" x2="22.922" y2="109.9" gradientUnits="userSpaceOnUse"><stop stop-color="#fff"/><stop offset="1" stop-color="#fff" stop-opacity="0"/></linearGradient></defs></svg>