<svg width="120" height="120" fill="none" xmlns="http://www.w3.org/2000/svg"><path d="M109.996 56.12L60.498 19 11.001 56.12v8l49.497 37.121 49.498-37.12v-8z" fill="#CA3030"/><g filter="url(#filter0_i)"><path fill="#EC3434" d="M60.497 19l49.498 37.12-49.498 37.12L11 56.12z"/><path transform="scale(1.1314 .8485) rotate(45 -.295 75.742)" fill="url(#paint0_linear)" fill-opacity=".5" d="M0 0h61.87v61.87H0z"/></g><g filter="url(#filter1_d)"><path d="M56.356 56.916a3.394 3.394 0 0 1-.772-1.189 1.908 1.908 0 0 1-.04-1.229c.122-.396.433-.771.92-1.157a3.735 3.735 0 0 1 1.03-.508 4.014 4.014 0 0 1 1.191-.163c.393.01.786.082 1.178.193a3.64 3.64 0 0 1 1.057.508l2.424-1.818a7.43 7.43 0 0 0-2.126-1.025 7.473 7.473 0 0 0-2.316-.315c-.785.02-1.57.162-2.356.426a7.748 7.748 0 0 0-2.194 1.178c-.88.66-1.503 1.351-1.842 2.072-.338.721-.474 1.432-.379 2.153.095.721.38 1.422.88 2.102.502.68 1.11 1.32 1.896 1.91l.366.274a11.529 11.529 0 0 0 2.532 1.432 8.713 8.713 0 0 0 2.79.65 8.57 8.57 0 0 0 2.857-.295 8.335 8.335 0 0 0 2.763-1.38c.636-.478 1.123-1.006 1.476-1.575.352-.569.555-1.148.609-1.737a3.366 3.366 0 0 0-.27-1.706 3.812 3.812 0 0 0-1.152-1.472l-2.424 1.817c.271.224.46.468.582.742.122.274.163.548.136.833a1.838 1.838 0 0 1-.298.832c-.163.264-.406.488-.677.711-.501.356-1.002.59-1.517.67a4.436 4.436 0 0 1-1.638-.03 5.828 5.828 0 0 1-1.598-.589 12.68 12.68 0 0 1-1.463-.934l-.365-.274c-.474-.356-.88-.722-1.26-1.108zm-9.398-10.948c-7.475 5.606-7.475 14.705 0 20.311s19.609 5.606 27.084 0c7.475-5.606 7.475-14.705 0-20.311-7.475-5.607-19.609-5.607-27.084 0zm24.375 18.28c-5.972 4.479-15.694 4.479-21.666 0-5.972-4.479-5.972-11.77 0-16.25 5.971-4.478 15.694-4.478 21.666 0 5.972 4.48 5.972 11.771 0 16.25z" fill="#fff"/></g><defs><filter id="filter0_i" x="11" y="19" width="98.995" height="74.241" filterUnits="userSpaceOnUse" color-interpolation-filters="sRGB"><feFlood flood-opacity="0" result="BackgroundImageFix"/><feBlend in="SourceGraphic" in2="BackgroundImageFix" result="shape"/><feColorMatrix in="SourceAlpha" values="0 0 0 0 0 0 0 0 0 0 0 0 0 0 0 0 0 0 127 0" result="hardAlpha"/><feOffset dy="-1"/><feComposite in2="hardAlpha" operator="arithmetic" k2="-1" k3="1"/><feColorMatrix values="0 0 0 0 1 0 0 0 0 1 0 0 0 0 1 0 0 0 0.1 0"/><feBlend in2="shape" result="effect1_innerShadow"/></filter><filter id="filter1_d" x="33.352" y="32.763" width="54.296" height="44.721" filterUnits="userSpaceOnUse" color-interpolation-filters="sRGB"><feFlood flood-opacity="0" result="BackgroundImageFix"/><feColorMatrix in="SourceAlpha" values="0 0 0 0 0 0 0 0 0 0 0 0 0 0 0 0 0 0 127 0"/><feOffset dy="-1"/><feGaussianBlur stdDeviation="4"/><feColorMatrix values="0 0 0 0 1 0 0 0 0 1 0 0 0 0 1 0 0 0 0.75 0"/><feBlend in2="BackgroundImageFix" result="effect1_dropShadow"/><feBlend in="SourceGraphic" in2="effect1_dropShadow" result="shape"/></filter><linearGradient id="paint0_linear" x1="119.07" y1="125.941" x2="22.922" y2="109.9" gradientUnits="userSpaceOnUse"><stop stop-color="#fff"/><stop offset="1" stop-color="#fff" stop-opacity="0"/></linearGradient></defs></svg>