<svg width="120" height="120" fill="none" xmlns="http://www.w3.org/2000/svg"><path d="M53.999 56.498L32 40 10.001 56.498V64.5l22 16.498L53.998 64.5v-8.002z" fill="#CA3030"/><g filter="url(#filter0_i)"><path fill="#EC3434" d="M32 40l21.998 16.498-21.999 16.498L10 56.498z"/><path transform="matrix(.80002 .59997 -.80002 .59997 32 40)" fill="url(#paint0_linear)" fill-opacity=".5" d="M0 0h27.498v27.498H0z"/></g><g filter="url(#filter1_d)" clip-path="url(#clip0)"><path d="M36.583 59.936l1.834-1.375-9.167-6.874-3.667 2.75 1.834 1.375 1.833-1.375 7.333 5.5z" fill="#fff"/></g><g opacity=".5" stroke="#EC3434" stroke-linejoin="round" stroke-dasharray="4 2"><path d="M109.499 59.165h.5v2.668h-.5v2.417l-1.266.95.3.4-1.467 1.1-.3-.4-2.933 2.2.3.4-1.467 1.1-.3-.4-2.933 2.199.3.4-1.467 1.1-.3-.4-2.933 2.2.3.4-1.466 1.1-.3-.4-2.933 2.2.3.4-1.467 1.099-.3-.4-1.167.875-1.166-.875-.3.4-1.467-1.1.3-.4-2.933-2.2-.3.4-1.467-1.1.3-.4-2.933-2.2-.3.4-1.466-1.1.3-.4-2.933-2.199-.3.4-1.467-1.1.3-.4-2.933-2.2-.3.4-1.467-1.1.3-.4-1.266-.95v-2.416h-.5v-2.668h.5v-2.417l1.266-.95-.3-.4 1.467-1.1.3.4 2.933-2.2-.3-.4 1.467-1.1.3.4 2.933-2.2-.3-.4 1.466-1.1.3.4 2.933-2.199-.3-.4 1.467-1.1.3.4 2.933-2.2-.3-.4 1.467-1.1.3.4L88 40.626l1.167.875.3-.4 1.466 1.1-.3.4 2.934 2.2.3-.4 1.466 1.1-.3.4 2.933 2.199.3-.4 1.467 1.1-.3.4 2.933 2.2.3-.4 1.467 1.1-.3.4 2.933 2.2.3-.4 1.467 1.099-.3.4 1.266.95v2.417z" fill="#EC3434" fill-opacity=".1"/><path transform="scale(1.1314 .8485) rotate(45 -18.146 118.112)" d="M0 .6h26.498v26.498H0z"/></g><g opacity=".5" stroke="#EC3434" stroke-linejoin="round" stroke-dasharray="4 2"><path d="M81.498 38.166h.5v2.667h-.5v2.417l-1.266.95.3.4-1.467 1.1-.3-.4-2.933 2.2.3.4-1.467 1.1-.3-.4-2.933 2.2.3.4-1.466 1.1-.3-.4-2.933 2.199.3.4-1.467 1.1-.3-.4-2.933 2.2.3.4-1.467 1.1-.3-.4-1.166.874-1.167-.874-.3.4-1.467-1.1.3-.4-2.933-2.2-.3.4-1.466-1.1.3-.4-2.934-2.2-.3.4-1.466-1.1.3-.4-2.933-2.2-.3.4-1.467-1.1.3-.4-2.933-2.199-.3.4-1.467-1.1.3-.4-1.266-.95v-2.417H38v-2.667h.5v-2.418l1.266-.95-.3-.4 1.467-1.1.3.4 2.933-2.2-.3-.4L45.334 30l.3.4 2.933-2.2-.3-.4 1.466-1.1.3.4 2.934-2.2-.3-.4 1.466-1.1.3.4 2.933-2.199-.3-.4 1.467-1.1.3.4 1.166-.875 1.167.875.3-.4 1.467 1.1-.3.4 2.933 2.2.3-.4 1.466 1.1-.3.4 2.934 2.2.3-.4 1.466 1.1-.3.4 2.933 2.199.3-.4 1.467 1.1-.3.4 2.933 2.2.3-.4 1.467 1.1-.3.4 1.266.95v2.417z" fill="#EC3434" fill-opacity=".1"/><path transform="scale(1.1314 .8485) rotate(45 -.644 75.864)" d="M0 .6h26.498v26.498H0z"/></g><g opacity=".5" stroke="#EC3434" stroke-linejoin="round" stroke-dasharray="4 2"><path d="M81.498 80.165h.5v2.668h-.5v2.417l-1.266.95.3.4-1.467 1.1-.3-.4-2.933 2.2.3.4-1.467 1.1-.3-.4-2.933 2.199.3.4-1.466 1.1-.3-.4-2.933 2.2.3.4-1.467 1.1-.3-.4-2.933 2.2.3.4-1.467 1.099-.3-.4-1.166.875-1.167-.875-.3.4-1.467-1.1.3-.4-2.933-2.2-.3.4-1.466-1.1.3-.4-2.934-2.2-.3.4-1.466-1.099.3-.4-2.933-2.2-.3.4-1.467-1.1.3-.4-2.933-2.2-.3.4-1.467-1.1.3-.4-1.266-.949v-2.417H38v-2.668h.5v-2.417l1.266-.95-.3-.4 1.467-1.1.3.4 2.933-2.2-.3-.4 1.467-1.1.3.4 2.933-2.2-.3-.4 1.466-1.099.3.4 2.934-2.2-.3-.4 1.466-1.1.3.4 2.933-2.2-.3-.4 1.467-1.1.3.4L60 61.626l1.166.875.3-.4 1.467 1.1-.3.4 2.933 2.2.3-.4 1.466 1.1-.3.4 2.934 2.2.3-.4 1.466 1.099-.3.4 2.933 2.2.3-.4 1.467 1.1-.3.4 2.933 2.2.3-.4 1.467 1.1-.3.4 1.266.949v2.417z" fill="#EC3434" fill-opacity=".1"/><path transform="scale(1.1314 .8485) rotate(45 -60.395 100.614)" d="M0 .6h26.498v26.498H0z"/></g><defs><filter id="filter0_i" x="10" y="40" width="43.998" height="32.996" filterUnits="userSpaceOnUse" color-interpolation-filters="sRGB"><feFlood flood-opacity="0" result="BackgroundImageFix"/><feBlend in="SourceGraphic" in2="BackgroundImageFix" result="shape"/><feColorMatrix in="SourceAlpha" values="0 0 0 0 0 0 0 0 0 0 0 0 0 0 0 0 0 0 127 0" result="hardAlpha"/><feOffset dy="-1"/><feComposite in2="hardAlpha" operator="arithmetic" k2="-1" k3="1"/><feColorMatrix values="0 0 0 0 1 0 0 0 0 1 0 0 0 0 1 0 0 0 0.1 0"/><feBlend in2="shape" result="effect1_innerShadow"/></filter><filter id="filter1_d" x="17.583" y="42.687" width="28.833" height="24.25" filterUnits="userSpaceOnUse" color-interpolation-filters="sRGB"><feFlood flood-opacity="0" result="BackgroundImageFix"/><feColorMatrix in="SourceAlpha" values="0 0 0 0 0 0 0 0 0 0 0 0 0 0 0 0 0 0 127 0"/><feOffset dy="-1"/><feGaussianBlur stdDeviation="4"/><feColorMatrix values="0 0 0 0 1 0 0 0 0 1 0 0 0 0 1 0 0 0 0.75 0"/><feBlend in2="BackgroundImageFix" result="effect1_dropShadow"/><feBlend in="SourceGraphic" in2="effect1_dropShadow" result="shape"/></filter><linearGradient id="paint0_linear" x1="52.92" y1="55.974" x2="10.188" y2="48.844" gradientUnits="userSpaceOnUse"><stop stop-color="#fff"/><stop offset="1" stop-color="#fff" stop-opacity="0"/></linearGradient><clipPath id="clip0"><path fill="#fff" transform="matrix(.80001 -.59998 .80001 .59998 10 56.499)" d="M0 0h27.499v27.499H0z"/></clipPath></defs></svg>