<svg width="120" height="120" fill="none" xmlns="http://www.w3.org/2000/svg"><path d="M59.927 35.316l7.938 6.535 11.233-2.683 2.518 8.637 11.516-6.179v8.068l-3.577 8.424 8.713-2.113v8.067l-8.713 5.954 3.577.355v8.07l-11.516 1.888-2.519 8.637-11.232-2.683-7.938 6.536-7.94-6.535-11.231 2.682-2.519-8.637-11.515-1.889v-8.07l3.576-.353-8.713-5.954v-8.066l8.713 2.112-3.576-8.424V41.63l11.515 6.175 2.519-8.637 11.232 2.683 7.939-6.535z" fill="#CA3030"/><g filter="url(#filter0_i)"><path d="M59.927 27.248l7.938 6.535 11.233-2.682 2.518 8.637 11.516 1.889-3.577 8.424 8.713 5.954-8.713 5.954 3.577 8.424-11.516 1.889-2.519 8.637-11.231-2.683-7.94 6.535-7.938-6.535-11.232 2.683-2.519-8.637-11.516-1.889 3.577-8.424-8.713-5.954 8.713-5.954-3.576-8.424 11.515-1.89 2.519-8.636 11.232 2.682 7.939-6.535z" fill="red"/><path d="M59.927 27.248l7.938 6.535 11.233-2.682 2.518 8.637 11.516 1.889-3.577 8.424 8.713 5.954-8.713 5.954 3.577 8.424-11.516 1.889-2.519 8.637-11.231-2.683-7.94 6.535-7.938-6.535-11.232 2.683-2.519-8.637-11.516-1.889 3.577-8.424-8.713-5.954 8.713-5.954-3.576-8.424 11.515-1.89 2.519-8.636 11.232 2.682 7.939-6.535z" fill="url(#paint0_linear)" fill-opacity=".5"/></g><g filter="url(#filter1_d)"><path d="M79.068 42.279l8.97 1.5-2.688 6.453-.31.744.661.461L92.251 56l-6.55 4.563-.66.46.309.745 2.687 6.454-8.969 1.5-.623.104-.173.607-1.97 6.885-9.026-2.198-.491-.12-.388.325L60 80.695l-6.397-5.37-.388-.325-.492.12-9.026 2.198-1.969-6.885-.174-.607-.622-.104-8.97-1.5 2.688-6.454.31-.744-.662-.461L27.75 56l6.55-4.563.66-.46-.309-.745-2.687-6.453 8.969-1.5.622-.105.174-.607 1.97-6.885 9.026 2.198.491.12.388-.325L60 31.305l6.397 5.37.388.325.492-.12 9.026-2.198 1.969 6.885.173.607.623.105z" stroke="#fff" stroke-width="2"/></g><defs><filter id="filter0_i" x="21.585" y="27.248" width="76.684" height="57.513" filterUnits="userSpaceOnUse" color-interpolation-filters="sRGB"><feFlood flood-opacity="0" result="BackgroundImageFix"/><feBlend in="SourceGraphic" in2="BackgroundImageFix" result="shape"/><feColorMatrix in="SourceAlpha" values="0 0 0 0 0 0 0 0 0 0 0 0 0 0 0 0 0 0 127 0" result="hardAlpha"/><feOffset dy="-1"/><feComposite in2="hardAlpha" operator="arithmetic" k2="-1" k3="1"/><feColorMatrix values="0 0 0 0 1 0 0 0 0 1 0 0 0 0 1 0 0 0 0.1 0"/><feBlend in2="shape" result="effect1_innerShadow"/></filter><filter id="filter1_d" x="18" y="21" width="84" height="68" filterUnits="userSpaceOnUse" color-interpolation-filters="sRGB"><feFlood flood-opacity="0" result="BackgroundImageFix"/><feColorMatrix in="SourceAlpha" values="0 0 0 0 0 0 0 0 0 0 0 0 0 0 0 0 0 0 127 0"/><feOffset dy="-1"/><feGaussianBlur stdDeviation="4"/><feColorMatrix values="0 0 0 0 1 0 0 0 0 1 0 0 0 0 1 0 0 0 0.75 0"/><feBlend in2="BackgroundImageFix" result="effect1_dropShadow"/><feBlend in="SourceGraphic" in2="effect1_dropShadow" result="shape"/></filter><linearGradient id="paint0_linear" x1="169.163" y1="144.32" x2="52.453" y2="118.357" gradientUnits="userSpaceOnUse"><stop stop-color="#fff"/><stop offset="1" stop-color="#fff" stop-opacity="0"/></linearGradient></defs></svg>