<svg version="1" xmlns="http://www.w3.org/2000/svg" width="826.667" height="826.667" viewBox="0 0 620.000000 620.000000"><path d="M304.9 1.6c-2.3 1.5-13.3 19.4-29.3 47.8-1.5 2.8-7.9 13.9-14.1 24.6-6.1 10.7-17.4 30.3-25 43.5-7.5 13.2-14.8 25.6-16 27.6l-2.4 3.7h-84.9c-81.3 0-85.1.1-87.5 1.8-5.3 3.9-6 9.6-2.1 16.4 1.4 2.5 3.6 6.3 4.9 8.5 1.2 2.2 4.6 8 7.5 13 2.9 4.9 6.2 10.6 7.2 12.5 1.1 1.9 4.6 8 7.8 13.5s6.7 11.6 7.8 13.6c1.1 1.9 5.3 9.3 9.4 16.5 4.2 7.1 11.9 20.5 17.3 29.9 8.7 15.3 12.9 22.5 18.6 32.1l1.9 3.1-8.6 14.9c-4.8 8.2-9.5 16.5-10.6 18.4-1.1 1.9-15.9 27.6-32.8 57s-31.2 54.5-31.9 55.7c-2 3.8-1.3 8 1.8 11.5l2.9 3.3 85.9.3 85.9.2 9.4 16.3c33.6 58.3 65.2 113.1 67.8 117.7 4.8 8.6 7.2 11.9 9.3 13.1 6.5 3.4 12.1 1 16.6-7.3 1.6-2.9 10.7-18.8 20.2-35.3 33.6-58.2 46.8-81 53.9-93.7 1.1-1.8 2.9-5 4.2-7.1l2.2-3.7h84.4c92.6 0 88.7.2 91.8-5.9 2.6-5 1.8-7.4-9.9-27.3-.5-.9-2-3.4-3.1-5.5-2.2-3.9-40.6-70.5-56.7-98.3-4.9-8.5-10-17.5-11.3-19.9l-2.4-4.4 6.1-10.6c3.4-5.8 7-12.2 8.1-14.1 6.4-11.1 33.3-57.8 34.9-60.4 1-1.7 2.2-3.8 2.6-4.6.4-.8 2.8-5.1 5.3-9.5 25-42.6 27.3-47 27.3-51.4 0-3.7-.5-4.9-3.1-7.3-1.8-1.5-4.4-2.8-6-2.9-1.5 0-39.9-.1-85.3-.1-77.2 0-82.6-.2-83.6-1.8-.6-.9-13.1-22.6-27.8-48.1-26.8-46.7-41.9-72.9-50.2-87.1-2.5-4.2-5.3-8.4-6.3-9.3-2.7-2.5-9-2.9-12.1-.9zm27.6 68.9c12.1 20.9 22.5 39.1 23.2 40.5.8 1.4 2.3 4.1 3.5 6 3.3 5.7 24.4 42.2 26.5 46 1.1 1.9 9.7 16.8 19 33 34.3 59.5 39.3 68.1 39.3 68.6 0 1.6-13.4 23.4-14 22.7-.6-.6-45.8-79-53.3-92.3-1-1.9-7.1-12.5-13.5-23.5-6.3-10.9-12.5-21.7-13.7-24-1.3-2.2-6.8-11.7-12.2-21.1-5.5-9.4-10.2-17.7-10.6-18.5-.3-.8-2.6-4.6-4.9-8.4-3.6-5.8-5-7.2-8.2-8.3-3.4-1.1-4.3-1-7.5.5-3.1 1.6-5.3 4.7-16.3 23.8-6.9 12.1-14.2 24.6-16.2 27.7l-3.5 5.7-13.4-.1-13.5-.1 2-3.6c1.8-3.2 31.3-54.3 45.6-79.1 3-5.2 6.4-11.1 7.5-13 5-9 12.1-20.9 12.2-20.7.1.1 10 17.3 22 38.2zm-17.8 59.2c2.1 3.8 4.2 7.6 4.8 8.5 3.5 5.9 5.3 9.8 4.7 10.1-.4.3-6.9.5-14.5.5-16 .1-15.5.7-8.7-10.3 2-3.3 4.9-8.1 6.4-10.8 1.5-2.6 2.9-4.7 3.1-4.7.2 0 2 3 4.2 6.7zm29.7 51.8c3.6 6.3 6.6 11.7 6.6 11.9 0 .3-50.8.7-113 .8l-113 .3-2.6 2.6c-1.5 1.5-2.8 4.2-3.1 6.3-.5 3.8-.4 3.9 13.8 28.6 1.5 2.5 6.2 10.6 10.4 18 4.3 7.4 7.8 14 7.8 14.6 0 1.5-12.6 23.4-13.5 23.4-.5 0-.8-.4-.8-.9 0-.4-5.3-10-11.8-21.2-6.5-11.2-12.1-21.1-12.5-21.9-.4-.8-1.6-2.9-2.6-4.5-3-4.8-31.1-53.7-31.1-54.1 0-.2-1.9-3.4-4.1-7.1-2.3-3.8-4.3-7.1-4.6-7.5-.2-.4 59.9-.7 133.6-.7h133.9l6.6 11.4zM550 170.7c0 .9-7.2 13.7-8.6 15.4-.8.8-1.4 1.8-1.4 2.2 0 .3-2.8 5.4-6.3 11.4-3.5 5.9-6.6 11.5-7 12.3-.4.8-1.6 3-2.7 4.8-1.1 1.8-25.2 43.7-53.6 93-28.4 49.3-52.3 90.8-53.3 92.1-1.6 2.3-2.1 2.4-14.5 2.5-7 .1-13-.2-13.2-.5-.2-.3 12.1-22.2 27.2-48.5 15.2-26.4 28.6-49.7 29.9-51.9 1.2-2.2 4.7-8.3 7.7-13.5 3.1-5.2 8.1-14 11.3-19.5 3.1-5.5 6.5-11.4 7.5-13 22.4-38.9 28.1-49.1 28.5-51.4.6-3.4-2.4-9.2-5.6-10.8-1.8-.9-11.1-1.3-35.1-1.3h-32.7l-6.5-11.6c-3.6-6.4-6.6-11.8-6.6-12 0-.2 30.4-.4 67.5-.3 37.1 0 67.5.3 67.5.6zm-370 44.9c0 .1-2.3 4.2-5.1 9.1-2.9 4.8-6.3 10.9-7.8 13.5-2.7 5.1-3.1 5.1-5.9-.3-1-1.9-4.2-7.4-7-12.2-2.9-4.9-5.2-9.2-5.2-9.7 0-.4 7-.7 15.5-.7s15.5.2 15.5.3zm52 .4c0 .3-.6 1.4-1.4 2.5-.7 1.1-2.4 4-3.8 6.5s-9.3 16.2-17.5 30.5c-8.3 14.3-16 27.6-17 29.5-1.1 1.9-3.6 6.2-5.5 9.5-2 3.3-4.7 8-6 10.5-1.4 2.5-4.9 8.5-7.8 13.5-2.9 4.9-6.2 10.6-7.2 12.5-13.3 23.3-41.6 72.4-43.5 75.3-3.3 5.2-3.9 9.6-1.9 13.5 2.9 5.6 3.3 5.7 37.6 5.9 17.3.1 32.2.2 33.1.2 1.4.1 11.7 16.3 14 22 .6 1.5-5.9 1.6-67.1 1.6-60 0-67.7-.2-67-1.5.4-.8 13.5-23.6 29-50.5 15.6-27 29.4-51.1 30.9-53.6 2.1-3.7 30.2-52.6 37.5-65.2 1-1.7 9.5-16.5 18.8-32.7 9.3-16.2 17.5-29.8 18-30.1 1.3-.8 26.8-.7 26.8.1zm138.8 11.4c3.9 6.7 7.9 13.7 9 15.6 1.1 1.9 5.2 9.1 9.2 16 4 6.9 8.1 14.1 9.2 16 1.1 1.9 6.1 10.6 11 19.2l9 15.8-25.7 44.7c-14.2 24.7-26.6 45.9-27.5 47.3l-1.8 2.5-53.1-.1c-29.2 0-53.2-.3-53.4-.5-.4-.4-15.6-26.9-19.3-33.4-1.2-2.2-9.4-16.6-18.3-31.9-8.9-15.4-16.1-28.3-16.1-28.7 0-.5 3.3-6.6 7.4-13.6 10.6-18.5 25.8-44.8 34.4-59.8 4.2-7.2 8.6-14.8 9.9-17.1l2.3-4 53.4-.1h53.4l7 12.1zM472 215.8c0 .5-4.7 8.8-8.6 15.3-1.9 3.1-3.4 6.1-3.4 6.5 0 .5-.8 1.9-1.8 3.2-1.7 2.2-1.8 2.2-9.5-11.1-4.2-7.4-7.7-13.6-7.7-13.9 0-.3 7-.5 15.5-.5 8.5.1 15.5.3 15.5.5zM191.7 333.9c1.6 2.5 50.6 87.8 53.9 93.8 1.5 2.6 4.2 7.2 6.1 10.1 1.8 2.9 3.3 5.4 3.3 5.7 0 .3 1.8 3.4 4 7s4 6.7 4 6.9c0 .3 19.3 34.1 33.8 59.1 2.6 4.4 5.8 9 7.1 10.2 4 3.8 12.1 2.7 15.1-2 .7-1.2 4.5-7.6 8.3-14.2 3.8-6.6 10.5-18.2 14.9-25.8l8-13.7h13.4c7.4 0 13.4.2 13.4.5 0 1.7-66.4 115.5-67.1 114.8-.7-.8-19.6-33.1-24.3-41.8-1.3-2.2-6.7-11.7-12.1-21-26.2-45.3-42.5-73.9-42.5-74.7 0-.4-.4-.8-1-.8-.5 0-1-.4-1-.9 0-.6-2.4-5.2-5.4-10.3-30.2-52.1-46.7-81.2-46.4-82.2.5-1.8 12.2-22.6 12.8-22.6.3 0 1 .8 1.7 1.9zm325.9 58c17.8 31 32.4 56.7 32.4 57 0 .7-266.6.8-267.3.1-1.1-1.2-12.7-22-12.7-22.7 0-.4 50.1-.8 111.2-.7 61.2.1 112.3-.3 113.6-.7 4.8-1.8 7.7-7 6.6-11.7-.4-1.5-7.9-15.2-16.6-30.4l-16-27.8 6.8-11.6c6.3-10.8 6.9-11.6 8.2-9.8.8 1 16 27.3 33.8 58.3zm-344.8-.4c3.9 6.6 6.8 12.2 6.6 12.4-.7.8-29.6.6-30.1-.2-.2-.4 2.3-5.6 5.7-11.5 9.3-16 9.1-15.7 10.1-14.1.4.8 3.9 6.8 7.7 13.4zm291.6-1.4c4.2 7.1 7.6 13.3 7.6 13.7 0 .4-7 .7-15.5.7s-15.5-.2-15.5-.5c0-.7 15.1-27 15.5-27 .2 0 3.8 5.9 7.9 13.1zM325 471.4c0 .4-13.9 24.8-14.4 25.4-.4.3-14.6-24.2-14.6-25.2 0-.3 6.5-.6 14.5-.6s14.5.2 14.5.4z"/></svg>